<?xml version="1.0" encoding="UTF-8"?>
<svg xmlns="http://www.w3.org/2000/svg" xmlns:xlink="http://www.w3.org/1999/xlink" width="290pt" height="290pt" viewBox="0 0 290 290" version="1.1">
<defs>
<radialGradient id="radial0" gradientUnits="userSpaceOnUse" cx="264.6043" cy="450.7745" fx="264.6043" fy="450.7745" r="126.1409" gradientTransform="matrix(0.58,0,0,0.113158,0,212.367174)">
<stop offset="0.1398" style="stop-color:rgb(14.117647%,0%,45.490196%);stop-opacity:0.2;"/>
<stop offset="0.2917" style="stop-color:rgb(12.156863%,5.098039%,52.156863%);stop-opacity:0.160784;"/>
<stop offset="0.5909" style="stop-color:rgb(6.666667%,18.823529%,69.019608%);stop-opacity:0.0823529;"/>
<stop offset="0.914" style="stop-color:rgb(0%,35.294118%,89.803922%);stop-opacity:0;"/>
</radialGradient>
<linearGradient id="linear0" gradientUnits="userSpaceOnUse" x1="1312.032" y1="-298.0557" x2="1335.4363" y2="-565.5684" gradientTransform="matrix(-0.545548,0.19691,0.19691,0.545548,951.025768,120.595282)">
<stop offset="0" style="stop-color:rgb(21.568627%,35.294118%,100%);stop-opacity:0.2;"/>
<stop offset="1" style="stop-color:rgb(38.039216%,42.352941%,100%);stop-opacity:0.4;"/>
</linearGradient>
<linearGradient id="linear1" gradientUnits="userSpaceOnUse" x1="1269.4513" y1="-296.4178" x2="1269.4513" y2="-550.8737" gradientTransform="matrix(-0.545548,0.19691,0.19691,0.545548,951.025768,120.595282)">
<stop offset="0" style="stop-color:rgb(21.568627%,35.294118%,100%);stop-opacity:0.2;"/>
<stop offset="1" style="stop-color:rgb(38.039216%,42.352941%,100%);stop-opacity:0.4;"/>
</linearGradient>
<linearGradient id="linear2" gradientUnits="userSpaceOnUse" x1="1418.1213" y1="-361.5175" x2="1231.7266" y2="-489.6523" gradientTransform="matrix(-0.545548,0.19691,0.19691,0.545548,951.025768,120.595282)">
<stop offset="0" style="stop-color:rgb(32.156863%,48.627451%,100%);stop-opacity:1;"/>
<stop offset="1" style="stop-color:rgb(100%,73.72549%,85.882353%);stop-opacity:1;"/>
</linearGradient>
<linearGradient id="linear3" gradientUnits="userSpaceOnUse" x1="271.6189" y1="109.0842" x2="300.3115" y2="344.1776" gradientTransform="matrix(-0.570604,-0.10411,-0.10411,0.570604,332.400436,28.064866)">
<stop offset="0" style="stop-color:rgb(100%,100%,100%);stop-opacity:0;"/>
<stop offset="1" style="stop-color:rgb(100%,100%,100%);stop-opacity:0.4;"/>
</linearGradient>
<linearGradient id="linear4" gradientUnits="userSpaceOnUse" x1="185.7292" y1="146.0115" x2="209.6241" y2="146.0115" gradientTransform="matrix(0.577158,0.057072,-0.057072,0.577158,18.577864,-15.66319)">
<stop offset="0" style="stop-color:rgb(59.215686%,11.764706%,100%);stop-opacity:1;"/>
<stop offset="1" style="stop-color:rgb(16.470588%,26.27451%,100%);stop-opacity:1;"/>
</linearGradient>
<radialGradient id="radial1" gradientUnits="userSpaceOnUse" cx="752.7751" cy="550.9306" fx="752.7751" fy="550.9306" r="10.6808" gradientTransform="matrix(-0.579536,-0.023316,-0.023316,0.579536,685.904462,-66.675524)">
<stop offset="0.1237" style="stop-color:rgb(73.72549%,100%,43.921569%);stop-opacity:1;"/>
<stop offset="0.4152" style="stop-color:rgb(84.313725%,89.019608%,32.54902%);stop-opacity:1;"/>
<stop offset="0.7878" style="stop-color:rgb(95.686275%,76.862745%,20%);stop-opacity:1;"/>
<stop offset="0.9946" style="stop-color:rgb(100%,72.156863%,15.294118%);stop-opacity:1;"/>
</radialGradient>
<radialGradient id="radial2" gradientUnits="userSpaceOnUse" cx="1143.9236" cy="322.3221" fx="1143.9236" fy="322.3221" r="10.6809" gradientTransform="matrix(-0.093902,-0.572344,-0.572344,0.093902,358.112822,726.061574)">
<stop offset="0.1237" style="stop-color:rgb(0%,43.921569%,100%);stop-opacity:1;"/>
<stop offset="0.4521" style="stop-color:rgb(0%,26.27451%,100%);stop-opacity:1;"/>
<stop offset="0.7322" style="stop-color:rgb(0%,13.72549%,100%);stop-opacity:1;"/>
<stop offset="0.8871" style="stop-color:rgb(0%,9.019608%,100%);stop-opacity:1;"/>
</radialGradient>
<radialGradient id="radial3" gradientUnits="userSpaceOnUse" cx="890.0926" cy="345.3916" fx="890.0926" fy="345.3916" r="5.1845" gradientTransform="matrix(-0.093902,-0.572344,-0.572344,0.093902,358.112822,726.061574)">
<stop offset="0.1237" style="stop-color:rgb(0%,43.921569%,100%);stop-opacity:1;"/>
<stop offset="0.4521" style="stop-color:rgb(0%,26.27451%,100%);stop-opacity:1;"/>
<stop offset="0.7322" style="stop-color:rgb(0%,13.72549%,100%);stop-opacity:1;"/>
<stop offset="0.8871" style="stop-color:rgb(0%,9.019608%,100%);stop-opacity:1;"/>
</radialGradient>
<radialGradient id="radial4" gradientUnits="userSpaceOnUse" cx="1088.4818" cy="90.012" fx="1088.4818" fy="90.012" r="4.5664" gradientTransform="matrix(-0.528322,-0.239366,-0.239366,0.528322,779.34165,338.986568)">
<stop offset="0.1237" style="stop-color:rgb(73.72549%,100%,43.921569%);stop-opacity:1;"/>
<stop offset="0.4152" style="stop-color:rgb(84.313725%,89.019608%,32.54902%);stop-opacity:1;"/>
<stop offset="0.7878" style="stop-color:rgb(95.686275%,76.862745%,20%);stop-opacity:1;"/>
<stop offset="0.9946" style="stop-color:rgb(100%,72.156863%,15.294118%);stop-opacity:1;"/>
</radialGradient>
<radialGradient id="radial5" gradientUnits="userSpaceOnUse" cx="1183.3975" cy="263.0193" fx="1183.3975" fy="263.0193" r="4.5664" gradientTransform="matrix(-0.528322,-0.239366,-0.239366,0.528322,779.34165,338.986568)">
<stop offset="0.1237" style="stop-color:rgb(73.72549%,100%,43.921569%);stop-opacity:1;"/>
<stop offset="0.4152" style="stop-color:rgb(84.313725%,89.019608%,32.54902%);stop-opacity:1;"/>
<stop offset="0.7878" style="stop-color:rgb(95.686275%,76.862745%,20%);stop-opacity:1;"/>
<stop offset="0.9946" style="stop-color:rgb(100%,72.156863%,15.294118%);stop-opacity:1;"/>
</radialGradient>
<radialGradient id="radial6" gradientUnits="userSpaceOnUse" cx="963.5262" cy="285.8762" fx="963.5262" fy="285.8762" r="10.6809" gradientTransform="matrix(-0.093902,-0.572344,-0.572344,0.093902,358.112822,726.061574)">
<stop offset="0.1237" style="stop-color:rgb(73.72549%,100%,43.921569%);stop-opacity:1;"/>
<stop offset="0.4152" style="stop-color:rgb(84.313725%,89.019608%,32.54902%);stop-opacity:1;"/>
<stop offset="0.7878" style="stop-color:rgb(95.686275%,76.862745%,20%);stop-opacity:1;"/>
<stop offset="0.9946" style="stop-color:rgb(100%,72.156863%,15.294118%);stop-opacity:1;"/>
</radialGradient>
<linearGradient id="linear5" gradientUnits="userSpaceOnUse" x1="363.6893" y1="97.6655" x2="407.8492" y2="141.8254" gradientTransform="matrix(0.57594,0.068672,-0.068672,0.57594,17.535256,-24.115994)">
<stop offset="0" style="stop-color:rgb(66.27451%,0%,47.45098%);stop-opacity:1;"/>
<stop offset="0.3249" style="stop-color:rgb(65.882353%,0%,48.235294%);stop-opacity:1;"/>
<stop offset="0.4417" style="stop-color:rgb(63.529412%,0%,50.980392%);stop-opacity:1;"/>
<stop offset="0.5249" style="stop-color:rgb(60%,0%,55.294118%);stop-opacity:1;"/>
<stop offset="0.5376" style="stop-color:rgb(59.215686%,0%,56.470588%);stop-opacity:1;"/>
<stop offset="0.8053" style="stop-color:rgb(60%,0%,55.294118%);stop-opacity:1;"/>
<stop offset="1" style="stop-color:rgb(61.960784%,0%,51.764706%);stop-opacity:1;"/>
</linearGradient>
<linearGradient id="linear6" gradientUnits="userSpaceOnUse" x1="355.4116" y1="150.1205" x2="399.5537" y2="105.9784" gradientTransform="matrix(0.57594,0.068672,-0.068672,0.57594,17.535256,-24.115994)">
<stop offset="0" style="stop-color:rgb(98.823529%,84.705882%,27.058824%);stop-opacity:1;"/>
<stop offset="0.4087" style="stop-color:rgb(96.862745%,40.784314%,32.156863%);stop-opacity:1;"/>
<stop offset="0.7335" style="stop-color:rgb(83.529412%,21.176471%,23.921569%);stop-opacity:1;"/>
<stop offset="0.9624" style="stop-color:rgb(78.039216%,0%,49.411765%);stop-opacity:1;"/>
</linearGradient>
<linearGradient id="linear7" gradientUnits="userSpaceOnUse" x1="136.4155" y1="51.2034" x2="185.6888" y2="100.4767" gradientTransform="matrix(-0.562194,0.14268,0.14268,0.562194,158.144598,-18.605878)">
<stop offset="0" style="stop-color:rgb(84.705882%,21.568627%,7.843137%);stop-opacity:1;"/>
<stop offset="0.153" style="stop-color:rgb(83.529412%,21.176471%,7.843137%);stop-opacity:1;"/>
<stop offset="0.2623" style="stop-color:rgb(80%,20.392157%,7.843137%);stop-opacity:1;"/>
<stop offset="0.358" style="stop-color:rgb(73.72549%,19.215686%,7.843137%);stop-opacity:1;"/>
<stop offset="0.4454" style="stop-color:rgb(65.098039%,17.254902%,7.843137%);stop-opacity:1;"/>
<stop offset="0.4892" style="stop-color:rgb(59.607843%,16.078431%,7.843137%);stop-opacity:1;"/>
<stop offset="1" style="stop-color:rgb(84.705882%,21.568627%,7.843137%);stop-opacity:1;"/>
</linearGradient>
<linearGradient id="linear8" gradientUnits="userSpaceOnUse" x1="127.299" y1="396.1215" x2="174.27" y2="443.0925" gradientTransform="matrix(0.576462,0.063974,-0.063974,0.576462,114.117378,-14.752996)">
<stop offset="0" style="stop-color:rgb(63.137255%,16.862745%,7.843137%);stop-opacity:1;"/>
<stop offset="0.2536" style="stop-color:rgb(62.352941%,16.862745%,7.843137%);stop-opacity:1;"/>
<stop offset="0.3449" style="stop-color:rgb(59.607843%,16.078431%,7.843137%);stop-opacity:1;"/>
<stop offset="0.41" style="stop-color:rgb(55.294118%,15.294118%,7.843137%);stop-opacity:1;"/>
<stop offset="0.4623" style="stop-color:rgb(48.627451%,13.72549%,7.843137%);stop-opacity:1;"/>
<stop offset="0.5" style="stop-color:rgb(41.568627%,12.156863%,7.843137%);stop-opacity:1;"/>
<stop offset="0.9785" style="stop-color:rgb(55.294118%,14.901961%,7.843137%);stop-opacity:1;"/>
</linearGradient>
<linearGradient id="linear9" gradientUnits="userSpaceOnUse" x1="84.4025" y1="362.0249" x2="149.5519" y2="427.1743" gradientTransform="matrix(-0.535862,0.221908,0.221908,0.535862,35.744182,-25.670626)">
<stop offset="0" style="stop-color:rgb(0%,1.568627%,100%);stop-opacity:1;"/>
<stop offset="0.2574" style="stop-color:rgb(0%,1.568627%,99.215686%);stop-opacity:1;"/>
<stop offset="0.3502" style="stop-color:rgb(0%,1.568627%,96.470588%);stop-opacity:1;"/>
<stop offset="0.4162" style="stop-color:rgb(0%,1.568627%,92.156863%);stop-opacity:1;"/>
<stop offset="0.4693" style="stop-color:rgb(0%,1.568627%,85.490196%);stop-opacity:1;"/>
<stop offset="0.5" style="stop-color:rgb(0%,1.568627%,80%);stop-opacity:1;"/>
<stop offset="0.6724" style="stop-color:rgb(0%,1.960784%,81.960784%);stop-opacity:1;"/>
<stop offset="0.8659" style="stop-color:rgb(0%,2.745098%,87.058824%);stop-opacity:1;"/>
<stop offset="1" style="stop-color:rgb(0%,3.921569%,92.54902%);stop-opacity:1;"/>
</linearGradient>
<linearGradient id="linear10" gradientUnits="userSpaceOnUse" x1="357.0369" y1="246.8723" x2="382.7956" y2="246.8723" gradientTransform="matrix(0.547172,0.192386,-0.192386,0.547172,49.54215,-56.234132)">
<stop offset="0" style="stop-color:rgb(61.176471%,70.196078%,100%);stop-opacity:1;"/>
<stop offset="0.2097" style="stop-color:rgb(60.392157%,69.411765%,100%);stop-opacity:1;"/>
<stop offset="0.3029" style="stop-color:rgb(57.647059%,66.666667%,100%);stop-opacity:1;"/>
<stop offset="0.373" style="stop-color:rgb(52.941176%,61.568627%,100%);stop-opacity:1;"/>
<stop offset="0.4317" style="stop-color:rgb(46.27451%,54.509804%,100%);stop-opacity:1;"/>
<stop offset="0.4825" style="stop-color:rgb(37.647059%,45.490196%,100%);stop-opacity:1;"/>
<stop offset="0.5" style="stop-color:rgb(34.117647%,41.568627%,100%);stop-opacity:1;"/>
<stop offset="0.6009" style="stop-color:rgb(38.431373%,45.490196%,100%);stop-opacity:1;"/>
<stop offset="0.7805" style="stop-color:rgb(50.588235%,56.470588%,100%);stop-opacity:1;"/>
<stop offset="1" style="stop-color:rgb(68.235294%,72.54902%,100%);stop-opacity:1;"/>
</linearGradient>
<linearGradient id="linear11" gradientUnits="userSpaceOnUse" x1="428.7134" y1="254.9294" x2="485.4153" y2="311.6313" gradientTransform="matrix(0.5249,0.246732,-0.246732,0.5249,69.725512,-78.134236)">
<stop offset="0" style="stop-color:rgb(0%,17.647059%,100%);stop-opacity:1;"/>
<stop offset="0.3174" style="stop-color:rgb(0%,17.254902%,99.215686%);stop-opacity:1;"/>
<stop offset="0.4315" style="stop-color:rgb(0%,16.078431%,96.470588%);stop-opacity:1;"/>
<stop offset="0.5" style="stop-color:rgb(0%,14.117647%,92.941176%);stop-opacity:1;"/>
<stop offset="0.7366" style="stop-color:rgb(0%,14.901961%,94.901961%);stop-opacity:1;"/>
<stop offset="1" style="stop-color:rgb(0%,17.647059%,100%);stop-opacity:1;"/>
</linearGradient>
<linearGradient id="linear12" gradientUnits="userSpaceOnUse" x1="95.501" y1="265.5397" x2="123.4507" y2="293.4894" gradientTransform="matrix(0.503324,-0.288202,0.288202,0.503324,-69.79459,39.575836)">
<stop offset="0" style="stop-color:rgb(63.137255%,16.862745%,7.843137%);stop-opacity:1;"/>
<stop offset="0.5071" style="stop-color:rgb(62.352941%,16.862745%,7.843137%);stop-opacity:1;"/>
<stop offset="0.6898" style="stop-color:rgb(59.607843%,16.078431%,7.843137%);stop-opacity:1;"/>
<stop offset="0.82" style="stop-color:rgb(55.294118%,15.294118%,7.843137%);stop-opacity:1;"/>
<stop offset="0.9245" style="stop-color:rgb(48.627451%,13.72549%,7.843137%);stop-opacity:1;"/>
<stop offset="1" style="stop-color:rgb(41.568627%,12.156863%,7.843137%);stop-opacity:1;"/>
</linearGradient>
<linearGradient id="linear13" gradientUnits="userSpaceOnUse" x1="373.3722" y1="201.9468" x2="392.3422" y2="220.9168" gradientTransform="matrix(-0.489694,-0.310822,-0.310822,0.489694,466.368082,123.978886)">
<stop offset="0" style="stop-color:rgb(63.137255%,16.862745%,7.843137%);stop-opacity:1;"/>
<stop offset="0.5071" style="stop-color:rgb(62.352941%,16.862745%,7.843137%);stop-opacity:1;"/>
<stop offset="0.6898" style="stop-color:rgb(59.607843%,16.078431%,7.843137%);stop-opacity:1;"/>
<stop offset="0.82" style="stop-color:rgb(55.294118%,15.294118%,7.843137%);stop-opacity:1;"/>
<stop offset="0.9245" style="stop-color:rgb(48.627451%,13.72549%,7.843137%);stop-opacity:1;"/>
<stop offset="1" style="stop-color:rgb(41.568627%,12.156863%,7.843137%);stop-opacity:1;"/>
</linearGradient>
<linearGradient id="linear14" gradientUnits="userSpaceOnUse" x1="335.1316" y1="198.2929" x2="396.4884" y2="259.6498" gradientTransform="matrix(0.485924,0.31668,-0.31668,0.485924,148.279668,-99.132092)">
<stop offset="0" style="stop-color:rgb(0%,3.137255%,89.019608%);stop-opacity:1;"/>
<stop offset="0.3174" style="stop-color:rgb(0.784314%,2.745098%,88.235294%);stop-opacity:1;"/>
<stop offset="0.4315" style="stop-color:rgb(3.137255%,1.568627%,85.490196%);stop-opacity:1;"/>
<stop offset="0.5" style="stop-color:rgb(6.27451%,0%,81.960784%);stop-opacity:1;"/>
<stop offset="0.8478" style="stop-color:rgb(2.352941%,1.960784%,86.27451%);stop-opacity:1;"/>
<stop offset="1" style="stop-color:rgb(0%,3.137255%,89.019608%);stop-opacity:1;"/>
</linearGradient>
<linearGradient id="linear15" gradientUnits="userSpaceOnUse" x1="-20.5669" y1="143.3509" x2="19.0503" y2="143.3509" gradientTransform="matrix(-0.568516,0.114724,0.114724,0.568516,157.071714,-26.377994)">
<stop offset="0.3978" style="stop-color:rgb(92.156863%,70.196078%,0%);stop-opacity:1;"/>
<stop offset="0.5547" style="stop-color:rgb(92.941176%,71.764706%,0%);stop-opacity:1;"/>
<stop offset="0.7276" style="stop-color:rgb(94.901961%,77.254902%,0%);stop-opacity:1;"/>
<stop offset="0.9073" style="stop-color:rgb(98.039216%,85.882353%,0%);stop-opacity:1;"/>
<stop offset="1" style="stop-color:rgb(100%,91.372549%,0%);stop-opacity:1;"/>
</linearGradient>
</defs>
<g id="surface1">
<path style=" stroke:none;fill-rule:nonzero;fill:url(#radial0);" d="M 256.335938 263.382812 C 256.335938 255.40625 210.28125 248.9375 153.46875 248.9375 C 96.65625 248.9375 50.597656 255.40625 50.597656 263.382812 C 50.597656 271.363281 96.65625 277.832031 153.46875 277.832031 C 210.28125 277.832031 256.335938 271.363281 256.335938 263.382812 Z M 256.335938 263.382812 "/>
<path style=" stroke:none;fill-rule:nonzero;fill:rgb(62.352941%,67.45098%,100%);fill-opacity:1;" d="M 192.613281 212.988281 C 193.441406 212.5625 196.167969 211.074219 196.972656 210.453125 C 197.679688 209.902344 198.796875 208.160156 198.796875 208.167969 C 198.816406 208.226562 164.023438 120.890625 148.484375 78.359375 C 147.269531 75.023438 144.164062 72.765625 141.566406 73.328125 C 126.816406 76.582031 102.351562 80.082031 94.3125 81.472656 C 88.941406 82.402344 85.996094 87.070312 87.839844 92.105469 C 105.074219 139.246094 122.308594 186.402344 139.546875 233.566406 C 140.90625 237.285156 143.765625 238.378906 146.144531 237.851562 C 147.957031 237.453125 149.925781 236.351562 150.332031 236.136719 C 165.382812 228.253906 177.429688 220.738281 192.613281 212.988281 Z M 192.613281 212.988281 "/>
<path style=" stroke:none;fill-rule:nonzero;fill:rgb(3.921569%,1.960784%,64.705882%);fill-opacity:1;" d="M 198.667969 210.035156 C 201.027344 208.824219 201.957031 205.121094 200.730469 201.789062 C 185.199219 159.273438 170.027344 117.78125 154.5 75.289062 C 153.28125 71.953125 150.171875 69.691406 147.574219 70.25 C 130.429688 73.96875 111.671875 77.84375 94.488281 81.4375 C 91.882812 81.976562 90.867188 85.445312 92.230469 89.167969 C 109.503906 136.421875 126.601562 184.15625 143.890625 231.460938 C 145.253906 235.191406 148.277344 237.21875 150.632812 235.996094 C 166.179688 227.921875 183.078125 217.980469 198.667969 210.035156 Z M 198.667969 210.035156 "/>
<path style=" stroke:none;fill-rule:nonzero;fill:url(#linear0);" d="M 147.175781 71.542969 C 147.175781 71.542969 137.363281 73.609375 122.617188 76.648438 C 115.257812 78.195312 106.660156 79.988281 97.445312 81.882812 C 96.871094 82.007812 96.292969 82.128906 95.710938 82.25 C 95.675781 82.253906 95.640625 82.265625 95.601562 82.273438 C 95.5625 82.285156 95.519531 82.296875 95.484375 82.308594 C 95.414062 82.324219 95.347656 82.347656 95.269531 82.371094 C 95.132812 82.40625 94.980469 82.492188 94.839844 82.550781 C 94.703125 82.621094 94.582031 82.71875 94.445312 82.800781 C 94.324219 82.90625 94.210938 83.007812 94.09375 83.121094 C 93.21875 84.058594 92.824219 85.6875 93.113281 87.5 C 93.1875 87.945312 93.289062 88.402344 93.4375 88.855469 C 93.582031 89.320312 93.746094 89.71875 93.894531 90.148438 C 94.203125 90.996094 94.515625 91.847656 94.828125 92.707031 C 95.449219 94.414062 96.078125 96.136719 96.710938 97.859375 C 99.21875 104.753906 101.777344 111.753906 104.332031 118.761719 C 109.464844 132.761719 114.589844 146.769531 119.40625 159.894531 C 124.230469 173.015625 128.738281 185.261719 132.597656 195.753906 C 140.367188 216.730469 145.539062 230.707031 145.539062 230.707031 C 145.539062 230.707031 140.476562 216.671875 132.882812 195.632812 C 129.066406 185.125 124.617188 172.863281 119.851562 159.730469 C 115.066406 146.605469 109.960938 132.605469 104.859375 118.609375 C 102.292969 111.613281 99.730469 104.621094 97.207031 97.734375 C 96.574219 96.011719 95.949219 94.300781 95.324219 92.589844 C 95.011719 91.738281 94.695312 90.886719 94.390625 90.039062 C 94.070312 89.175781 93.769531 88.386719 93.652344 87.585938 C 93.386719 85.992188 93.738281 84.535156 94.511719 83.699219 C 94.609375 83.601562 94.714844 83.507812 94.824219 83.414062 C 94.941406 83.339844 95.050781 83.253906 95.171875 83.195312 C 95.300781 83.144531 95.398438 83.074219 95.542969 83.03125 C 95.613281 83.007812 95.683594 82.992188 95.753906 82.96875 C 95.78125 82.957031 95.816406 82.953125 95.84375 82.941406 C 95.878906 82.933594 95.914062 82.921875 95.957031 82.917969 C 96.535156 82.796875 97.109375 82.667969 97.683594 82.546875 C 106.863281 80.550781 115.425781 78.671875 122.761719 77.054688 C 137.417969 73.765625 147.175781 71.542969 147.175781 71.542969 Z M 147.175781 71.542969 "/>
<path style=" stroke:none;fill-rule:nonzero;fill:url(#linear1);" d="M 198.324219 209.101562 C 198.324219 209.101562 198.421875 209.042969 198.609375 208.9375 C 198.796875 208.824219 199.0625 208.625 199.363281 208.289062 C 199.664062 207.953125 199.984375 207.453125 200.234375 206.757812 C 200.464844 206.054688 200.632812 205.152344 200.550781 204.089844 C 200.523438 203.5625 200.414062 203.003906 200.246094 202.4375 C 200.070312 201.867188 199.851562 201.316406 199.640625 200.714844 C 199.21875 199.527344 198.753906 198.238281 198.265625 196.863281 C 197.28125 194.121094 196.167969 191.015625 194.957031 187.640625 C 192.511719 180.890625 189.664062 173.015625 186.613281 164.574219 C 183.546875 156.148438 180.636719 148.167969 177.363281 139.183594 C 174.070312 130.203125 170.773438 121.21875 167.691406 112.796875 C 164.582031 104.382812 161.679688 96.53125 159.199219 89.796875 C 157.945312 86.429688 156.804688 83.347656 155.78125 80.613281 C 155.273438 79.246094 154.796875 77.96875 154.355469 76.785156 C 154.128906 76.195312 153.9375 75.625 153.707031 75.085938 C 153.472656 74.546875 153.195312 74.042969 152.875 73.621094 C 152.253906 72.753906 151.535156 72.164062 150.90625 71.769531 C 150.261719 71.386719 149.691406 71.207031 149.246094 71.136719 C 148.800781 71.074219 148.460938 71.085938 148.246094 71.113281 C 148.035156 71.148438 147.921875 71.164062 147.921875 71.164062 C 147.921875 71.164062 148.035156 71.148438 148.253906 71.121094 C 148.472656 71.097656 148.804688 71.089844 149.25 71.164062 C 149.699219 71.246094 150.261719 71.4375 150.894531 71.828125 C 151.511719 72.226562 152.214844 72.820312 152.808594 73.675781 C 153.113281 74.101562 153.375 74.589844 153.59375 75.117188 C 153.816406 75.644531 154 76.222656 154.214844 76.816406 C 154.640625 78.003906 155.097656 79.285156 155.589844 80.660156 C 156.578125 83.402344 157.683594 86.496094 158.898438 89.875 C 161.339844 96.628906 164.179688 104.5 167.230469 112.9375 C 170.300781 121.371094 173.578125 130.367188 176.847656 139.363281 C 180.148438 148.351562 183.089844 156.328125 186.179688 164.753906 C 189.289062 173.175781 192.1875 181.035156 194.675781 187.769531 C 195.929688 191.132812 197.074219 194.21875 198.085938 196.949219 C 198.597656 198.3125 199.074219 199.59375 199.515625 200.777344 C 199.730469 201.371094 199.960938 201.933594 200.136719 202.476562 C 200.304688 203.023438 200.417969 203.570312 200.460938 204.085938 C 200.550781 205.121094 200.402344 206.023438 200.179688 206.71875 C 199.949219 207.414062 199.636719 207.917969 199.347656 208.261719 C 199.050781 208.601562 198.789062 208.804688 198.609375 208.925781 C 198.421875 209.042969 198.324219 209.101562 198.324219 209.101562 Z M 198.324219 209.101562 "/>
<path style=" stroke:none;fill-rule:nonzero;fill:url(#linear2);" d="M 96.332031 83.914062 C 100.335938 83.054688 106.210938 81.726562 110.207031 80.863281 C 110.507812 80.800781 110.878906 81.085938 111.03125 81.5 C 111.273438 82.167969 111.515625 82.835938 111.761719 83.503906 C 112.496094 85.507812 114.253906 86.871094 115.699219 86.542969 C 122.703125 84.941406 129.710938 83.335938 136.71875 81.714844 C 138.15625 81.378906 138.753906 79.558594 138.058594 77.644531 C 137.824219 77.007812 137.59375 76.367188 137.355469 75.730469 C 137.210938 75.332031 137.332031 74.953125 137.640625 74.882812 C 141.636719 74.007812 144.441406 73.460938 148.433594 72.582031 C 150.035156 72.226562 151.960938 73.632812 152.714844 75.695312 C 168.285156 118.324219 183.511719 159.953125 199.097656 202.601562 C 199.851562 204.664062 199.277344 206.960938 197.820312 207.699219 C 182.203125 215.574219 166.070312 224.992188 150.492188 232.984375 C 149.035156 233.734375 147.164062 232.476562 146.328125 230.183594 C 129.109375 183.058594 112.144531 135.761719 94.941406 88.6875 C 94.097656 86.402344 94.730469 84.25 96.332031 83.914062 Z M 96.332031 83.914062 "/>
<path style=" stroke:none;fill-rule:nonzero;fill:rgb(100%,100%,100%);fill-opacity:1;" d="M 142.8125 172.898438 C 141.875 173.257812 140.847656 173.195312 139.90625 172.722656 C 138.894531 172.214844 138.097656 171.296875 137.675781 170.136719 C 137.644531 170.054688 137.617188 169.976562 137.585938 169.894531 C 136.730469 167.554688 137.6875 165.003906 139.726562 164.214844 C 149.214844 160.507812 158.710938 156.804688 168.199219 153.101562 C 169.203125 152.726562 170.3125 152.761719 171.292969 153.246094 C 172.238281 153.710938 172.960938 154.53125 173.332031 155.542969 C 173.363281 155.621094 173.386719 155.6875 173.414062 155.765625 C 174.195312 157.898438 173.195312 160.316406 171.167969 161.160156 C 161.746094 165.050781 152.324219 168.949219 142.910156 172.855469 C 142.878906 172.867188 142.84375 172.886719 142.8125 172.898438 Z M 168.457031 153.660156 C 168.4375 153.664062 168.425781 153.671875 168.414062 153.675781 C 158.925781 157.382812 149.4375 161.09375 139.949219 164.808594 C 138.195312 165.492188 137.371094 167.683594 138.117188 169.695312 C 138.144531 169.777344 138.171875 169.859375 138.203125 169.941406 C 138.566406 170.9375 139.253906 171.726562 140.121094 172.160156 C 140.953125 172.578125 141.867188 172.625 142.679688 172.277344 C 152.097656 168.375 161.519531 164.480469 170.945312 160.597656 C 172.683594 159.878906 173.546875 157.800781 172.878906 155.972656 C 172.851562 155.898438 172.828125 155.828125 172.800781 155.753906 C 172.480469 154.890625 171.867188 154.199219 171.066406 153.804688 C 170.234375 153.386719 169.3125 153.339844 168.457031 153.660156 Z M 168.457031 153.660156 "/>
<path style=" stroke:none;fill-rule:nonzero;fill:rgb(100%,100%,100%);fill-opacity:1;" d="M 147.203125 185.027344 C 146.292969 185.386719 145.300781 185.339844 144.386719 184.898438 C 143.375 184.410156 142.585938 183.507812 142.15625 182.347656 C 142.128906 182.265625 142.101562 182.183594 142.070312 182.101562 C 141.210938 179.765625 142.152344 177.171875 144.171875 176.3125 C 153.554688 172.316406 162.9375 168.328125 172.328125 164.347656 C 173.328125 163.929688 174.417969 163.949219 175.398438 164.417969 C 176.335938 164.863281 177.054688 165.671875 177.433594 166.6875 C 177.460938 166.761719 177.484375 166.832031 177.515625 166.90625 C 178.296875 169.039062 177.3125 171.507812 175.316406 172.398438 C 165.996094 176.570312 156.679688 180.75 147.371094 184.945312 C 147.308594 184.980469 147.257812 185.003906 147.203125 185.027344 Z M 172.660156 164.882812 C 172.625 164.894531 172.589844 164.910156 172.554688 164.921875 C 163.164062 168.90625 153.78125 172.902344 144.402344 176.90625 C 142.667969 177.640625 141.863281 179.882812 142.605469 181.898438 C 142.632812 181.980469 142.664062 182.0625 142.691406 182.144531 C 143.058594 183.136719 143.734375 183.914062 144.59375 184.328125 C 145.417969 184.730469 146.324219 184.742188 147.121094 184.375 C 156.4375 180.1875 165.753906 176.007812 175.074219 171.84375 C 176.796875 171.070312 177.648438 168.953125 176.976562 167.121094 C 176.945312 167.046875 176.921875 166.976562 176.894531 166.902344 C 176.574219 166.042969 175.964844 165.359375 175.171875 164.980469 C 174.378906 164.597656 173.484375 164.5625 172.660156 164.882812 Z M 172.660156 164.882812 "/>
<path style=" stroke:none;fill-rule:nonzero;fill:rgb(100%,100%,100%);fill-opacity:1;" d="M 143.261719 166.007812 C 143.464844 166.5625 143.671875 167.121094 143.875 167.679688 C 143.984375 167.972656 143.996094 168.234375 143.910156 168.460938 C 143.824219 168.6875 143.65625 168.855469 143.394531 168.960938 C 143.136719 169.0625 142.90625 169.058594 142.703125 168.949219 C 142.5 168.839844 142.34375 168.628906 142.234375 168.332031 C 142.03125 167.777344 141.820312 167.21875 141.617188 166.664062 C 141.699219 166.628906 141.785156 166.597656 141.867188 166.5625 C 142.078125 167.128906 142.285156 167.691406 142.488281 168.257812 C 142.570312 168.472656 142.679688 168.625 142.820312 168.699219 C 142.957031 168.773438 143.125 168.773438 143.3125 168.699219 C 143.492188 168.625 143.609375 168.511719 143.664062 168.355469 C 143.722656 168.199219 143.707031 168.015625 143.632812 167.800781 C 143.421875 167.238281 143.21875 166.679688 143.011719 166.117188 C 143.09375 166.070312 143.171875 166.035156 143.261719 166.007812 Z M 143.261719 166.007812 "/>
<path style=" stroke:none;fill-rule:nonzero;fill:rgb(100%,100%,100%);fill-opacity:1;" d="M 145.726562 167.429688 C 145.789062 167.609375 145.789062 167.769531 145.714844 167.910156 C 145.636719 168.054688 145.5 168.164062 145.296875 168.246094 C 145.082031 168.332031 144.902344 168.363281 144.75 168.328125 C 144.714844 168.234375 144.6875 168.148438 144.652344 168.054688 C 144.746094 168.074219 144.84375 168.074219 144.941406 168.066406 C 145.039062 168.054688 145.132812 168.039062 145.214844 168.003906 C 145.34375 167.949219 145.429688 167.886719 145.480469 167.8125 C 145.535156 167.734375 145.539062 167.648438 145.503906 167.542969 C 145.476562 167.46875 145.421875 167.417969 145.355469 167.382812 C 145.277344 167.351562 145.152344 167.328125 144.964844 167.320312 C 144.792969 167.3125 144.664062 167.296875 144.582031 167.273438 C 144.5 167.25 144.429688 167.207031 144.378906 167.15625 C 144.328125 167.105469 144.28125 167.035156 144.25 166.945312 C 144.195312 166.789062 144.199219 166.644531 144.273438 166.511719 C 144.351562 166.378906 144.476562 166.273438 144.664062 166.199219 C 144.835938 166.128906 145.023438 166.105469 145.21875 166.125 C 145.21875 166.214844 145.21875 166.304688 145.21875 166.394531 C 145.027344 166.378906 144.867188 166.394531 144.738281 166.453125 C 144.621094 166.5 144.542969 166.558594 144.5 166.621094 C 144.460938 166.691406 144.449219 166.761719 144.476562 166.835938 C 144.496094 166.890625 144.523438 166.929688 144.558594 166.953125 C 144.59375 166.980469 144.640625 167 144.703125 167.015625 C 144.761719 167.027344 144.878906 167.039062 145.039062 167.046875 C 145.261719 167.050781 145.421875 167.085938 145.523438 167.144531 C 145.601562 167.207031 145.679688 167.300781 145.726562 167.429688 Z M 145.726562 167.429688 "/>
<path style=" stroke:none;fill-rule:nonzero;fill:rgb(100%,100%,100%);fill-opacity:1;" d="M 146.863281 167.550781 C 146.625 167.648438 146.402344 167.636719 146.207031 167.515625 C 146.003906 167.398438 145.847656 167.183594 145.738281 166.878906 C 145.621094 166.5625 145.597656 166.296875 145.65625 166.058594 C 145.714844 165.828125 145.851562 165.664062 146.066406 165.578125 C 146.269531 165.496094 146.457031 165.515625 146.636719 165.625 C 146.808594 165.734375 146.949219 165.921875 147.042969 166.179688 C 147.066406 166.246094 147.089844 166.304688 147.109375 166.367188 C 146.738281 166.519531 146.375 166.664062 146.003906 166.8125 C 146.089844 167.039062 146.199219 167.191406 146.335938 167.273438 C 146.46875 167.351562 146.617188 167.359375 146.78125 167.296875 C 146.953125 167.226562 147.109375 167.117188 147.246094 166.957031 C 147.273438 167.046875 147.308594 167.132812 147.335938 167.21875 C 147.269531 167.300781 147.199219 167.363281 147.128906 167.417969 C 147.058594 167.464844 146.972656 167.511719 146.863281 167.550781 Z M 146.152344 165.828125 C 146.027344 165.878906 145.941406 165.972656 145.898438 166.101562 C 145.859375 166.234375 145.863281 166.390625 145.917969 166.570312 C 146.195312 166.460938 146.480469 166.34375 146.757812 166.234375 C 146.6875 166.046875 146.605469 165.921875 146.503906 165.851562 C 146.390625 165.789062 146.28125 165.78125 146.152344 165.828125 Z M 146.152344 165.828125 "/>
<path style=" stroke:none;fill-rule:nonzero;fill:rgb(100%,100%,100%);fill-opacity:1;" d="M 147.871094 164.863281 C 147.941406 164.835938 148.011719 164.820312 148.066406 164.808594 C 148.089844 164.898438 148.109375 164.992188 148.132812 165.089844 C 148.054688 165.101562 148 165.113281 147.945312 165.136719 C 147.820312 165.191406 147.726562 165.292969 147.679688 165.460938 C 147.632812 165.625 147.644531 165.796875 147.714844 165.988281 C 147.84375 166.332031 147.964844 166.675781 148.089844 167.015625 C 148.011719 167.050781 147.929688 167.082031 147.847656 167.117188 C 147.609375 166.476562 147.378906 165.832031 147.140625 165.195312 C 147.210938 165.167969 147.273438 165.144531 147.34375 165.113281 C 147.394531 165.230469 147.449219 165.347656 147.5 165.457031 C 147.503906 165.457031 147.503906 165.449219 147.511719 165.449219 C 147.523438 165.300781 147.5625 165.179688 147.621094 165.074219 C 147.683594 164.976562 147.765625 164.90625 147.871094 164.863281 Z M 147.871094 164.863281 "/>
<path style=" stroke:none;fill-rule:nonzero;fill:rgb(100%,100%,100%);fill-opacity:1;" d="M 150.179688 166.171875 C 150.027344 165.757812 149.878906 165.347656 149.726562 164.933594 C 149.667969 164.777344 149.597656 164.671875 149.507812 164.621094 C 149.417969 164.570312 149.308594 164.570312 149.183594 164.617188 C 149.011719 164.683594 148.910156 164.785156 148.875 164.929688 C 148.832031 165.066406 148.863281 165.265625 148.957031 165.507812 C 149.078125 165.84375 149.199219 166.175781 149.328125 166.511719 C 149.246094 166.546875 149.164062 166.574219 149.082031 166.609375 C 148.851562 165.972656 148.613281 165.335938 148.382812 164.695312 C 148.445312 164.667969 148.515625 164.644531 148.578125 164.617188 C 148.625 164.695312 148.671875 164.777344 148.710938 164.859375 C 148.71875 164.859375 148.71875 164.851562 148.722656 164.851562 C 148.742188 164.738281 148.78125 164.640625 148.851562 164.550781 C 148.921875 164.464844 149.011719 164.394531 149.125 164.355469 C 149.316406 164.277344 149.484375 164.273438 149.621094 164.34375 C 149.761719 164.414062 149.878906 164.574219 149.964844 164.820312 C 150.117188 165.230469 150.273438 165.648438 150.421875 166.058594 C 150.34375 166.101562 150.261719 166.136719 150.179688 166.171875 Z M 150.179688 166.171875 "/>
<path style=" stroke:none;fill-rule:nonzero;fill:rgb(100%,100%,100%);fill-opacity:1;" d="M 151.90625 165.46875 C 151.863281 165.386719 151.808594 165.300781 151.761719 165.21875 C 151.757812 165.21875 151.757812 165.222656 151.75 165.222656 C 151.714844 165.375 151.664062 165.492188 151.601562 165.5625 C 151.535156 165.636719 151.445312 165.695312 151.328125 165.746094 C 151.171875 165.808594 151.027344 165.808594 150.898438 165.753906 C 150.769531 165.6875 150.679688 165.574219 150.609375 165.394531 C 150.46875 165.011719 150.65625 164.703125 151.164062 164.476562 C 151.253906 164.4375 151.34375 164.394531 151.433594 164.355469 C 151.421875 164.3125 151.402344 164.273438 151.390625 164.238281 C 151.332031 164.085938 151.269531 163.988281 151.1875 163.941406 C 151.105469 163.894531 151.007812 163.890625 150.886719 163.941406 C 150.753906 163.996094 150.621094 164.105469 150.488281 164.273438 C 150.433594 164.210938 150.382812 164.144531 150.332031 164.082031 C 150.386719 164 150.464844 163.925781 150.542969 163.855469 C 150.625 163.792969 150.71875 163.734375 150.8125 163.699219 C 151.003906 163.625 151.164062 163.617188 151.292969 163.683594 C 151.421875 163.746094 151.53125 163.890625 151.613281 164.109375 C 151.769531 164.539062 151.929688 164.976562 152.085938 165.40625 C 152.03125 165.414062 151.964844 165.445312 151.90625 165.46875 Z M 151.28125 165.484375 C 151.433594 165.421875 151.535156 165.328125 151.582031 165.195312 C 151.636719 165.0625 151.625 164.90625 151.558594 164.730469 C 151.535156 164.671875 151.519531 164.617188 151.496094 164.558594 C 151.414062 164.59375 151.339844 164.632812 151.257812 164.667969 C 151.066406 164.753906 150.9375 164.847656 150.882812 164.941406 C 150.816406 165.039062 150.8125 165.15625 150.863281 165.289062 C 150.90625 165.394531 150.957031 165.460938 151.03125 165.492188 C 151.101562 165.527344 151.1875 165.527344 151.28125 165.484375 Z M 151.28125 165.484375 "/>
<path style=" stroke:none;fill-rule:nonzero;fill:rgb(100%,100%,100%);fill-opacity:1;" d="M 154.632812 164.359375 C 154.484375 163.953125 154.332031 163.542969 154.179688 163.136719 C 154.125 162.984375 154.058594 162.886719 153.972656 162.828125 C 153.890625 162.777344 153.792969 162.769531 153.675781 162.816406 C 153.527344 162.875 153.433594 162.972656 153.398438 163.109375 C 153.363281 163.242188 153.386719 163.410156 153.460938 163.625 C 153.589844 163.976562 153.722656 164.324219 153.851562 164.679688 C 153.769531 164.714844 153.6875 164.742188 153.605469 164.777344 C 153.457031 164.367188 153.304688 163.960938 153.15625 163.546875 C 153.097656 163.398438 153.027344 163.292969 152.945312 163.242188 C 152.863281 163.1875 152.765625 163.183594 152.644531 163.230469 C 152.492188 163.289062 152.402344 163.390625 152.367188 163.523438 C 152.335938 163.664062 152.367188 163.851562 152.453125 164.097656 C 152.574219 164.429688 152.695312 164.761719 152.820312 165.089844 C 152.738281 165.125 152.65625 165.15625 152.574219 165.191406 C 152.34375 164.558594 152.109375 163.925781 151.878906 163.292969 C 151.941406 163.265625 152.011719 163.242188 152.074219 163.210938 C 152.121094 163.292969 152.164062 163.375 152.210938 163.457031 C 152.214844 163.457031 152.214844 163.449219 152.222656 163.449219 C 152.234375 163.339844 152.273438 163.242188 152.335938 163.152344 C 152.402344 163.066406 152.488281 163.003906 152.59375 162.960938 C 152.839844 162.863281 153.050781 162.90625 153.203125 163.085938 C 153.207031 163.085938 153.207031 163.078125 153.210938 163.078125 C 153.222656 162.960938 153.265625 162.851562 153.335938 162.757812 C 153.402344 162.667969 153.496094 162.597656 153.613281 162.550781 C 153.792969 162.476562 153.949219 162.480469 154.082031 162.550781 C 154.214844 162.625 154.320312 162.78125 154.414062 163.019531 C 154.5625 163.433594 154.714844 163.839844 154.867188 164.25 C 154.796875 164.296875 154.714844 164.324219 154.632812 164.359375 Z M 154.632812 164.359375 "/>
<path style=" stroke:none;fill-rule:nonzero;fill:rgb(100%,100%,100%);fill-opacity:1;" d="M 156.070312 163.820312 C 155.835938 163.917969 155.613281 163.90625 155.417969 163.792969 C 155.21875 163.675781 155.0625 163.472656 154.953125 163.171875 C 154.84375 162.871094 154.820312 162.601562 154.878906 162.371094 C 154.941406 162.140625 155.082031 161.980469 155.296875 161.894531 C 155.496094 161.8125 155.683594 161.824219 155.859375 161.9375 C 156.03125 162.046875 156.164062 162.226562 156.257812 162.476562 C 156.28125 162.535156 156.304688 162.597656 156.320312 162.65625 C 155.949219 162.804688 155.585938 162.949219 155.214844 163.101562 C 155.300781 163.320312 155.410156 163.46875 155.542969 163.546875 C 155.679688 163.625 155.824219 163.628906 155.992188 163.566406 C 156.164062 163.496094 156.320312 163.386719 156.453125 163.230469 C 156.484375 163.316406 156.519531 163.398438 156.546875 163.484375 C 156.476562 163.558594 156.410156 163.625 156.339844 163.675781 C 156.269531 163.726562 156.183594 163.773438 156.070312 163.820312 Z M 155.375 162.132812 C 155.25 162.183594 155.160156 162.273438 155.121094 162.40625 C 155.082031 162.535156 155.085938 162.691406 155.132812 162.871094 C 155.410156 162.757812 155.695312 162.644531 155.972656 162.535156 C 155.910156 162.355469 155.824219 162.230469 155.71875 162.164062 C 155.621094 162.09375 155.503906 162.085938 155.375 162.132812 Z M 155.375 162.132812 "/>
<path style=" stroke:none;fill-rule:nonzero;fill:rgb(100%,100%,100%);fill-opacity:1;" d="M 148.179688 178.6875 C 148.277344 178.949219 148.277344 179.179688 148.179688 179.382812 C 148.085938 179.585938 147.898438 179.746094 147.628906 179.871094 C 147.546875 179.90625 147.460938 179.945312 147.378906 179.980469 C 147.5 180.316406 147.628906 180.660156 147.753906 181 C 147.671875 181.035156 147.59375 181.070312 147.511719 181.109375 C 147.191406 180.246094 146.875 179.382812 146.558594 178.519531 C 146.746094 178.4375 146.925781 178.363281 147.109375 178.28125 C 147.632812 178.046875 147.992188 178.1875 148.179688 178.6875 Z M 147.285156 179.722656 C 147.359375 179.691406 147.429688 179.660156 147.503906 179.625 C 147.726562 179.53125 147.863281 179.417969 147.933594 179.289062 C 148 179.160156 148 179 147.929688 178.8125 C 147.863281 178.640625 147.773438 178.535156 147.652344 178.496094 C 147.527344 178.449219 147.367188 178.472656 147.175781 178.554688 C 147.082031 178.59375 146.988281 178.632812 146.898438 178.675781 C 147.023438 179.023438 147.152344 179.371094 147.285156 179.722656 Z M 147.285156 179.722656 "/>
<path style=" stroke:none;fill-rule:nonzero;fill:rgb(100%,100%,100%);fill-opacity:1;" d="M 150.230469 179.90625 C 150.179688 179.816406 150.132812 179.734375 150.082031 179.648438 C 150.074219 179.648438 150.074219 179.65625 150.070312 179.65625 C 150.035156 179.8125 149.988281 179.925781 149.925781 180.003906 C 149.859375 180.078125 149.773438 180.148438 149.652344 180.199219 C 149.496094 180.269531 149.351562 180.277344 149.226562 180.21875 C 149.101562 180.160156 149.007812 180.039062 148.9375 179.851562 C 148.792969 179.464844 148.980469 179.144531 149.484375 178.902344 C 149.570312 178.859375 149.664062 178.8125 149.75 178.773438 C 149.734375 178.734375 149.722656 178.691406 149.703125 178.652344 C 149.644531 178.5 149.582031 178.402344 149.5 178.351562 C 149.417969 178.304688 149.320312 178.304688 149.203125 178.355469 C 149.070312 178.414062 148.9375 178.53125 148.8125 178.699219 C 148.757812 178.632812 148.707031 178.570312 148.652344 178.507812 C 148.710938 178.417969 148.78125 178.34375 148.867188 178.273438 C 148.949219 178.203125 149.035156 178.148438 149.136719 178.105469 C 149.328125 178.023438 149.484375 178.011719 149.609375 178.078125 C 149.738281 178.140625 149.847656 178.28125 149.929688 178.507812 C 150.09375 178.949219 150.253906 179.382812 150.410156 179.824219 C 150.351562 179.851562 150.289062 179.882812 150.230469 179.90625 Z M 149.609375 179.9375 C 149.761719 179.875 149.859375 179.769531 149.90625 179.632812 C 149.953125 179.492188 149.949219 179.335938 149.882812 179.15625 C 149.859375 179.097656 149.84375 179.039062 149.820312 178.980469 C 149.738281 179.023438 149.664062 179.0625 149.582031 179.097656 C 149.394531 179.191406 149.269531 179.285156 149.203125 179.386719 C 149.140625 179.488281 149.136719 179.609375 149.1875 179.742188 C 149.226562 179.847656 149.28125 179.914062 149.355469 179.949219 C 149.4375 179.984375 149.519531 179.980469 149.609375 179.9375 Z M 149.609375 179.9375 "/>
<path style=" stroke:none;fill-rule:nonzero;fill:rgb(100%,100%,100%);fill-opacity:1;" d="M 151.519531 178.632812 C 151.582031 178.8125 151.582031 178.976562 151.507812 179.121094 C 151.433594 179.265625 151.296875 179.382812 151.097656 179.46875 C 150.886719 179.5625 150.707031 179.589844 150.554688 179.566406 C 150.523438 179.476562 150.492188 179.386719 150.457031 179.296875 C 150.550781 179.308594 150.648438 179.308594 150.742188 179.296875 C 150.839844 179.285156 150.925781 179.261719 151.007812 179.226562 C 151.136719 179.167969 151.222656 179.105469 151.269531 179.027344 C 151.320312 178.949219 151.328125 178.859375 151.289062 178.761719 C 151.257812 178.6875 151.210938 178.632812 151.136719 178.605469 C 151.0625 178.578125 150.933594 178.558594 150.753906 178.554688 C 150.578125 178.554688 150.453125 178.542969 150.375 178.519531 C 150.296875 178.496094 150.230469 178.460938 150.171875 178.40625 C 150.121094 178.355469 150.074219 178.285156 150.046875 178.199219 C 149.988281 178.042969 149.992188 177.898438 150.070312 177.757812 C 150.140625 177.625 150.265625 177.515625 150.453125 177.433594 C 150.625 177.359375 150.804688 177.328125 151.003906 177.339844 C 151.003906 177.433594 151.003906 177.527344 151.003906 177.613281 C 150.8125 177.601562 150.65625 177.625 150.527344 177.683594 C 150.410156 177.734375 150.335938 177.792969 150.296875 177.863281 C 150.253906 177.933594 150.25 178.003906 150.273438 178.078125 C 150.289062 178.128906 150.320312 178.171875 150.351562 178.195312 C 150.386719 178.222656 150.433594 178.238281 150.5 178.25 C 150.554688 178.261719 150.667969 178.269531 150.828125 178.269531 C 151.050781 178.269531 151.207031 178.296875 151.304688 178.351562 C 151.402344 178.414062 151.472656 178.507812 151.519531 178.632812 Z M 151.519531 178.632812 "/>
<path style=" stroke:none;fill-rule:nonzero;fill:rgb(100%,100%,100%);fill-opacity:1;" d="M 153.257812 178.011719 C 153.324219 178.195312 153.324219 178.351562 153.246094 178.5 C 153.171875 178.644531 153.039062 178.761719 152.835938 178.847656 C 152.628906 178.941406 152.445312 178.976562 152.296875 178.949219 C 152.261719 178.859375 152.234375 178.769531 152.199219 178.679688 C 152.289062 178.691406 152.390625 178.691406 152.480469 178.679688 C 152.582031 178.667969 152.667969 178.644531 152.75 178.609375 C 152.875 178.554688 152.964844 178.488281 153.011719 178.414062 C 153.0625 178.332031 153.066406 178.246094 153.027344 178.148438 C 153 178.070312 152.953125 178.019531 152.875 177.992188 C 152.800781 177.960938 152.671875 177.945312 152.492188 177.9375 C 152.320312 177.9375 152.199219 177.925781 152.117188 177.902344 C 152.035156 177.878906 151.972656 177.84375 151.914062 177.792969 C 151.863281 177.742188 151.816406 177.675781 151.785156 177.585938 C 151.726562 177.429688 151.734375 177.28125 151.808594 177.144531 C 151.878906 177.011719 152.007812 176.898438 152.191406 176.820312 C 152.359375 176.742188 152.546875 176.714844 152.742188 176.726562 C 152.742188 176.820312 152.742188 176.90625 152.742188 177 C 152.550781 176.988281 152.394531 177.011719 152.265625 177.066406 C 152.152344 177.121094 152.074219 177.179688 152.035156 177.246094 C 151.996094 177.316406 151.988281 177.386719 152.011719 177.460938 C 152.03125 177.515625 152.058594 177.554688 152.09375 177.578125 C 152.128906 177.609375 152.175781 177.625 152.238281 177.636719 C 152.296875 177.648438 152.40625 177.652344 152.570312 177.652344 C 152.789062 177.652344 152.945312 177.683594 153.042969 177.734375 C 153.144531 177.792969 153.210938 177.886719 153.257812 178.011719 Z M 153.257812 178.011719 "/>
<path style=" stroke:none;fill-rule:nonzero;fill:rgb(100%,100%,100%);fill-opacity:1;" d="M 155.035156 177.792969 C 154.800781 177.460938 154.5625 177.132812 154.332031 176.800781 C 154.285156 176.742188 154.199219 176.597656 154.058594 176.378906 C 154.054688 176.378906 154.054688 176.382812 154.046875 176.382812 C 154.082031 176.605469 154.105469 176.773438 154.117188 176.898438 C 154.152344 177.316406 154.191406 177.730469 154.226562 178.148438 C 154.136719 178.1875 154.042969 178.226562 153.949219 178.269531 C 153.574219 177.695312 153.191406 177.121094 152.8125 176.546875 C 152.898438 176.511719 152.980469 176.472656 153.066406 176.4375 C 153.347656 176.871094 153.5625 177.203125 153.707031 177.429688 C 153.851562 177.652344 153.945312 177.8125 153.984375 177.890625 C 153.988281 177.890625 153.988281 177.886719 153.996094 177.886719 C 153.984375 177.816406 153.96875 177.722656 153.957031 177.609375 C 153.9375 177.492188 153.933594 177.398438 153.925781 177.328125 C 153.890625 176.921875 153.851562 176.511719 153.816406 176.105469 C 153.902344 176.066406 153.988281 176.03125 154.078125 175.988281 C 154.304688 176.3125 154.535156 176.640625 154.761719 176.957031 C 154.890625 177.132812 154.988281 177.28125 155.058594 177.410156 C 155.0625 177.410156 155.0625 177.40625 155.070312 177.40625 C 155.058594 177.363281 155.046875 177.292969 155.027344 177.195312 C 155.011719 177.101562 154.941406 176.59375 154.8125 175.664062 C 154.894531 175.628906 154.980469 175.59375 155.0625 175.554688 C 155.148438 176.25 155.238281 176.953125 155.324219 177.648438 C 155.226562 177.707031 155.125 177.746094 155.035156 177.792969 Z M 155.035156 177.792969 "/>
<path style=" stroke:none;fill-rule:nonzero;fill:rgb(100%,100%,100%);fill-opacity:1;" d="M 157.070312 175.792969 C 157.1875 176.097656 157.210938 176.371094 157.140625 176.597656 C 157.070312 176.832031 156.925781 176.992188 156.691406 177.097656 C 156.554688 177.160156 156.410156 177.179688 156.269531 177.144531 C 156.128906 177.113281 156.003906 177.035156 155.886719 176.910156 C 155.769531 176.789062 155.679688 176.628906 155.601562 176.429688 C 155.488281 176.121094 155.464844 175.851562 155.53125 175.625 C 155.597656 175.390625 155.746094 175.230469 155.980469 175.132812 C 156.199219 175.03125 156.414062 175.042969 156.605469 175.164062 C 156.804688 175.28125 156.953125 175.492188 157.070312 175.792969 Z M 155.859375 176.324219 C 155.945312 176.570312 156.054688 176.738281 156.183594 176.824219 C 156.308594 176.917969 156.453125 176.929688 156.613281 176.859375 C 156.769531 176.789062 156.867188 176.671875 156.902344 176.511719 C 156.9375 176.347656 156.90625 176.144531 156.820312 175.902344 C 156.734375 175.660156 156.625 175.496094 156.496094 175.410156 C 156.367188 175.324219 156.222656 175.3125 156.066406 175.378906 C 155.910156 175.449219 155.8125 175.558594 155.777344 175.722656 C 155.734375 175.878906 155.765625 176.078125 155.859375 176.324219 Z M 155.859375 176.324219 "/>
<path style=" stroke:none;fill-rule:nonzero;fill:rgb(100%,100%,100%);fill-opacity:1;" d="M 157.851562 174.3125 C 157.921875 174.285156 157.992188 174.261719 158.050781 174.25 C 158.074219 174.34375 158.089844 174.433594 158.113281 174.527344 C 158.042969 174.539062 157.980469 174.558594 157.929688 174.578125 C 157.800781 174.636719 157.714844 174.75 157.667969 174.910156 C 157.621094 175.074219 157.632812 175.246094 157.703125 175.433594 C 157.824219 175.769531 157.953125 176.109375 158.074219 176.449219 C 157.992188 176.480469 157.910156 176.515625 157.828125 176.550781 C 157.597656 175.917969 157.367188 175.292969 157.132812 174.660156 C 157.199219 174.632812 157.265625 174.601562 157.332031 174.574219 C 157.382812 174.683594 157.433594 174.800781 157.488281 174.910156 C 157.492188 174.910156 157.492188 174.90625 157.5 174.90625 C 157.511719 174.753906 157.550781 174.632812 157.609375 174.527344 C 157.679688 174.429688 157.753906 174.359375 157.851562 174.3125 Z M 157.851562 174.3125 "/>
<path style=" stroke:none;fill-rule:nonzero;fill:rgb(100%,100%,100%);fill-opacity:1;" d="M 160.039062 175.292969 C 160.035156 175.292969 160.035156 175.300781 160.027344 175.300781 C 159.988281 175.535156 159.855469 175.707031 159.632812 175.804688 C 159.425781 175.898438 159.234375 175.886719 159.054688 175.761719 C 158.875 175.648438 158.730469 175.433594 158.613281 175.121094 C 158.496094 174.804688 158.46875 174.539062 158.519531 174.320312 C 158.570312 174.097656 158.707031 173.941406 158.910156 173.847656 C 159.121094 173.757812 159.324219 173.78125 159.503906 173.914062 C 159.511719 173.914062 159.515625 173.90625 159.523438 173.90625 C 159.503906 173.867188 159.484375 173.820312 159.464844 173.773438 C 159.449219 173.734375 159.429688 173.6875 159.414062 173.644531 C 159.320312 173.390625 159.226562 173.136719 159.132812 172.878906 C 159.214844 172.847656 159.296875 172.8125 159.378906 172.777344 C 159.703125 173.664062 160.035156 174.558594 160.359375 175.445312 C 160.292969 175.472656 160.230469 175.503906 160.160156 175.53125 C 160.121094 175.457031 160.078125 175.375 160.039062 175.292969 Z M 159.574219 175.554688 C 159.738281 175.484375 159.84375 175.378906 159.871094 175.242188 C 159.90625 175.101562 159.882812 174.917969 159.796875 174.679688 C 159.789062 174.660156 159.777344 174.636719 159.773438 174.621094 C 159.675781 174.355469 159.570312 174.179688 159.449219 174.097656 C 159.332031 174.015625 159.191406 174.011719 159.023438 174.082031 C 158.886719 174.144531 158.796875 174.253906 158.769531 174.417969 C 158.738281 174.578125 158.773438 174.78125 158.863281 175.019531 C 158.949219 175.265625 159.054688 175.425781 159.175781 175.519531 C 159.296875 175.605469 159.429688 175.617188 159.574219 175.554688 Z M 159.574219 175.554688 "/>
<path style=" stroke:none;fill-rule:nonzero;fill:rgb(100%,100%,100%);fill-opacity:1;" d="M 163.019531 190.070312 C 162.9375 189.878906 162.859375 189.6875 162.777344 189.496094 C 164.199219 188.8125 165.617188 188.132812 167.039062 187.449219 C 167.121094 187.640625 167.203125 187.828125 167.285156 188.019531 C 165.863281 188.707031 164.441406 189.386719 163.019531 190.070312 Z M 163.019531 190.070312 "/>
<path style=" stroke:none;fill-rule:nonzero;fill:rgb(100%,100%,100%);fill-opacity:1;" d="M 166.632812 190.238281 C 166.453125 190.164062 166.273438 190.089844 166.09375 190.015625 C 166.328125 189.3125 166.5625 188.605469 166.800781 187.902344 C 166.203125 187.605469 165.601562 187.304688 165.003906 187.007812 C 165.078125 186.824219 165.15625 186.632812 165.230469 186.445312 C 165.914062 186.789062 166.59375 187.125 167.277344 187.460938 C 167.417969 187.53125 167.488281 187.707031 167.433594 187.855469 C 167.167969 188.644531 166.902344 189.441406 166.632812 190.238281 Z M 166.632812 190.238281 "/>
<path style=" stroke:none;fill-rule:nonzero;fill:url(#linear3);" d="M 96.429688 83.890625 C 100.410156 83.039062 106.238281 81.714844 110.207031 80.859375 C 110.507812 80.792969 110.878906 81.078125 111.03125 81.496094 C 111.273438 82.164062 111.515625 82.828125 111.761719 83.496094 C 112.496094 85.503906 114.253906 86.867188 115.699219 86.535156 C 122.703125 84.933594 129.710938 83.328125 136.71875 81.710938 C 138.15625 81.375 138.753906 79.554688 138.058594 77.640625 C 137.824219 77 137.59375 76.363281 137.355469 75.726562 C 137.210938 75.324219 137.332031 74.949219 137.640625 74.878906 C 141.636719 74.003906 144.441406 73.457031 148.433594 72.574219 C 150.035156 72.222656 151.960938 73.625 152.714844 75.691406 C 165.765625 111.402344 178.566406 146.414062 191.539062 181.917969 C 160.539062 151.164062 128.835938 118.488281 96.429688 83.890625 Z M 96.429688 83.890625 "/>
<path style=" stroke:none;fill-rule:nonzero;fill:url(#linear4);" d="M 119.40625 80.980469 C 119.304688 80.707031 119.386719 80.453125 119.585938 80.40625 C 123.34375 79.582031 127.09375 78.753906 130.847656 77.921875 C 131.046875 77.875 131.289062 78.0625 131.382812 78.324219 C 131.480469 78.589844 131.398438 78.839844 131.203125 78.886719 C 127.449219 79.722656 123.695312 80.554688 119.945312 81.390625 C 119.746094 81.4375 119.503906 81.253906 119.40625 80.980469 Z M 117.289062 81.445312 C 117.386719 81.714844 117.628906 81.902344 117.828125 81.859375 C 118.023438 81.816406 118.105469 81.558594 118.007812 81.285156 C 117.90625 81.015625 117.664062 80.828125 117.46875 80.871094 C 117.265625 80.914062 117.1875 81.171875 117.289062 81.445312 Z M 117.289062 81.445312 "/>
<path style=" stroke:none;fill-rule:nonzero;fill:url(#radial1);" d="M 232.527344 235.398438 C 232.417969 238.195312 234.59375 240.554688 237.386719 240.664062 C 240.183594 240.777344 242.542969 238.601562 242.65625 235.804688 C 242.765625 233.007812 240.589844 230.648438 237.792969 230.539062 C 235 230.429688 232.636719 232.601562 232.527344 235.398438 Z M 232.527344 235.398438 "/>
<path style=" stroke:none;fill-rule:nonzero;fill:url(#radial2);" d="M 70.910156 102.496094 C 70.910156 105.296875 68.640625 107.566406 65.839844 107.566406 C 63.042969 107.566406 60.773438 105.296875 60.773438 102.496094 C 60.773438 99.699219 63.042969 97.429688 65.839844 97.429688 C 68.640625 97.429688 70.910156 99.699219 70.910156 102.496094 Z M 70.910156 102.496094 "/>
<path style=" stroke:none;fill-rule:nonzero;fill:url(#radial3);" d="M 76.269531 247.058594 C 74.929688 247.277344 74.019531 248.542969 74.238281 249.882812 C 74.460938 251.222656 75.726562 252.132812 77.066406 251.910156 C 78.40625 251.691406 79.316406 250.425781 79.09375 249.085938 C 78.875 247.746094 77.609375 246.835938 76.269531 247.058594 Z M 76.269531 247.058594 "/>
<path style=" stroke:none;fill-rule:nonzero;fill:url(#radial4);" d="M 180.976562 125.449219 C 180.484375 126.539062 180.964844 127.820312 182.054688 128.3125 C 183.148438 128.804688 184.429688 128.324219 184.921875 127.234375 C 185.414062 126.144531 184.933594 124.863281 183.84375 124.371094 C 182.757812 123.871094 181.46875 124.359375 180.976562 125.449219 Z M 180.976562 125.449219 "/>
<path style=" stroke:none;fill-rule:nonzero;fill:url(#radial5);" d="M 89.417969 194.132812 C 88.925781 195.222656 89.40625 196.503906 90.496094 196.996094 C 91.585938 197.488281 92.871094 197.007812 93.363281 195.917969 C 93.855469 194.828125 93.375 193.546875 92.285156 193.054688 C 91.199219 192.554688 89.917969 193.042969 89.417969 194.132812 Z M 89.417969 194.132812 "/>
<path style=" stroke:none;fill-rule:nonzero;fill:url(#radial6);" d="M 108.710938 202.320312 C 108.710938 205.121094 106.441406 207.390625 103.640625 207.390625 C 100.839844 207.390625 98.570312 205.121094 98.570312 202.320312 C 98.570312 199.523438 100.839844 197.253906 103.640625 197.253906 C 106.441406 197.253906 108.710938 199.523438 108.710938 202.320312 Z M 108.710938 202.320312 "/>
<path style=" stroke:none;fill-rule:nonzero;fill:rgb(34.117647%,41.568627%,100%);fill-opacity:1;" d="M 116.78125 230.945312 C 116.550781 231.449219 116.261719 231.867188 115.90625 232.214844 C 115.558594 232.558594 115.183594 232.777344 114.789062 232.875 C 114.394531 232.972656 114.011719 232.941406 113.632812 232.765625 C 113.355469 232.636719 113.152344 232.453125 113.011719 232.207031 C 112.878906 231.964844 112.832031 231.703125 112.878906 231.421875 L 112.816406 231.390625 C 112.515625 231.582031 112.207031 231.691406 111.894531 231.710938 C 111.574219 231.726562 111.261719 231.667969 110.941406 231.519531 C 110.367188 231.25 110.003906 230.863281 109.847656 230.339844 C 109.691406 229.820312 109.753906 229.246094 110.050781 228.617188 C 110.386719 227.894531 110.871094 227.40625 111.515625 227.15625 C 112.160156 226.90625 112.851562 226.953125 113.585938 227.289062 C 113.855469 227.414062 114.136719 227.574219 114.441406 227.773438 C 114.742188 227.96875 115.003906 228.171875 115.21875 228.371094 L 113.96875 230.765625 L 113.910156 230.890625 C 113.652344 231.453125 113.703125 231.820312 114.070312 231.988281 C 114.347656 232.117188 114.648438 232.039062 114.980469 231.757812 C 115.308594 231.472656 115.601562 231.054688 115.859375 230.496094 C 116.140625 229.894531 116.261719 229.316406 116.226562 228.746094 C 116.191406 228.179688 116.003906 227.667969 115.664062 227.210938 C 115.328125 226.75 114.863281 226.390625 114.277344 226.117188 C 113.527344 225.769531 112.808594 225.625 112.109375 225.679688 C 111.414062 225.730469 110.785156 225.980469 110.230469 226.414062 C 109.671875 226.855469 109.21875 227.453125 108.867188 228.210938 C 108.394531 229.234375 108.304688 230.136719 108.59375 230.9375 C 108.882812 231.738281 109.539062 232.371094 110.558594 232.847656 C 111.335938 233.207031 112.21875 233.421875 113.210938 233.496094 L 112.808594 234.359375 C 111.933594 234.320312 111.058594 234.097656 110.195312 233.699219 C 108.894531 233.097656 108.042969 232.277344 107.640625 231.238281 C 107.242188 230.203125 107.328125 229.058594 107.910156 227.804688 C 108.332031 226.890625 108.90625 226.164062 109.632812 225.632812 C 110.355469 225.097656 111.15625 224.800781 112.027344 224.75 C 112.898438 224.691406 113.777344 224.871094 114.660156 225.277344 C 115.421875 225.632812 116.027344 226.101562 116.476562 226.691406 C 116.921875 227.285156 117.175781 227.953125 117.234375 228.6875 C 117.289062 229.425781 117.136719 230.179688 116.78125 230.945312 Z M 111.058594 229.105469 C 110.679688 229.921875 110.808594 230.480469 111.453125 230.78125 C 112.132812 231.09375 112.742188 230.753906 113.28125 229.753906 L 113.921875 228.527344 C 113.730469 228.363281 113.507812 228.222656 113.257812 228.109375 C 112.804688 227.898438 112.386719 227.886719 111.996094 228.066406 C 111.609375 228.242188 111.296875 228.589844 111.058594 229.105469 Z M 111.058594 229.105469 "/>
<path style=" stroke:none;fill-rule:nonzero;fill:rgb(34.117647%,41.568627%,100%);fill-opacity:1;" d="M 51.5 124.347656 L 50.210938 126.011719 L 51.96875 126.898438 L 51.417969 127.988281 L 49.445312 126.992188 L 47.554688 129.445312 L 46.394531 128.859375 L 48.285156 126.40625 L 46.671875 125.59375 L 44.78125 128.046875 L 43.652344 127.476562 L 45.519531 125.007812 L 43.894531 124.191406 L 44.445312 123.097656 L 46.285156 124.027344 L 47.589844 122.367188 L 45.871094 121.503906 L 46.421875 120.414062 L 48.332031 121.375 L 50.238281 118.894531 L 51.410156 119.484375 L 49.503906 121.96875 L 51.144531 122.796875 L 53.050781 120.316406 L 54.183594 120.882812 L 52.277344 123.367188 L 53.917969 124.195312 L 53.355469 125.28125 Z M 47.425781 124.605469 L 49.050781 125.429688 L 50.355469 123.773438 L 48.730469 122.953125 Z M 47.425781 124.605469 "/>
<path style=" stroke:none;fill-rule:nonzero;fill:rgb(62.352941%,67.45098%,100%);fill-opacity:1;" d="M 122.21875 51.683594 C 122.589844 52.195312 122.472656 52.90625 121.960938 53.277344 C 121.453125 53.648438 120.738281 53.535156 120.367188 53.023438 C 119.996094 52.511719 120.113281 51.800781 120.621094 51.429688 C 121.140625 51.0625 121.851562 51.171875 122.21875 51.683594 Z M 122.21875 51.683594 "/>
<path style=" stroke:none;fill-rule:nonzero;fill:rgb(62.352941%,67.45098%,100%);fill-opacity:1;" d="M 124.804688 52.917969 L 123.667969 52.738281 C 123.773438 52.105469 123.617188 51.46875 123.238281 50.945312 C 122.863281 50.425781 122.304688 50.082031 121.671875 49.984375 L 121.851562 48.847656 C 122.792969 49 123.609375 49.503906 124.167969 50.273438 C 124.730469 51.039062 124.957031 51.980469 124.804688 52.917969 Z M 124.804688 52.917969 "/>
<path style=" stroke:none;fill-rule:nonzero;fill:rgb(62.352941%,67.45098%,100%);fill-opacity:1;" d="M 120.734375 55.867188 C 119.792969 55.714844 118.976562 55.210938 118.417969 54.4375 C 117.863281 53.667969 117.636719 52.726562 117.785156 51.792969 L 118.921875 51.972656 C 118.820312 52.605469 118.976562 53.242188 119.347656 53.765625 C 119.722656 54.289062 120.28125 54.628906 120.914062 54.730469 Z M 120.734375 55.867188 "/>
<path style=" stroke:none;fill-rule:nonzero;fill:rgb(62.352941%,67.45098%,100%);fill-opacity:1;" d="M 127.195312 53.296875 L 126.058594 53.117188 C 126.261719 51.847656 125.957031 50.570312 125.199219 49.527344 C 124.445312 48.480469 123.324219 47.796875 122.054688 47.589844 L 122.234375 46.457031 C 123.8125 46.707031 125.191406 47.558594 126.125 48.851562 C 127.066406 50.148438 127.445312 51.722656 127.195312 53.296875 Z M 127.195312 53.296875 "/>
<path style=" stroke:none;fill-rule:nonzero;fill:rgb(62.352941%,67.45098%,100%);fill-opacity:1;" d="M 120.351562 58.25 C 118.773438 58 117.390625 57.148438 116.457031 55.855469 C 115.523438 54.5625 115.148438 52.984375 115.398438 51.40625 L 116.535156 51.585938 C 116.332031 52.855469 116.632812 54.132812 117.390625 55.175781 C 118.144531 56.21875 119.265625 56.902344 120.535156 57.113281 Z M 120.351562 58.25 "/>
<path style=" stroke:none;fill-rule:nonzero;fill:rgb(62.352941%,67.45098%,100%);fill-opacity:1;" d="M 120.828125 52.691406 L 121.757812 52.019531 L 126.269531 58.246094 L 125.339844 58.921875 Z M 120.828125 52.691406 "/>
<path style=" stroke:none;fill-rule:nonzero;fill:rgb(34.117647%,41.568627%,100%);fill-opacity:1;" d="M 186.242188 96.117188 L 185.113281 96.332031 L 184.335938 92.195312 L 180.613281 89.652344 C 180.421875 89.515625 180.328125 89.285156 180.375 89.058594 C 180.421875 88.832031 180.601562 88.652344 180.832031 88.613281 L 184.132812 87.992188 C 184.445312 87.933594 184.742188 88.136719 184.804688 88.449219 Z M 182.398438 89.480469 L 184.027344 90.597656 L 183.765625 89.222656 Z M 182.398438 89.480469 "/>
<path style=" stroke:none;fill-rule:nonzero;fill:rgb(34.117647%,41.568627%,100%);fill-opacity:1;" d="M 189.359375 94.929688 C 189.316406 94.992188 189.265625 95.042969 189.195312 95.085938 C 189 95.210938 188.75 95.207031 188.558594 95.078125 L 184.835938 92.53125 L 180.699219 93.308594 L 180.484375 92.179688 L 188.152344 90.734375 C 188.464844 90.675781 188.761719 90.878906 188.824219 91.195312 L 189.445312 94.492188 C 189.480469 94.65625 189.445312 94.808594 189.359375 94.929688 Z M 186.429688 92.238281 L 188.058594 93.351562 L 187.796875 91.976562 Z M 186.429688 92.238281 "/>
<path style=" stroke:none;fill-rule:nonzero;fill:url(#linear5);" d="M 243.691406 59.007812 L 222.539062 56.484375 C 221.761719 56.394531 221.019531 56.601562 220.429688 57.019531 C 219.75 57.5 215.074219 61.238281 215.074219 61.238281 L 216.640625 80.296875 C 216.445312 81.964844 217.632812 83.480469 219.304688 83.675781 L 237.214844 89.875 C 237.214844 89.875 242.082031 86.054688 242.695312 85.574219 C 243.308594 85.09375 243.734375 84.378906 243.835938 83.542969 L 246.359375 62.390625 C 246.550781 60.726562 245.363281 59.210938 243.691406 59.007812 Z M 243.691406 59.007812 "/>
<path style=" stroke:none;fill-rule:nonzero;fill:url(#linear6);" d="M 235.101562 90.410156 L 213.949219 87.886719 C 212.28125 87.691406 211.089844 86.175781 211.289062 84.507812 L 213.8125 63.351562 C 214.007812 61.683594 215.523438 60.492188 217.191406 60.691406 L 238.34375 63.214844 C 240.015625 63.410156 241.203125 64.925781 241.007812 66.59375 L 238.484375 87.75 C 238.289062 89.417969 236.773438 90.613281 235.101562 90.410156 Z M 235.101562 90.410156 "/>
<path style="fill:none;stroke-width:2.5;stroke-linecap:butt;stroke-linejoin:round;stroke:rgb(100%,100%,100%);stroke-opacity:1;stroke-miterlimit:10;" d="M 397.838093 149.016703 L 377.788254 146.632543 C 373.632812 146.127425 370.662716 142.362608 371.161099 138.200431 L 373.551994 118.150593 C 374.050377 113.988416 377.821929 111.018319 381.977371 111.516703 L 402.027209 113.907597 C 406.189386 114.412716 409.159483 118.177532 408.661099 122.339709 L 406.270205 142.389547 C 405.778556 146.538254 402.000269 149.508351 397.838093 149.016703 Z M 397.838093 149.016703 " transform="matrix(0.58,0,0,0.58,0,0)"/>
<path style="fill:none;stroke-width:2.5;stroke-linecap:butt;stroke-linejoin:round;stroke:rgb(100%,100%,100%);stroke-opacity:1;stroke-miterlimit:10;" d="M 399.141312 130.271439 C 399.14214 125.169508 395.007023 121.042121 389.911822 121.041046 C 384.809891 121.040219 380.682503 125.175335 380.681428 130.270536 C 380.680353 135.365737 384.815718 139.499855 389.910919 139.50093 C 395.00612 139.502005 399.140238 135.36664 399.141312 130.271439 Z M 399.141312 130.271439 " transform="matrix(0.021344,-0.579594,0.579594,0.021344,142.331652,298.77424)"/>
<path style=" stroke:none;fill-rule:nonzero;fill:rgb(100%,100%,100%);fill-opacity:1;" d="M 234.441406 69.757812 C 234.378906 70.277344 233.90625 70.648438 233.386719 70.585938 C 232.863281 70.523438 232.492188 70.050781 232.558594 69.53125 C 232.621094 69.007812 233.089844 68.636719 233.613281 68.699219 C 234.132812 68.765625 234.503906 69.234375 234.441406 69.757812 Z M 234.441406 69.757812 "/>
<path style=" stroke:none;fill-rule:nonzero;fill:url(#linear7);" d="M 63.144531 35.128906 L 86.183594 29.285156 C 87.027344 29.070312 87.882812 29.191406 88.59375 29.570312 C 89.417969 30.003906 95.132812 33.460938 95.132812 33.460938 L 96.152344 54.773438 C 96.617188 56.589844 95.515625 58.441406 93.699219 58.898438 L 74.78125 68.339844 C 74.78125 68.339844 68.839844 64.816406 68.09375 64.367188 C 67.34375 63.921875 66.769531 63.195312 66.539062 62.285156 L 60.691406 39.25 C 60.226562 37.4375 61.324219 35.59375 63.144531 35.128906 Z M 63.144531 35.128906 "/>
<path style=" stroke:none;fill-rule:nonzero;fill:rgb(93.72549%,35.294118%,20.784314%);fill-opacity:1;" d="M 77.179688 68.632812 L 100.21875 62.785156 C 102.035156 62.320312 103.136719 60.476562 102.671875 58.660156 L 96.824219 35.625 C 96.359375 33.808594 94.515625 32.707031 92.703125 33.171875 L 69.664062 39.015625 C 67.847656 39.480469 66.746094 41.324219 67.210938 43.140625 L 73.058594 66.179688 C 73.519531 67.992188 75.363281 69.09375 77.179688 68.632812 Z M 77.179688 68.632812 "/>
<path style=" stroke:none;fill-rule:nonzero;fill:rgb(100%,100%,100%);fill-opacity:1;" d="M 96.308594 55.632812 L 77.207031 60.480469 L 73.574219 46.167969 L 92.675781 41.320312 Z M 96.308594 55.632812 "/>
<path style="fill:none;stroke-width:1.5;stroke-linecap:butt;stroke-linejoin:miter;stroke:rgb(93.72549%,35.294118%,20.784314%);stroke-opacity:1;stroke-miterlimit:10;" d="M 166.0493 95.918642 L 145.992726 85.917295 L 133.122306 104.27667 " transform="matrix(0.58,0,0,0.58,0,0)"/>
<path style="fill-rule:nonzero;fill:rgb(100%,100%,100%);fill-opacity:1;stroke-width:1.5;stroke-linecap:butt;stroke-linejoin:miter;stroke:rgb(93.72549%,35.294118%,20.784314%);stroke-opacity:1;stroke-miterlimit:10;" d="M 126.858836 79.599946 L 146.188039 89.230873 C 146.612338 89.439655 147.130927 89.311692 147.400323 88.921067 L 159.7993 71.241918 " transform="matrix(0.58,0,0,0.58,0,0)"/>
<path style=" stroke:none;fill-rule:nonzero;fill:url(#linear8);" d="M 187.066406 223.5625 L 164.550781 221.0625 C 163.722656 220.96875 162.933594 221.199219 162.308594 221.648438 C 161.589844 222.164062 156.644531 226.183594 156.644531 226.183594 L 158.472656 246.441406 C 158.277344 248.21875 159.558594 249.816406 161.332031 250.015625 L 180.4375 256.453125 C 180.4375 256.453125 185.582031 252.339844 186.230469 251.824219 C 186.882812 251.308594 187.328125 250.542969 187.425781 249.65625 L 189.925781 227.140625 C 190.125 225.359375 188.84375 223.757812 187.066406 223.5625 Z M 187.066406 223.5625 "/>
<path style=" stroke:none;fill-rule:nonzero;fill:rgb(93.72549%,35.294118%,20.784314%);fill-opacity:1;" d="M 178.199219 257.03125 L 155.683594 254.53125 C 153.910156 254.335938 152.628906 252.734375 152.824219 250.960938 L 155.324219 228.445312 C 155.519531 226.667969 157.121094 225.386719 158.898438 225.585938 L 181.414062 228.085938 C 183.1875 228.28125 184.46875 229.882812 184.273438 231.65625 L 181.773438 254.171875 C 181.582031 255.949219 179.980469 257.230469 178.199219 257.03125 Z M 178.199219 257.03125 "/>
<path style=" stroke:none;fill-rule:nonzero;fill:rgb(100%,100%,100%);fill-opacity:1;" d="M 164.4375 234.667969 L 163.234375 247.78125 C 163.164062 248.519531 163.949219 249.027344 164.59375 248.679688 L 175.054688 243.027344 C 175.636719 242.710938 175.710938 241.90625 175.195312 241.496094 L 165.9375 234.03125 C 165.363281 233.566406 164.503906 233.929688 164.4375 234.667969 Z M 164.4375 234.667969 "/>
<path style=" stroke:none;fill-rule:nonzero;fill:url(#linear9);" d="M 38.378906 199.097656 L 67.40625 187.074219 C 68.476562 186.632812 69.613281 186.632812 70.621094 186.984375 C 71.78125 187.398438 79.914062 190.835938 79.914062 190.835938 L 85.292969 218.53125 C 86.246094 220.824219 85.15625 223.449219 82.863281 224.394531 L 59.898438 240.347656 C 59.898438 240.347656 51.457031 236.855469 50.394531 236.417969 C 49.335938 235.980469 48.441406 235.136719 47.964844 233.988281 L 35.941406 204.960938 C 34.996094 202.667969 36.085938 200.042969 38.378906 199.097656 Z M 38.378906 199.097656 "/>
<path style=" stroke:none;fill-rule:nonzero;fill:rgb(3.529412%,13.72549%,99.215686%);fill-opacity:1;" d="M 63.109375 240.265625 L 92.140625 228.242188 C 94.429688 227.289062 95.515625 224.667969 94.570312 222.378906 L 82.546875 193.347656 C 81.59375 191.058594 78.972656 189.972656 76.683594 190.917969 L 47.652344 202.941406 C 45.363281 203.894531 44.277344 206.515625 45.222656 208.804688 L 57.246094 237.835938 C 58.191406 240.125 60.820312 241.214844 63.109375 240.265625 Z M 63.109375 240.265625 "/>
<path style=" stroke:none;fill-rule:nonzero;fill:rgb(98.431373%,98.431373%,99.215686%);fill-opacity:1;" d="M 81.703125 211.566406 C 81.871094 212.867188 82.730469 214.234375 83.640625 215.644531 C 85.203125 218.058594 85.171875 220.679688 83.710938 223.15625 C 82.25 225.636719 79.980469 226.902344 77.082031 226.902344 C 76.578125 226.902344 76.136719 226.976562 75.691406 227.210938 C 68.082031 231.21875 59.160156 227.277344 57.003906 218.960938 C 56.847656 218.371094 56.585938 217.898438 56.148438 217.464844 C 53.917969 215.265625 53.332031 211.921875 54.628906 209.085938 C 55.941406 206.226562 58.8125 204.507812 61.957031 204.738281 C 62.566406 204.785156 63.109375 204.699219 63.65625 204.414062 C 70.429688 200.894531 78.777344 204.0625 81.703125 211.566406 Z M 72.773438 224.148438 C 73.089844 223.988281 73.589844 223.777344 74.058594 223.515625 C 75.632812 222.640625 77.011719 221.566406 77.707031 219.820312 C 78.921875 216.785156 76.960938 213.585938 73.722656 213.3125 C 72.90625 213.242188 72.089844 213.285156 71.269531 213.371094 C 69.667969 213.542969 68.082031 213.902344 66.460938 213.898438 C 65.761719 213.898438 65.042969 213.753906 64.75 212.976562 C 64.457031 212.179688 64.855469 211.53125 65.4375 211.078125 C 67.269531 209.648438 69.09375 209.222656 70.789062 210.742188 C 71.015625 210.945312 71.28125 211.113281 71.542969 211.269531 C 72.046875 211.578125 72.570312 211.554688 73.085938 211.300781 C 74.261719 210.707031 74.5 209.378906 73.609375 208.320312 C 72.84375 207.40625 71.816406 206.921875 70.65625 206.839844 C 67.339844 206.609375 64.496094 207.746094 62.222656 210.132812 C 61.015625 211.402344 60.628906 212.992188 61.324219 214.699219 C 62.035156 216.445312 63.40625 217.285156 65.261719 217.425781 C 66.628906 217.523438 67.96875 217.34375 69.316406 217.144531 C 70.355469 216.996094 71.378906 216.730469 72.441406 216.878906 C 74.09375 217.117188 74.734375 218.578125 73.78125 219.941406 C 72.28125 222.097656 69.273438 222.441406 67.347656 220.679688 C 67.164062 220.503906 66.972656 220.332031 66.769531 220.171875 C 65.945312 219.535156 64.988281 219.578125 64.257812 220.265625 C 63.585938 220.898438 63.550781 221.84375 64.1875 222.703125 C 65.234375 224.113281 66.648438 224.832031 68.386719 224.925781 C 69.835938 224.992188 71.230469 224.679688 72.773438 224.148438 Z M 72.773438 224.148438 "/>
<path style=" stroke:none;fill-rule:nonzero;fill:url(#linear10);" d="M 209.828125 157.253906 C 211.207031 153.304688 214.0625 145.207031 214.0625 145.207031 L 213.589844 143.875 L 203.683594 143.734375 C 203.683594 143.734375 201.371094 150.320312 200.210938 153.617188 C 200.203125 153.617188 200.203125 153.617188 200.199219 153.617188 C 199.730469 153.148438 199.015625 152.835938 198.203125 152.808594 C 196.742188 152.753906 195.105469 154.082031 195.105469 154.082031 C 195.105469 154.082031 195.511719 155.265625 195.605469 155.488281 C 195.941406 156.304688 196.898438 156.914062 198.046875 156.953125 C 199.410156 157.007812 200.382812 156.222656 200.742188 155.207031 C 200.753906 155.171875 203.347656 147.785156 203.347656 147.785156 L 211.640625 148.9375 C 211.640625 148.9375 210.054688 153.449219 209.265625 155.699219 C 209.257812 155.699219 209.257812 155.699219 209.257812 155.699219 C 208.792969 155.207031 208.0625 154.871094 207.234375 154.84375 C 205.785156 154.789062 204.207031 156.222656 204.207031 156.222656 C 204.207031 156.222656 204.582031 157.355469 204.695312 157.597656 C 205.054688 158.375 205.980469 158.949219 207.082031 158.988281 C 208.171875 159.03125 209.125 158.542969 209.546875 157.8125 C 209.660156 157.644531 209.757812 157.457031 209.828125 157.253906 Z M 209.828125 157.253906 "/>
<path style=" stroke:none;fill-rule:nonzero;fill:rgb(52.941176%,58.823529%,100%);fill-opacity:1;" d="M 203.347656 147.773438 L 202.878906 146.4375 L 211.601562 147.402344 L 210.8125 148.804688 Z M 203.347656 147.773438 "/>
<path style=" stroke:none;fill-rule:nonzero;fill:rgb(52.941176%,58.823529%,100%);fill-opacity:1;" d="M 209.355469 155.902344 C 210.738281 151.953125 213.589844 143.855469 213.589844 143.855469 L 203.214844 142.382812 C 203.214844 142.382812 200.902344 148.96875 199.742188 152.265625 C 199.707031 152.238281 199.675781 152.210938 199.640625 152.1875 C 199.171875 151.761719 198.5 151.488281 197.734375 151.460938 C 196.273438 151.410156 195.054688 152.289062 195.007812 153.4375 C 194.96875 154.582031 196.117188 155.554688 197.578125 155.609375 C 198.941406 155.660156 199.914062 154.878906 200.273438 153.863281 C 200.285156 153.828125 202.878906 146.4375 202.878906 146.4375 L 211.171875 147.59375 C 211.171875 147.59375 209.582031 152.105469 208.792969 154.355469 C 208.78125 154.347656 208.777344 154.34375 208.765625 154.339844 C 208.300781 153.855469 207.582031 153.53125 206.757812 153.503906 C 205.308594 153.449219 204.097656 154.339844 204.054688 155.480469 C 204.015625 156.625 205.15625 157.597656 206.609375 157.648438 C 207.699219 157.691406 208.648438 157.203125 209.074219 156.472656 C 209.1875 156.296875 209.289062 156.113281 209.355469 155.902344 Z M 209.355469 155.902344 "/>
<path style=" stroke:none;fill-rule:nonzero;fill:url(#linear11);" d="M 259.601562 173.246094 L 234.855469 161.609375 C 233.941406 161.183594 232.957031 161.136719 232.0625 161.40625 C 231.042969 161.714844 223.828125 164.378906 223.828125 164.378906 L 218.015625 188.234375 C 217.101562 190.1875 217.933594 192.511719 219.890625 193.429688 L 239.203125 208.230469 C 239.203125 208.230469 246.6875 205.539062 247.625 205.203125 C 248.566406 204.867188 249.375 204.164062 249.835938 203.191406 L 261.46875 178.441406 C 262.390625 176.492188 261.558594 174.164062 259.601562 173.246094 Z M 259.601562 173.246094 "/>
<path style=" stroke:none;fill-rule:nonzero;fill:rgb(10.196078%,32.54902%,100%);fill-opacity:1;" d="M 236.425781 208.035156 L 211.675781 196.398438 C 209.722656 195.484375 208.886719 193.152344 209.804688 191.203125 L 221.4375 166.453125 C 222.355469 164.5 224.679688 163.664062 226.636719 164.582031 L 251.382812 176.214844 C 253.339844 177.132812 254.171875 179.464844 253.257812 181.414062 L 241.621094 206.160156 C 240.707031 208.109375 238.375 208.949219 236.425781 208.035156 Z M 236.425781 208.035156 "/>
<path style=" stroke:none;fill-rule:nonzero;fill:rgb(100%,100%,100%);fill-opacity:1;" d="M 244.46875 183 L 225.8125 174.230469 C 224.773438 173.746094 223.53125 174.191406 223.039062 175.230469 L 217.5 187.007812 C 217.011719 188.046875 217.460938 189.289062 218.496094 189.78125 L 220.691406 190.8125 L 218.742188 193.660156 C 218.636719 193.820312 218.757812 194.027344 218.945312 194.015625 L 226.265625 193.4375 L 237.15625 198.558594 C 238.195312 199.042969 239.4375 198.597656 239.929688 197.558594 L 245.46875 185.78125 C 245.960938 184.730469 245.515625 183.488281 244.46875 183 Z M 225.375 185.890625 C 224.554688 185.5 224.199219 184.519531 224.585938 183.699219 C 224.976562 182.875 225.957031 182.519531 226.78125 182.910156 C 227.605469 183.296875 227.957031 184.277344 227.570312 185.101562 C 227.179688 185.917969 226.199219 186.273438 225.375 185.890625 Z M 230.574219 188.332031 C 229.75 187.941406 229.394531 186.964844 229.785156 186.140625 C 230.171875 185.316406 231.152344 184.960938 231.976562 185.351562 C 232.800781 185.738281 233.152344 186.71875 232.765625 187.542969 C 232.378906 188.367188 231.398438 188.71875 230.574219 188.332031 Z M 235.777344 190.773438 C 234.953125 190.386719 234.597656 189.40625 234.988281 188.582031 C 235.375 187.757812 236.355469 187.402344 237.179688 187.792969 C 238.003906 188.179688 238.355469 189.160156 237.96875 189.984375 C 237.578125 190.808594 236.59375 191.164062 235.777344 190.773438 Z M 235.777344 190.773438 "/>
<path style=" stroke:none;fill-rule:nonzero;fill:url(#linear12);" d="M 77.058594 140.332031 C 77.058594 140.332031 71.929688 138.632812 69.292969 139.59375 C 66.28125 140.695312 64.675781 143.5625 64.890625 146.414062 C 62.535156 144.785156 59.257812 144.722656 56.78125 146.757812 C 56.113281 147.300781 53.660156 149.90625 53.660156 149.90625 C 53.660156 149.90625 54.101562 152.4375 54.796875 154.257812 C 55.621094 156.410156 57.351562 157.839844 59.324219 158.378906 L 72.355469 161.925781 C 73.28125 162.171875 74.234375 161.628906 74.484375 160.707031 L 78.027344 147.671875 C 78.5625 145.695312 77.058594 140.332031 77.058594 140.332031 Z M 77.058594 140.332031 "/>
<path style=" stroke:none;fill-rule:nonzero;fill:rgb(93.72549%,35.294118%,20.784314%);fill-opacity:1;" d="M 75.863281 138.109375 C 74.105469 135.917969 71.03125 135.058594 68.394531 136.027344 C 65.382812 137.128906 63.777344 139.996094 63.992188 142.847656 C 61.636719 141.21875 58.359375 141.15625 55.882812 143.191406 C 53.714844 144.976562 52.894531 148.0625 53.898438 150.691406 C 54.722656 152.839844 56.453125 154.273438 58.421875 154.8125 L 71.457031 158.355469 C 72.382812 158.605469 73.335938 158.0625 73.585938 157.140625 L 77.128906 144.105469 C 77.667969 142.125 77.300781 139.90625 75.863281 138.109375 Z M 75.863281 138.109375 "/>
<path style=" stroke:none;fill-rule:nonzero;fill:url(#linear13);" d="M 205.835938 102.484375 C 205.835938 102.484375 209.367188 101.496094 211.125 102.230469 C 213.132812 103.070312 214.128906 105.0625 213.898438 106.992188 C 215.546875 105.960938 217.773438 106.019531 219.386719 107.472656 C 219.820312 107.867188 221.402344 109.707031 221.402344 109.707031 C 221.402344 109.707031 221.027344 111.40625 220.5 112.617188 C 219.878906 114.050781 218.660156 114.96875 217.304688 115.273438 L 208.359375 117.277344 C 207.726562 117.414062 207.09375 117.019531 206.949219 116.382812 L 204.949219 107.4375 C 204.652344 106.078125 205.835938 102.484375 205.835938 102.484375 Z M 205.835938 102.484375 "/>
<path style=" stroke:none;fill-rule:nonzero;fill:rgb(93.72549%,35.294118%,20.784314%);fill-opacity:1;" d="M 206.710938 101.019531 C 207.96875 99.585938 210.082031 99.097656 211.839844 99.835938 C 213.847656 100.675781 214.84375 102.664062 214.613281 104.597656 C 216.257812 103.566406 218.484375 103.621094 220.097656 105.078125 C 221.511719 106.355469 221.972656 108.476562 221.210938 110.222656 C 220.589844 111.65625 219.375 112.570312 218.015625 112.878906 L 209.074219 114.878906 C 208.441406 115.019531 207.808594 114.625 207.664062 113.988281 L 205.664062 105.042969 C 205.371094 103.679688 205.683594 102.191406 206.710938 101.019531 Z M 206.710938 101.019531 "/>
<path style=" stroke:none;fill-rule:nonzero;fill:url(#linear14);" d="M 276.3125 120.125 L 251.515625 103.964844 C 250.605469 103.375 249.550781 103.175781 248.558594 103.328125 C 247.417969 103.507812 239.289062 105.289062 239.289062 105.289062 L 229.511719 129.988281 C 228.234375 131.945312 228.785156 134.566406 230.746094 135.84375 L 249.242188 154.585938 C 249.242188 154.585938 257.660156 152.820312 258.71875 152.597656 C 259.78125 152.371094 260.75 151.746094 261.386719 150.769531 L 277.546875 125.976562 C 278.816406 124.019531 278.265625 121.398438 276.3125 120.125 Z M 276.3125 120.125 "/>
<path style=" stroke:none;fill-rule:nonzero;fill:rgb(6.27451%,10.980392%,100%);fill-opacity:1;" d="M 246.285156 153.957031 L 221.492188 137.796875 C 219.535156 136.519531 218.980469 133.90625 220.253906 131.945312 L 236.414062 107.148438 C 237.691406 105.195312 240.304688 104.636719 242.265625 105.914062 L 267.0625 122.074219 C 269.015625 123.347656 269.574219 125.964844 268.296875 127.925781 L 252.136719 152.71875 C 250.863281 154.675781 248.238281 155.230469 246.285156 153.957031 Z M 246.285156 153.957031 "/>
<path style=" stroke:none;fill-rule:nonzero;fill:rgb(98.823529%,98.823529%,99.607843%);fill-opacity:1;" d="M 233.039062 120.894531 C 234.394531 118.832031 235.765625 116.769531 237.097656 114.683594 C 237.386719 114.226562 237.574219 114.191406 238.027344 114.484375 C 240.519531 116.144531 243.039062 117.769531 245.542969 119.40625 C 246.359375 119.9375 247.085938 120.578125 247.566406 121.421875 C 248.621094 123.277344 248.355469 125.371094 246.917969 127.003906 C 246.796875 127.140625 246.679688 127.285156 246.558594 127.425781 C 245.617188 128.1875 244.574219 128.453125 243.339844 128.0625 C 243.605469 128.394531 243.855469 128.648438 244.039062 128.945312 C 244.761719 130.089844 244.527344 131.261719 244.074219 132.414062 C 243.734375 133.289062 243.210938 134.0625 242.554688 134.734375 C 240.921875 136.398438 238.648438 136.695312 236.339844 135.574219 C 235.578125 135.210938 234.894531 134.726562 234.191406 134.277344 C 232.039062 132.878906 229.894531 131.460938 227.738281 130.082031 C 227.367188 129.84375 227.335938 129.683594 227.574219 129.316406 C 229.40625 126.519531 231.21875 123.707031 233.039062 120.894531 Z M 237.085938 122.605469 C 236.953125 122.773438 237.097656 122.832031 237.203125 122.902344 C 237.949219 123.382812 238.699219 123.859375 239.445312 124.339844 C 240.011719 124.78125 240.605469 125.164062 241.226562 125.507812 C 241.582031 125.800781 241.988281 125.859375 242.421875 125.777344 C 243.414062 125.539062 244.453125 123.933594 244.242188 122.976562 C 244.175781 122.652344 244.007812 122.390625 243.726562 122.210938 C 242.328125 121.300781 240.921875 120.390625 239.523438 119.472656 C 239.3125 119.335938 239.1875 119.324219 239.035156 119.566406 C 238.402344 120.582031 237.742188 121.589844 237.085938 122.605469 Z M 235.078125 130.882812 C 235.769531 131.324219 236.441406 131.789062 237.144531 132.210938 C 237.78125 132.59375 238.472656 132.746094 239.152344 132.339844 C 239.464844 132.148438 239.707031 131.839844 239.988281 131.585938 C 241.035156 130.617188 241.019531 128.871094 239.90625 128.109375 C 238.523438 127.171875 237.105469 126.285156 235.707031 125.359375 C 235.457031 125.199219 235.335938 125.246094 235.179688 125.484375 C 234.425781 126.65625 233.671875 127.828125 232.894531 128.984375 C 232.714844 129.253906 232.753906 129.386719 233.019531 129.546875 C 233.71875 129.984375 234.394531 130.441406 235.078125 130.882812 Z M 235.078125 130.882812 "/>
<path style=" stroke:none;fill-rule:nonzero;fill:rgb(98.823529%,98.823529%,99.607843%);fill-opacity:1;" d="M 249.9375 129.640625 C 252.316406 129.53125 254.273438 130.476562 255.953125 132.070312 C 257.085938 133.152344 257.640625 134.492188 257.699219 136.039062 C 257.625 137.785156 256.957031 139.316406 256.019531 140.761719 C 255.703125 141.242188 255.476562 141.242188 255.019531 140.941406 C 252.664062 139.367188 250.28125 137.847656 247.925781 136.289062 C 247.5625 136.042969 247.417969 136.097656 247.230469 136.472656 C 246.582031 137.800781 246.808594 139.054688 247.902344 140.070312 C 248.519531 140.636719 249.230469 141.019531 250.050781 141.199219 C 250.726562 141.351562 251.359375 141.230469 251.851562 140.730469 C 252.066406 140.515625 252.195312 140.546875 252.40625 140.691406 C 253.082031 141.148438 253.761719 141.605469 254.464844 142.023438 C 254.816406 142.234375 254.753906 142.394531 254.550781 142.664062 C 253.449219 144.101562 251.992188 144.652344 250.222656 144.375 C 248.257812 144.058594 246.6875 143 245.210938 141.730469 C 243.929688 140.625 243.351562 139.210938 243.261719 137.585938 C 243.164062 135.726562 243.847656 134.097656 244.96875 132.632812 C 245.941406 131.363281 247.226562 130.523438 248.664062 129.890625 C 248.878906 129.796875 249.132812 129.792969 249.363281 129.746094 C 249.363281 129.746094 249.355469 129.710938 249.355469 129.710938 C 249.433594 129.75 249.5 129.746094 249.550781 129.664062 L 249.523438 129.652344 C 249.523438 129.652344 249.511719 129.683594 249.511719 129.683594 C 249.589844 129.722656 249.660156 129.722656 249.707031 129.636719 L 249.671875 129.628906 C 249.671875 129.628906 249.667969 129.664062 249.667969 129.664062 C 249.757812 129.648438 249.847656 129.648438 249.9375 129.640625 Z M 251.402344 135.570312 C 252.148438 136.054688 252.902344 136.539062 253.640625 137.035156 C 253.894531 137.210938 254.003906 137.152344 254.144531 136.898438 C 254.734375 135.789062 254.519531 134.46875 253.59375 133.636719 C 252.269531 132.453125 250.542969 132.441406 249.171875 133.589844 C 248.894531 133.824219 248.867188 133.945312 249.195312 134.148438 C 249.9375 134.601562 250.664062 135.09375 251.402344 135.570312 Z M 251.402344 135.570312 "/>
<path style=" stroke:none;fill-rule:nonzero;fill:rgb(98.823529%,98.823529%,99.607843%);fill-opacity:1;" d="M 255.148438 129.710938 C 254.195312 129.089844 253.25 128.464844 252.292969 127.859375 C 252.03125 127.691406 251.980469 127.554688 252.171875 127.292969 C 252.457031 126.898438 252.722656 126.496094 252.960938 126.074219 C 253.140625 125.753906 253.304688 125.789062 253.574219 125.964844 C 255.46875 127.210938 257.371094 128.453125 259.273438 129.675781 C 259.554688 129.863281 259.613281 130 259.40625 130.28125 C 259.113281 130.667969 258.855469 131.074219 258.609375 131.492188 C 258.441406 131.78125 258.292969 131.765625 258.042969 131.597656 C 257.085938 130.964844 256.117188 130.335938 255.148438 129.710938 Z M 255.148438 129.710938 "/>
<path style=" stroke:none;fill-rule:nonzero;fill:url(#linear15);" d="M 180.664062 41.984375 C 182.699219 43.730469 184 45.890625 184.339844 48.59375 C 184.601562 50.675781 184.648438 52.757812 184.566406 54.851562 C 184.429688 58.300781 184.539062 66.617188 184.539062 66.617188 L 182.875 69.449219 C 182.777344 69.59375 182.628906 69.773438 182.421875 69.691406 C 178.296875 67.632812 174.261719 65.414062 170.410156 62.871094 C 168.601562 61.675781 166.855469 60.394531 165.253906 58.929688 C 163.832031 57.628906 162.71875 56.136719 162.140625 54.269531 C 161.238281 51.382812 161.519531 48.382812 162.742188 45.820312 C 163.808594 43.582031 166.082031 40.210938 166.082031 40.210938 C 166.082031 40.210938 177.136719 38.957031 180.664062 41.984375 Z M 178.136719 48.25 C 176.742188 45.511719 173.328125 44.394531 170.601562 45.785156 C 167.882812 47.171875 166.796875 50.558594 168.199219 53.300781 C 169.582031 56.011719 172.984375 57.125 175.683594 55.75 C 178.429688 54.347656 179.527344 50.992188 178.136719 48.25 Z M 178.136719 48.25 "/>
<path style=" stroke:none;fill-rule:nonzero;fill:rgb(78.431373%,100%,31.372549%);fill-opacity:1;" d="M 180.664062 40.386719 C 182.699219 42.132812 184 44.289062 184.339844 46.992188 C 184.601562 49.074219 184.648438 51.15625 184.566406 53.25 C 184.371094 58.15625 183.726562 63.015625 182.878906 67.847656 C 182.804688 68.273438 182.796875 68.277344 182.425781 68.09375 C 178.304688 66.03125 174.265625 63.8125 170.414062 61.269531 C 168.605469 60.078125 166.859375 58.792969 165.257812 57.328125 C 163.839844 56.027344 162.726562 54.539062 162.144531 52.667969 C 160.460938 47.265625 162.90625 41.453125 167.96875 38.878906 C 172.097656 36.765625 177.136719 37.359375 180.664062 40.386719 Z M 178.136719 46.648438 C 176.742188 43.910156 173.328125 42.792969 170.601562 44.183594 C 167.882812 45.570312 166.796875 48.957031 168.199219 51.703125 C 169.582031 54.410156 172.984375 55.523438 175.683594 54.148438 C 178.429688 52.746094 179.527344 49.394531 178.136719 46.648438 Z M 178.136719 46.648438 "/>
<path style=" stroke:none;fill-rule:nonzero;fill:rgb(98.431373%,98.431373%,99.215686%);fill-opacity:1;" d="M 133.789062 104.164062 C 133.871094 104.21875 133.9375 104.15625 134.003906 104.140625 C 134.605469 103.972656 135.226562 103.878906 135.851562 103.785156 C 136.695312 103.65625 137.546875 103.597656 138.398438 103.578125 C 138.886719 103.566406 139.378906 103.59375 139.867188 103.617188 C 140.875 103.664062 141.878906 103.796875 142.878906 104.003906 C 144.117188 104.261719 145.332031 104.621094 146.519531 105.097656 C 147.425781 105.457031 148.300781 105.867188 149.152344 106.335938 C 150.011719 106.8125 150.828125 107.347656 151.617188 107.933594 C 152.835938 108.832031 153.949219 109.839844 154.964844 110.964844 C 155.777344 111.859375 156.507812 112.808594 157.15625 113.820312 C 157.558594 114.433594 157.921875 115.066406 158.253906 115.722656 C 158.542969 116.300781 158.828125 116.882812 159.066406 117.484375 C 159.273438 118 159.515625 118.503906 159.667969 119.039062 C 159.867188 119.734375 160.078125 120.425781 160.238281 121.132812 C 160.429688 121.984375 160.578125 122.84375 160.660156 123.707031 C 160.777344 124.855469 160.800781 126.003906 160.71875 127.148438 C 160.660156 128.027344 160.5625 128.898438 160.394531 129.757812 C 160.183594 130.824219 159.886719 131.863281 159.523438 132.882812 C 159.203125 133.777344 158.804688 134.628906 158.367188 135.464844 C 158.015625 136.144531 157.601562 136.789062 157.167969 137.417969 C 156.53125 138.347656 155.800781 139.207031 155.011719 140 C 154.523438 140.492188 154 140.957031 153.457031 141.390625 C 152.847656 141.886719 152.214844 142.332031 151.554688 142.742188 C 151.085938 143.039062 150.601562 143.3125 150.105469 143.554688 C 149.785156 143.710938 149.460938 143.855469 149.152344 144.019531 C 148.992188 144.105469 148.8125 144.160156 148.640625 144.230469 C 147.871094 144.542969 147.089844 144.820312 146.277344 145.023438 C 145.445312 145.230469 144.605469 145.429688 143.753906 145.527344 C 142.964844 145.621094 142.164062 145.683594 141.363281 145.695312 C 139.882812 145.714844 138.410156 145.585938 136.949219 145.289062 C 135.714844 145.039062 134.507812 144.679688 133.324219 144.222656 C 132.667969 143.96875 132.027344 143.675781 131.394531 143.363281 C 130.761719 143.050781 130.15625 142.6875 129.554688 142.316406 C 128.40625 141.59375 127.332031 140.777344 126.328125 139.867188 C 125.429688 139.050781 124.601562 138.15625 123.847656 137.199219 C 123.246094 136.433594 122.679688 135.632812 122.183594 134.792969 C 121.863281 134.253906 121.574219 133.703125 121.289062 133.144531 C 120.757812 132.082031 120.316406 130.992188 119.96875 129.867188 C 119.765625 129.210938 119.609375 128.539062 119.460938 127.871094 C 119.230469 126.8125 119.101562 125.75 119.027344 124.675781 C 118.964844 123.742188 118.992188 122.808594 119.050781 121.875 C 119.109375 120.988281 119.238281 120.117188 119.410156 119.257812 C 119.566406 118.492188 119.765625 117.738281 120.019531 117.007812 C 120.273438 116.273438 120.554688 115.542969 120.882812 114.839844 C 121.21875 114.121094 121.589844 113.425781 122.015625 112.753906 C 122.066406 112.671875 122.078125 112.550781 122.207031 112.519531 C 122.234375 112.601562 122.265625 112.683594 122.289062 112.761719 C 124.109375 118.03125 125.921875 123.296875 127.75 128.558594 C 127.960938 129.164062 128.238281 129.746094 128.558594 130.3125 C 128.980469 131.085938 129.472656 131.8125 130.035156 132.488281 C 130.667969 133.25 131.371094 133.9375 132.152344 134.542969 C 132.679688 134.949219 133.21875 135.324219 133.800781 135.65625 C 134.410156 136 135.03125 136.3125 135.679688 136.5625 C 136.957031 137.046875 138.261719 137.34375 139.605469 137.429688 C 140.347656 137.476562 141.085938 137.460938 141.816406 137.378906 C 142.179688 137.339844 142.550781 137.273438 142.910156 137.199219 C 143.226562 137.136719 143.539062 137.054688 143.847656 136.980469 C 144.195312 136.890625 144.535156 136.753906 144.871094 136.613281 C 145.203125 136.472656 145.527344 136.339844 145.847656 136.191406 C 146.589844 135.832031 147.269531 135.382812 147.917969 134.886719 C 148.683594 134.289062 149.363281 133.597656 149.953125 132.824219 C 150.320312 132.355469 150.636719 131.851562 150.933594 131.328125 C 151.292969 130.707031 151.558594 130.042969 151.804688 129.367188 C 152.019531 128.773438 152.175781 128.152344 152.277344 127.519531 C 152.453125 126.492188 152.523438 125.460938 152.441406 124.410156 C 152.378906 123.582031 152.25 122.761719 152.035156 121.949219 C 151.941406 121.609375 151.851562 121.261719 151.738281 120.929688 C 151.625 120.59375 151.484375 120.25 151.332031 119.921875 C 151.148438 119.507812 150.960938 119.101562 150.742188 118.714844 C 149.855469 117.136719 148.71875 115.769531 147.289062 114.636719 C 146.535156 114.035156 145.730469 113.507812 144.871094 113.078125 C 143.78125 112.53125 142.644531 112.125 141.46875 111.886719 C 140.445312 111.679688 139.414062 111.605469 138.386719 111.644531 C 137.914062 111.660156 137.441406 111.726562 136.980469 111.800781 C 136.363281 111.898438 135.75 112.027344 135.164062 112.222656 C 134.613281 112.410156 134.074219 112.617188 133.550781 112.867188 C 133.488281 112.898438 133.46875 112.9375 133.492188 113.007812 C 133.511719 113.058594 133.527344 113.105469 133.546875 113.15625 C 134.511719 115.960938 135.480469 118.761719 136.449219 121.5625 C 136.480469 121.644531 136.507812 121.722656 136.539062 121.816406 C 136.085938 121.949219 135.644531 122.085938 135.191406 122.21875 C 135.128906 122.175781 135.128906 122.097656 135.105469 122.03125 C 133.25 116.671875 131.398438 111.3125 129.542969 105.953125 C 129.484375 105.78125 129.507812 105.710938 129.683594 105.664062 C 130.152344 105.535156 130.5625 105.28125 131.015625 105.101562 C 131.289062 104.992188 131.554688 104.871094 131.84375 104.800781 C 131.910156 104.78125 131.996094 104.800781 132.019531 104.707031 C 132.605469 104.515625 133.195312 104.34375 133.789062 104.164062 Z M 133.789062 104.164062 "/>
<path style=" stroke:none;fill-rule:nonzero;fill:rgb(98.431373%,98.431373%,99.215686%);fill-opacity:1;" d="M 142.523438 132.339844 C 141.953125 132.035156 141.410156 131.71875 140.882812 131.363281 C 139.902344 130.714844 138.957031 130.019531 138.105469 129.195312 C 137.5625 128.671875 137.054688 128.128906 136.660156 127.488281 C 136.011719 126.441406 135.660156 125.320312 135.832031 124.109375 C 135.953125 123.25 136.347656 122.554688 136.996094 121.996094 C 137.558594 121.515625 138.203125 121.183594 138.925781 121.023438 C 139.785156 120.824219 140.644531 120.890625 141.496094 121.226562 C 142.460938 121.609375 143.171875 122.277344 143.683594 123.179688 C 144.1875 124.074219 144.351562 125.03125 144.328125 126.011719 C 144.296875 127.460938 143.945312 128.824219 143.46875 130.164062 C 143.226562 130.847656 142.957031 131.519531 142.640625 132.164062 C 142.609375 132.226562 142.597656 132.296875 142.523438 132.339844 Z M 137.425781 126.136719 C 137.964844 127.710938 139.59375 128.511719 140.992188 128.132812 C 142.59375 127.699219 143.351562 126.050781 142.832031 124.542969 C 142.296875 123.007812 140.671875 122.105469 139.136719 122.578125 C 137.699219 123.019531 136.902344 124.59375 137.425781 126.136719 Z M 137.425781 126.136719 "/>
</g>
</svg>
