<?xml version="1.0" encoding="UTF-8"?>
<svg xmlns="http://www.w3.org/2000/svg" xmlns:xlink="http://www.w3.org/1999/xlink" width="275pt" height="200pt" viewBox="0 0 275 200" version="1.1">
<defs>
<filter id="alpha" filterUnits="objectBoundingBox" x="0%" y="0%" width="100%" height="100%">
  <feColorMatrix type="matrix" in="SourceGraphic" values="0 0 0 0 1 0 0 0 0 1 0 0 0 0 1 0 0 0 1 0"/>
</filter>
<mask id="mask0">
  <g filter="url(#alpha)">
<rect x="0" y="0" width="275" height="200" style="fill:rgb(0%,0%,0%);fill-opacity:0.129412;stroke:none;"/>
  </g>
</mask>
<clipPath id="clip1">
  <rect width="275" height="200"/>
</clipPath>
<g id="surface6" clip-path="url(#clip1)">
<path style=" stroke:none;fill-rule:nonzero;fill:rgb(42.745098%,43.137255%,43.529412%);fill-opacity:1;" d="M 58.664062 56.050781 L 96.3125 36.519531 L 64.871094 61.808594 L 58.710938 74.535156 Z M 58.664062 56.050781 "/>
</g>
</defs>
<g id="surface1">
<path style=" stroke:none;fill-rule:nonzero;fill:rgb(96.862745%,96.862745%,96.862745%);fill-opacity:1;" d="M 129.332031 168.566406 C 122.496094 168.582031 115.65625 168.734375 108.832031 169.425781 C 106.261719 169.683594 103.738281 170.257812 101.160156 170.488281 C 96.007812 170.953125 90.949219 171.8125 85.777344 172.210938 C 81.613281 172.53125 77.433594 172.71875 73.28125 173.125 C 69.386719 173.503906 65.078125 173.417969 61.214844 172.789062 C 58.355469 172.324219 55.484375 172.0625 52.671875 171.316406 C 49.527344 170.476562 46.109375 169.878906 42.835938 169.902344 C 38.164062 169.933594 33.613281 169.9375 29.140625 171.414062 C 27.570312 171.929688 25.648438 172.78125 24.457031 173.871094 C 21.730469 176.359375 21.359375 182.574219 24.085938 185.15625 C 28.675781 189.503906 38.46875 191.210938 44.898438 191.289062 C 51.949219 191.378906 58.796875 190.902344 65.855469 190.621094 C 72.414062 190.363281 78.957031 189.992188 85.527344 190.003906 C 98.949219 190.03125 112.367188 190.003906 125.761719 189.191406 C 138.347656 188.421875 150.960938 188.6875 163.574219 188.6875 C 176.507812 188.6875 189.355469 188.78125 202.195312 190.34375 C 207.789062 191.027344 213.488281 191.265625 219.113281 191.742188 C 224.148438 192.171875 228.988281 191.734375 234.003906 191.339844 C 238.214844 191.007812 242.398438 190.023438 246.226562 188.359375 C 249.253906 187.042969 254.652344 182.949219 255.582031 179.804688 C 258.1875 170.988281 218.886719 171.203125 212.851562 171.21875 C 206.101562 171.242188 199.300781 171.445312 192.554688 171.210938 C 189.71875 171.113281 186.921875 170.609375 184.152344 170.050781 C 181.394531 169.503906 178.613281 169.640625 175.816406 169.410156 C 164.152344 168.445312 152.464844 168.585938 140.761719 168.585938 C 136.953125 168.585938 133.140625 168.554688 129.332031 168.566406 Z M 129.332031 168.566406 "/>
<path style=" stroke:none;fill-rule:nonzero;fill:rgb(73.72549%,74.901961%,75.294118%);fill-opacity:1;" d="M 244.902344 132.835938 L 243.765625 154.007812 L 241.640625 182.585938 L 238.460938 182.816406 L 234.597656 156.859375 L 229.253906 134.890625 Z M 244.902344 132.835938 "/>
<path style=" stroke:none;fill-rule:nonzero;fill:rgb(9.411765%,33.72549%,60%);fill-opacity:1;" d="M 238.574219 184.152344 L 242.136719 185.628906 L 243.730469 183.789062 L 241.890625 182.191406 L 238.453125 182.433594 Z M 238.574219 184.152344 "/>
<path style=" stroke:none;fill-rule:nonzero;fill:rgb(73.72549%,74.901961%,75.294118%);fill-opacity:1;" d="M 220.539062 131.253906 L 219.835938 143.957031 L 221.90625 181.734375 L 225.09375 181.894531 L 229.863281 157.117188 L 234.070312 129.945312 Z M 220.539062 131.253906 "/>
<path style=" stroke:none;fill-rule:nonzero;fill:rgb(9.411765%,33.72549%,60%);fill-opacity:1;" d="M 225.003906 182.488281 L 221.476562 184.039062 L 219.84375 182.976562 L 221.648438 181.34375 L 225.09375 181.515625 Z M 225.003906 182.488281 "/>
<path style=" stroke:none;fill-rule:nonzero;fill:rgb(7.058824%,40%,78.823529%);fill-opacity:1;" d="M 237.824219 92.234375 L 227.859375 91.578125 C 227.859375 91.578125 222.359375 92.394531 219.15625 105.660156 C 217.371094 113.039062 217.210938 124.558594 217.421875 133.328125 C 217.703125 134.566406 219.292969 139.984375 225.011719 138.820312 C 234.835938 136.816406 240.03125 135.003906 244.371094 135.625 C 248.070312 136.269531 247.550781 131.234375 246.988281 127.398438 L 245.039062 115.53125 Z M 237.824219 92.234375 "/>
<path style=" stroke:none;fill-rule:nonzero;fill:rgb(72.54902%,42.745098%,38.431373%);fill-opacity:1;" d="M 235.398438 79.960938 C 232.875 79.511719 230.28125 79.125 227.796875 79.722656 C 227.253906 79.851562 226.671875 80.070312 226.394531 80.554688 C 226.289062 80.742188 226.234375 80.957031 226.1875 81.171875 C 225.652344 83.546875 224.996094 87.058594 226.628906 89.160156 C 226.941406 89.558594 227.351562 89.871094 227.789062 90.121094 C 228.371094 90.453125 229.011719 90.667969 229.667969 90.769531 C 229.558594 91.359375 229.390625 91.941406 229.175781 92.5 C 229.785156 93.339844 232.460938 93.332031 232.921875 92.484375 C 232.917969 91.765625 232.914062 91.050781 232.914062 90.332031 C 233.234375 90.1875 233.542969 90.015625 233.828125 89.808594 C 234.941406 89.007812 235.644531 87.835938 236.03125 86.542969 C 236.449219 85.132812 237.0625 83.785156 237.441406 82.351562 C 237.578125 81.828125 237.675781 81.234375 237.386719 80.777344 C 237.078125 80.292969 236.449219 80.148438 235.878906 80.046875 C 235.71875 80.015625 235.558594 79.988281 235.398438 79.960938 Z M 235.398438 79.960938 "/>
<path style=" stroke:none;fill-rule:nonzero;fill:rgb(23.137255%,29.019608%,35.294118%);fill-opacity:1;" d="M 227.128906 81.644531 C 228.332031 80.800781 230.175781 80.378906 231.339844 80.417969 C 234.863281 80.527344 236.261719 83.054688 236.578125 86.28125 C 237.496094 85.011719 239.25 83.386719 239.296875 81.796875 C 239.332031 80.496094 239.078125 78.738281 238.308594 77.648438 C 237.585938 76.628906 235.824219 76.125 234.765625 75.558594 C 233.765625 75.027344 232.769531 74.496094 231.773438 73.964844 C 231.566406 73.855469 231.351562 73.742188 231.117188 73.710938 C 230.84375 73.671875 230.566406 73.753906 230.300781 73.835938 C 228.023438 74.523438 225.746094 75.214844 223.46875 75.90625 C 223.03125 76.039062 222.53125 76.226562 222.386719 76.65625 C 222.300781 76.921875 222.371094 77.207031 222.441406 77.476562 C 222.75 78.664062 223.300781 79.863281 223.476562 81.066406 C 223.648438 81.765625 224.214844 85.351562 225.441406 84.886719 C 225.78125 84.273438 225.808594 83.53125 226.066406 82.878906 C 226.257812 82.402344 226.640625 81.988281 227.128906 81.644531 Z M 227.128906 81.644531 "/>
<path style=" stroke:none;fill-rule:nonzero;fill:rgb(7.058824%,40%,78.823529%);fill-opacity:1;" d="M 227.859375 91.578125 L 224.234375 92.847656 L 211.417969 107.433594 L 210.8125 112.089844 L 217.652344 122.398438 L 219.222656 118.453125 L 216.1875 110.75 L 220.371094 107.542969 L 225.578125 94.390625 Z M 227.859375 91.578125 "/>
<path style=" stroke:none;fill-rule:nonzero;fill:rgb(7.058824%,40%,78.823529%);fill-opacity:1;" d="M 235.753906 93.167969 L 242.273438 85.515625 L 239.84375 65.609375 L 242.785156 64.171875 L 247.699219 84.261719 L 246.660156 89.363281 L 239.449219 100.230469 Z M 235.753906 93.167969 "/>
<path style=" stroke:none;fill-rule:nonzero;fill:rgb(72.54902%,42.745098%,38.431373%);fill-opacity:1;" d="M 242.15625 64.480469 L 242.078125 62.648438 L 239.859375 59.949219 L 238.46875 61.296875 L 239.515625 63.734375 L 238.953125 64.609375 L 239.84375 65.609375 Z M 242.15625 64.480469 "/>
<path style=" stroke:none;fill-rule:nonzero;fill:rgb(93.72549%,73.333333%,64.705882%);fill-opacity:1;" d="M 64.820312 88.511719 L 68.109375 86.210938 L 67.640625 84.113281 L 64.308594 85.261719 L 62.699219 86.3125 L 62.699219 87.476562 Z M 64.820312 88.511719 "/>
<path style=" stroke:none;fill-rule:nonzero;fill:rgb(9.411765%,33.72549%,60%);fill-opacity:1;" d="M 33.5625 177.21875 C 33.222656 176.84375 32.828125 176.640625 32.378906 176.710938 C 31.949219 176.78125 31.5625 177.074219 31.386719 177.460938 C 31.265625 177.726562 31.238281 178.023438 31.214844 178.316406 C 31.089844 179.816406 31.101562 183.378906 33.101562 183.890625 C 33.941406 184.109375 34.636719 182.765625 34.863281 182.011719 C 35.199219 180.871094 34.699219 178.46875 33.5625 177.21875 Z M 33.5625 177.21875 "/>
<path style=" stroke:none;fill-rule:nonzero;fill:rgb(93.72549%,73.333333%,64.705882%);fill-opacity:1;" d="M 34.273438 154.578125 L 34.167969 163.734375 C 34.289062 167.800781 33.65625 171.890625 33.773438 175.953125 C 33.800781 176.890625 34.046875 177.875 33.808594 178.800781 C 33.578125 179.710938 32.84375 179.871094 32.085938 179.410156 C 31.074219 178.796875 31.238281 177.359375 31.070312 176.308594 C 30.609375 173.429688 30.0625 170.566406 29.578125 167.691406 C 29.34375 166.28125 29.832031 164.304688 29.726562 162.878906 L 28.246094 155.203125 Z M 34.273438 154.578125 "/>
<path style=" stroke:none;fill-rule:nonzero;fill:rgb(23.137255%,29.019608%,35.294118%);fill-opacity:1;" d="M 23.816406 139.789062 L 27.796875 157.488281 L 28.644531 174.199219 L 34.960938 174.058594 L 36.679688 127.308594 L 24.433594 127.53125 Z M 23.816406 139.789062 "/>
<path style=" stroke:none;fill-rule:nonzero;fill:rgb(9.411765%,33.72549%,60%);fill-opacity:1;" d="M 42.597656 176.140625 C 42.242188 175.789062 41.839844 175.609375 41.398438 175.703125 C 40.972656 175.796875 40.601562 176.113281 40.4375 176.511719 C 40.328125 176.785156 40.316406 177.085938 40.304688 177.375 C 40.246094 178.886719 40.410156 182.449219 42.421875 182.84375 C 43.269531 183.011719 43.933594 182.371094 44.128906 181.605469 C 44.417969 180.449219 43.78125 177.328125 42.597656 176.140625 Z M 42.597656 176.140625 "/>
<path style=" stroke:none;fill-rule:nonzero;fill:rgb(93.72549%,73.333333%,64.705882%);fill-opacity:1;" d="M 39.265625 155.863281 L 39.800781 165.003906 C 39.847656 167.546875 40.183594 170.066406 40.449219 172.585938 C 40.691406 174.929688 40.3125 177.371094 41.535156 179.503906 C 41.921875 180.171875 42.695312 180.613281 43.238281 179.804688 C 43.65625 179.179688 43.40625 178.136719 43.488281 177.425781 C 43.816406 174.527344 44.222656 171.640625 44.570312 168.746094 C 44.738281 167.324219 44.160156 165.375 44.199219 163.945312 L 45.3125 156.210938 Z M 39.265625 155.863281 "/>
<path style=" stroke:none;fill-rule:nonzero;fill:rgb(23.137255%,29.019608%,35.294118%);fill-opacity:1;" d="M 47.261719 138.707031 L 47.777344 155.886719 L 45.078125 173.261719 L 38.65625 173.453125 L 38.9375 154.648438 L 35.539062 139.058594 L 34.398438 128.851562 L 44.59375 127.648438 Z M 47.261719 138.707031 "/>
<path style=" stroke:none;fill-rule:nonzero;fill:rgb(73.72549%,74.901961%,75.294118%);fill-opacity:1;" d="M 39.199219 92.492188 L 28.210938 92.230469 L 21.84375 104.074219 L 24.109375 115.171875 L 24.511719 128.449219 L 40.179688 128.660156 L 45.335938 127.824219 L 43.964844 113.636719 L 44.683594 96.328125 Z M 39.199219 92.492188 "/>
<path style=" stroke:none;fill-rule:nonzero;fill:rgb(73.72549%,74.901961%,75.294118%);fill-opacity:1;" d="M 27.847656 93.046875 L 18.929688 106.628906 L 20.269531 114.195312 L 34.078125 123.761719 L 36.679688 121.488281 L 27.449219 109.816406 L 27.804688 102.441406 Z M 27.847656 93.046875 "/>
<path style=" stroke:none;fill-rule:nonzero;fill:rgb(73.72549%,74.901961%,75.294118%);fill-opacity:1;" d="M 38.53125 100.160156 L 49.085938 103.96875 L 55.195312 102.460938 L 65.746094 88.613281 L 62.074219 87.015625 L 50.988281 96.53125 L 40.953125 93.527344 Z M 38.53125 100.160156 "/>
<path style=" stroke:none;fill-rule:nonzero;fill:rgb(49.019608%,76.470588%,85.882353%);fill-opacity:1;" d="M 31.460938 92.429688 L 34.871094 97.246094 L 36.46875 97.113281 L 39.140625 92.230469 Z M 31.460938 92.429688 "/>
<path style=" stroke:none;fill-rule:nonzero;fill:rgb(93.72549%,73.333333%,64.705882%);fill-opacity:1;" d="M 34.164062 122.066406 L 34.101562 123.921875 L 37.371094 125.109375 L 39.257812 123.683594 L 39.257812 121.523438 L 37.4375 121.425781 L 37.382812 120.949219 L 36.785156 120.566406 Z M 34.164062 122.066406 "/>
<path style=" stroke:none;fill-rule:nonzero;fill:rgb(93.72549%,73.333333%,64.705882%);fill-opacity:1;" d="M 35.488281 82.761719 C 36.199219 82.132812 37.015625 82.015625 37.921875 82.011719 C 38.351562 82.007812 38.496094 82.117188 38.71875 82.078125 C 38.816406 82.0625 38.933594 82.015625 39.09375 81.914062 C 39.421875 81.710938 39.710938 81.179688 39.863281 80.746094 C 40.703125 81.28125 41.316406 82.242188 41.488281 83.707031 C 41.671875 85.300781 41.667969 86.984375 41.121094 88.574219 C 40.578125 90.171875 39.410156 91.667969 37.898438 92.261719 C 37.8125 92.296875 37.726562 92.324219 37.636719 92.351562 C 36.988281 92.566406 36.375 92.609375 35.804688 92.515625 L 33.898438 91.609375 C 33.804688 91.527344 33.710938 91.441406 33.625 91.351562 C 32.996094 88.644531 33.671875 84.359375 35.488281 82.761719 Z M 35.488281 82.761719 "/>
<path style=" stroke:none;fill-rule:nonzero;fill:rgb(18.431373%,23.529412%,28.627451%);fill-opacity:1;" d="M 19.65625 115.949219 C 19.800781 116.796875 20.234375 117.558594 20.835938 118.183594 C 20.882812 117.890625 20.933594 117.601562 20.984375 117.3125 C 20.933594 117.601562 20.882812 117.890625 20.835938 118.183594 C 21.222656 118.585938 21.675781 118.925781 22.167969 119.1875 C 23.414062 119.855469 24.863281 120.066406 26.277344 120.0625 C 27.410156 120.058594 28.558594 119.933594 29.664062 120.175781 C 30.773438 120.417969 31.867188 121.136719 32.148438 122.234375 C 32.300781 122.839844 32.253906 123.601562 32.773438 123.941406 C 33.019531 124.101562 33.328125 124.113281 33.625 124.125 C 34.519531 124.148438 35.539062 124.128906 36.140625 123.460938 C 37.074219 122.433594 36.527344 120.371094 37.785156 119.785156 C 38.152344 119.613281 38.578125 119.640625 38.980469 119.574219 C 40.683594 119.285156 41.515625 117.359375 41.351562 115.589844 C 41.316406 115.222656 41.242188 114.863281 41.121094 114.527344 C 40.421875 112.566406 38.789062 111.109375 37.550781 109.425781 C 35.140625 106.148438 33.511719 101.765625 34.996094 97.882812 C 35.136719 97.515625 35.289062 97.148438 35.386719 96.773438 C 35.441406 96.566406 35.476562 96.355469 35.480469 96.140625 C 35.503906 94.984375 34.640625 94.027344 34.082031 93.011719 C 34.03125 92.917969 33.984375 92.816406 33.933594 92.710938 C 33.824219 92.457031 33.726562 92.171875 33.648438 91.863281 C 33.636719 91.820312 33.628906 91.773438 33.617188 91.726562 C 31.90625 90.019531 31.222656 86.851562 32.347656 84.484375 C 32.414062 84.351562 32.480469 84.21875 32.550781 84.089844 C 32.476562 84.21875 32.410156 84.351562 32.347656 84.484375 C 31.222656 86.851562 31.90625 90.019531 33.617188 91.726562 C 32.992188 89.011719 33.671875 84.726562 35.484375 83.128906 C 36.195312 82.503906 37.011719 82.386719 37.917969 82.378906 C 38.347656 82.378906 38.488281 82.488281 38.710938 82.449219 C 38.8125 82.433594 38.925781 82.386719 39.089844 82.28125 C 39.414062 82.078125 39.703125 81.550781 39.859375 81.117188 C 40.699219 81.648438 41.3125 82.613281 41.484375 84.078125 C 41.664062 85.671875 41.664062 87.351562 41.117188 88.945312 C 40.574219 90.539062 39.40625 92.039062 37.894531 92.628906 C 37.808594 92.664062 37.71875 92.695312 37.632812 92.722656 C 37.707031 92.859375 37.800781 92.996094 37.925781 93.128906 C 38.753906 94.039062 40.082031 94.253906 41.300781 94.410156 C 41.449219 94.429688 41.605469 94.449219 41.746094 94.390625 C 41.976562 94.300781 42.09375 94.039062 42.09375 93.792969 C 42.09375 93.546875 42.003906 93.308594 41.9375 93.074219 C 41.226562 90.605469 42.484375 87.78125 42.695312 85.292969 C 42.90625 82.808594 42.390625 80.101562 40.398438 78.421875 C 40.058594 78.515625 39.730469 78.640625 39.417969 78.800781 C 39.386719 78.757812 39.355469 78.71875 39.320312 78.675781 C 36.433594 75.210938 32.355469 78.175781 30.164062 80.824219 C 28.355469 83.003906 26.847656 85.511719 26.15625 88.28125 C 25.511719 90.871094 25.296875 94.675781 25.566406 97.324219 C 25.726562 98.871094 26.335938 100.386719 26.664062 101.902344 C 26.863281 102.84375 26.953125 103.785156 26.753906 104.734375 C 26.335938 106.703125 24.773438 108.148438 23.253906 109.515625 C 23.117188 109.871094 22.976562 110.230469 22.84375 110.59375 C 22.703125 110.960938 22.570312 111.328125 22.433594 111.707031 C 22.347656 111.949219 22.261719 112.195312 22.183594 112.449219 C 22.265625 112.199219 22.347656 111.949219 22.433594 111.707031 C 22.570312 111.332031 22.707031 110.960938 22.84375 110.59375 C 22.980469 110.230469 23.117188 109.871094 23.253906 109.515625 C 23.046875 109.703125 22.835938 109.890625 22.628906 110.078125 C 20.9375 111.621094 19.269531 113.6875 19.65625 115.949219 Z M 34.835938 81.628906 C 35.0625 81.476562 35.292969 81.34375 35.527344 81.226562 C 35.292969 81.34375 35.0625 81.480469 34.835938 81.628906 Z M 34.835938 81.628906 "/>
<path style=" stroke:none;fill-rule:nonzero;fill:rgb(49.019608%,76.470588%,85.882353%);fill-opacity:1;" d="M 190.925781 19.96875 L 237.246094 19.96875 L 237.246094 56.128906 L 190.925781 56.128906 Z M 190.925781 19.96875 "/>
<path style=" stroke:none;fill-rule:nonzero;fill:rgb(9.411765%,33.72549%,60%);fill-opacity:1;" d="M 188.789062 39.175781 L 189.007812 69.644531 L 233.359375 69.324219 C 236.714844 69.300781 239.414062 66.375 239.386719 62.789062 L 239.214844 38.816406 L 214.113281 54.714844 Z M 188.789062 39.175781 "/>
<path style=" stroke:none;fill-rule:nonzero;fill:rgb(96.862745%,96.862745%,96.862745%);fill-opacity:1;" d="M 199.304688 26.699219 L 233.59375 26.699219 L 233.59375 27.433594 L 199.304688 27.433594 Z M 199.304688 26.699219 "/>
<path style=" stroke:none;fill-rule:nonzero;fill:rgb(96.862745%,96.862745%,96.862745%);fill-opacity:1;" d="M 194.574219 32.453125 L 233.59375 32.453125 L 233.59375 33.21875 L 194.574219 33.21875 Z M 194.574219 32.453125 "/>
<path style=" stroke:none;fill-rule:nonzero;fill:rgb(96.862745%,96.862745%,96.862745%);fill-opacity:1;" d="M 194.574219 38.222656 L 233.59375 38.222656 L 233.59375 38.988281 L 194.574219 38.988281 Z M 194.574219 38.222656 "/>
<path style=" stroke:none;fill-rule:nonzero;fill:rgb(9.411765%,33.72549%,60%);fill-opacity:1;" d="M 65.050781 61.433594 L 58.664062 74.746094 L 58.648438 55.910156 L 121.328125 16.773438 Z M 65.050781 61.433594 "/>
<use xlink:href="#surface6" mask="url(#mask0)"/>
<path style=" stroke:none;fill-rule:nonzero;fill:rgb(23.137255%,29.019608%,35.294118%);fill-opacity:1;" d="M 58.664062 74.746094 L 64.859375 61.636719 L 121.191406 16.964844 Z M 58.664062 74.746094 "/>
<path style=" stroke:none;fill-rule:nonzero;fill:rgb(43.921569%,49.803922%,46.27451%);fill-opacity:1;" d="M 121.191406 16.964844 L 121.328125 16.773438 L 120.601562 17.335938 Z M 121.191406 16.964844 "/>
<path style=" stroke:none;fill-rule:nonzero;fill:rgb(49.019608%,76.470588%,85.882353%);fill-opacity:1;" d="M 121.191406 16.964844 L 120.601562 17.335938 L 64.875 61.554688 L 64.808594 61.59375 L 82.769531 77.726562 Z M 121.191406 16.964844 "/>
<path style=" stroke:none;fill-rule:nonzero;fill:rgb(49.019608%,76.470588%,85.882353%);fill-opacity:1;" d="M 121.328125 16.773438 L 43.234375 42.210938 L 58.558594 55.976562 L 120.601562 17.335938 Z M 121.328125 16.773438 "/>
<path style=" stroke:none;fill-rule:nonzero;fill:rgb(9.411765%,33.72549%,60%);fill-opacity:1;" d="M 90.164062 180.511719 L 89.914062 182.464844 L 93.566406 184.175781 L 95.773438 183.21875 L 94.070312 181.015625 L 90.417969 178.558594 Z M 90.164062 180.511719 "/>
<path style=" stroke:none;fill-rule:nonzero;fill:rgb(73.72549%,74.901961%,75.294118%);fill-opacity:1;" d="M 90.042969 179.859375 L 92.859375 154.960938 L 89.46875 127.085938 L 90.234375 121.15625 L 105.375 120.578125 L 105.921875 130.230469 L 103.378906 154.996094 L 93.816406 181.128906 Z M 90.042969 179.859375 "/>
<path style=" stroke:none;fill-rule:nonzero;fill:rgb(49.019608%,76.470588%,85.882353%);fill-opacity:1;" d="M 106.796875 93.03125 L 114.414062 95.105469 L 123.21875 110.714844 L 119.046875 114.578125 L 113.175781 107.621094 Z M 106.796875 93.03125 "/>
<path style=" stroke:none;fill-rule:nonzero;fill:rgb(73.72549%,74.901961%,75.294118%);fill-opacity:1;" d="M 116.484375 123.371094 L 116.523438 148.496094 L 111.46875 180.84375 L 107.828125 180.804688 L 105.824219 150.890625 L 101.140625 120.953125 Z M 116.484375 123.371094 "/>
<path style=" stroke:none;fill-rule:nonzero;fill:rgb(9.411765%,33.72549%,60%);fill-opacity:1;" d="M 107.832031 182.339844 L 111.75 183.601562 L 113.738281 182.398438 L 111.789062 180.414062 L 107.851562 180.371094 Z M 107.832031 182.339844 "/>
<path style=" stroke:none;fill-rule:nonzero;fill:rgb(49.019608%,76.470588%,85.882353%);fill-opacity:1;" d="M 87.902344 131.914062 C 87.9375 130.824219 87.996094 129.917969 88.007812 129.59375 C 88.085938 126.671875 88.34375 123.757812 88.710938 120.859375 C 89.039062 118.257812 89.453125 111.808594 89.898438 109.226562 C 90.265625 107.09375 91.546875 101.769531 92.46875 99.792969 C 94.769531 94.871094 94.058594 94.421875 104.160156 92.957031 C 108.585938 92.316406 109.632812 95.074219 113.253906 98.246094 C 113.609375 98.558594 113.589844 100.421875 113.671875 100.917969 C 113.816406 101.789062 113.976562 102.652344 114.152344 103.515625 C 114.292969 104.195312 114.449219 104.871094 114.621094 105.546875 C 114.621094 105.546875 117.660156 119.371094 119.671875 122.308594 C 121.679688 125.242188 125.828125 129.347656 118.886719 131.855469 C 117.65625 132.253906 116.421875 132.632812 115.136719 132.832031 C 115.136719 132.832031 109.460938 132.203125 106.539062 132.222656 C 103.851562 132.242188 101.148438 132.515625 98.503906 132.96875 C 96.738281 133.265625 94.933594 133.695312 93.351562 134.519531 C 91.839844 135.308594 90.753906 136.46875 89.21875 137.28125 C 89.074219 137.359375 88.914062 137.441406 88.75 137.417969 C 87.871094 137.296875 87.828125 134.207031 87.902344 131.914062 Z M 87.902344 131.914062 "/>
<path style=" stroke:none;fill-rule:nonzero;fill:rgb(72.54902%,42.745098%,38.431373%);fill-opacity:1;" d="M 104.167969 94.34375 C 103.65625 94.597656 102.453125 94.6875 101.199219 94.195312 C 100.949219 94.09375 100.777344 93.851562 100.78125 93.578125 C 100.789062 92.816406 100.851562 92.058594 100.960938 91.300781 C 100.023438 90.972656 98.933594 90.476562 98.769531 89.492188 C 98.71875 89.183594 98.773438 88.863281 98.824219 88.554688 C 99.046875 87.273438 99.265625 85.996094 99.488281 84.714844 C 99.566406 84.273438 99.644531 83.816406 99.886719 83.4375 C 100.308594 82.773438 101.128906 82.480469 101.90625 82.34375 C 103.886719 82 106.046875 82.429688 107.582031 83.726562 C 107.992188 84.074219 108.363281 84.488281 108.542969 84.992188 C 108.820312 85.769531 108.613281 86.628906 108.402344 87.425781 C 108.210938 88.164062 108.015625 88.898438 107.824219 89.636719 C 107.601562 90.484375 107.277344 91.445312 106.460938 91.765625 C 106.03125 91.933594 105.515625 91.886719 105.125 92.136719 C 104.433594 92.578125 104.527344 93.609375 104.167969 94.34375 Z M 104.167969 94.34375 "/>
<path style=" stroke:none;fill-rule:nonzero;fill:rgb(23.137255%,29.019608%,35.294118%);fill-opacity:1;" d="M 115.609375 81.949219 C 115.800781 81.628906 116.011719 81.324219 116.246094 81.03125 C 116.753906 80.40625 117.382812 79.871094 117.789062 79.171875 C 118.199219 78.476562 118.34375 77.535156 117.851562 76.894531 C 117.535156 76.484375 117.023438 76.273438 116.523438 76.128906 C 114.878906 75.640625 113.101562 75.609375 111.4375 76.03125 C 109.855469 76.433594 108.4375 77.101562 106.84375 76.507812 C 105.34375 75.949219 104.261719 76.175781 102.699219 76.734375 C 101.003906 77.339844 98.730469 77.484375 97.195312 78.335938 C 96.554688 78.691406 96.042969 79.246094 95.644531 79.863281 C 94.265625 81.996094 94.257812 84.933594 95.628906 87.070312 C 95.933594 87.550781 96.300781 87.988281 96.6875 88.40625 C 97.488281 89.273438 98.441406 90.34375 99.542969 90.664062 C 99.566406 89.683594 98.671875 86.578125 99.425781 85.773438 C 100.625 84.496094 103.335938 84.941406 104.824219 85.257812 C 106.445312 85.601562 107.890625 86.75 109.496094 86.996094 C 110.65625 87.171875 112.132812 86.605469 113.113281 86.003906 C 114.332031 85.269531 114.898438 83.113281 115.609375 81.949219 Z M 115.609375 81.949219 "/>
<path style=" stroke:none;fill-rule:nonzero;fill:rgb(49.019608%,76.470588%,85.882353%);fill-opacity:1;" d="M 95.773438 94.847656 L 89.46875 100.371094 L 82.441406 115.144531 L 91.316406 125.707031 L 92.847656 119.800781 Z M 95.773438 94.847656 "/>
<path style=" stroke:none;fill-rule:nonzero;fill:rgb(9.411765%,33.72549%,60%);fill-opacity:1;" d="M 138.960938 100.378906 L 61.058594 106.242188 L 101.835938 127.59375 Z M 138.960938 100.378906 "/>
<path style=" stroke:none;fill-rule:nonzero;fill:rgb(9.411765%,33.72549%,60%);fill-opacity:1;" d="M 58.617188 108.03125 L 62.394531 158.199219 L 135.421875 152.699219 C 140.941406 152.285156 145.058594 147.164062 144.613281 141.257812 L 141.640625 101.78125 L 102.078125 130.789062 Z M 58.617188 108.03125 "/>
<path style=" stroke:none;fill-rule:nonzero;fill:rgb(16.862745%,18.039216%,28.627451%);fill-opacity:1;" d="M 124.984375 101.429688 C 124.933594 102.101562 124.929688 102.78125 124.984375 103.46875 C 125.140625 105.59375 125.789062 107.570312 126.808594 109.289062 L 138.960938 100.378906 Z M 124.984375 101.429688 "/>
<path style=" stroke:none;fill-rule:nonzero;fill:rgb(16.862745%,18.039216%,28.627451%);fill-opacity:1;" d="M 139.375 115.847656 C 140.515625 115.761719 141.613281 115.535156 142.648438 115.1875 L 141.640625 101.78125 L 128.417969 111.476562 C 131.105469 114.433594 135.078125 116.171875 139.375 115.847656 Z M 139.375 115.847656 "/>
<path style=" stroke:none;fill-rule:nonzero;fill:rgb(95.294118%,44.313725%,40.784314%);fill-opacity:1;" d="M 151.042969 91.058594 C 145.796875 85.8125 137.296875 85.8125 132.054688 91.058594 C 126.8125 96.300781 126.8125 104.800781 132.054688 110.042969 C 137.296875 115.285156 145.796875 115.285156 151.042969 110.042969 C 156.285156 104.800781 156.285156 96.300781 151.042969 91.058594 Z M 151.042969 91.058594 "/>
<path style=" stroke:none;fill-rule:nonzero;fill:rgb(100%,100%,100%);fill-opacity:1;" d="M 144.34375 107.890625 L 141.199219 108.078125 L 140.582031 97.726562 L 138.617188 97.84375 L 138.429688 94.703125 L 143.539062 94.398438 Z M 144.34375 107.890625 "/>
<path style=" stroke:none;fill-rule:nonzero;fill:rgb(9.411765%,33.72549%,60%);fill-opacity:1;" d="M 188.753906 179.15625 C 189.09375 178.78125 189.488281 178.578125 189.933594 178.648438 C 190.363281 178.71875 190.746094 179.007812 190.925781 179.398438 C 191.046875 179.664062 191.070312 179.957031 191.09375 180.246094 C 191.058594 179.800781 191.367188 185.261719 189.210938 185.8125 C 188.375 186.027344 187.679688 185.433594 187.457031 184.679688 C 187.121094 183.546875 187.617188 180.402344 188.753906 179.15625 Z M 188.753906 179.15625 "/>
<path style=" stroke:none;fill-rule:nonzero;fill:rgb(93.72549%,73.333333%,64.705882%);fill-opacity:1;" d="M 188.042969 156.566406 L 188.148438 165.699219 C 188.023438 169.753906 188.660156 173.835938 188.539062 177.890625 C 188.511719 178.824219 188.265625 179.808594 188.503906 180.734375 C 188.734375 181.636719 189.46875 181.796875 190.222656 181.339844 C 191.234375 180.726562 191.070312 179.292969 191.238281 178.246094 C 191.699219 175.375 192.242188 172.515625 192.726562 169.644531 C 192.960938 168.238281 192.472656 166.265625 192.578125 164.84375 C 192.578125 164.84375 194.054688 157.1875 194.054688 157.1875 Z M 188.042969 156.566406 "/>
<path style=" stroke:none;fill-rule:nonzero;fill:rgb(9.411765%,33.72549%,60%);fill-opacity:1;" d="M 198.476562 141.808594 L 194.503906 159.464844 L 193.65625 176.140625 L 187.355469 176 L 185.640625 129.355469 L 197.859375 129.578125 Z M 198.476562 141.808594 "/>
<path style=" stroke:none;fill-rule:nonzero;fill:rgb(9.411765%,33.72549%,60%);fill-opacity:1;" d="M 179.734375 178.824219 C 180.085938 178.472656 180.492188 178.292969 180.933594 178.386719 C 181.359375 178.480469 181.730469 178.796875 181.890625 179.195312 C 182 179.46875 182.011719 179.765625 182.023438 180.054688 C 182.003906 179.589844 181.996094 185.101562 179.910156 185.511719 C 179.066406 185.675781 178.398438 185.039062 178.210938 184.273438 C 177.921875 183.121094 178.550781 180.003906 179.734375 178.824219 Z M 179.734375 178.824219 "/>
<path style=" stroke:none;fill-rule:nonzero;fill:rgb(93.72549%,73.333333%,64.705882%);fill-opacity:1;" d="M 183.058594 157.847656 L 182.523438 166.964844 C 182.480469 169.5 182.140625 172.011719 181.878906 174.53125 C 181.636719 176.867188 182.015625 179.300781 180.792969 181.429688 C 180.410156 182.097656 179.636719 182.539062 179.09375 181.730469 C 178.675781 181.105469 178.921875 180.066406 178.84375 179.355469 C 178.515625 176.464844 178.109375 173.582031 177.761719 170.691406 C 177.59375 169.277344 178.171875 167.328125 178.136719 165.902344 C 178.136719 165.902344 177.023438 158.1875 177.023438 158.1875 Z M 183.058594 157.847656 "/>
<path style=" stroke:none;fill-rule:nonzero;fill:rgb(9.411765%,33.72549%,60%);fill-opacity:1;" d="M 175.082031 140.726562 L 174.566406 157.871094 L 177.257812 175.203125 L 183.671875 175.394531 L 183.386719 156.636719 L 186.78125 141.078125 L 187.921875 130.894531 L 177.746094 129.695312 Z M 175.082031 140.726562 "/>
<path style=" stroke:none;fill-rule:nonzero;fill:rgb(82.745098%,91.372549%,93.72549%);fill-opacity:1;" d="M 183.128906 94.613281 L 194.089844 94.351562 L 200.445312 106.171875 L 198.1875 117.242188 L 197.785156 130.488281 L 182.148438 130.703125 L 177.003906 129.867188 L 178.371094 115.710938 L 177.585938 96.804688 Z M 183.128906 94.613281 "/>
<path style=" stroke:none;fill-rule:nonzero;fill:rgb(82.745098%,91.372549%,93.72549%);fill-opacity:1;" d="M 194.453125 95.167969 L 203.351562 108.71875 L 202.015625 116.269531 L 188.234375 125.816406 L 185.640625 123.546875 L 194.851562 111.902344 L 194.496094 104.542969 Z M 194.453125 95.167969 "/>
<path style=" stroke:none;fill-rule:nonzero;fill:rgb(82.745098%,91.372549%,93.72549%);fill-opacity:1;" d="M 182.582031 101.773438 L 176.871094 113.191406 L 170.71875 114.414062 L 155.378906 107.714844 L 158.023438 104.714844 L 172.011719 107.273438 L 177.585938 96.804688 Z M 182.582031 101.773438 "/>
<path style=" stroke:none;fill-rule:nonzero;fill:rgb(93.72549%,73.333333%,64.705882%);fill-opacity:1;" d="M 183.816406 85.433594 C 185.46875 80.628906 191.808594 82.429688 193.117188 86.707031 C 193.96875 89.496094 191.816406 93.117188 188.925781 93.921875 C 188.914062 94.03125 188.902344 94.132812 188.902344 94.21875 C 188.898438 94.667969 188.84375 95.109375 188.78125 95.558594 C 188.753906 95.726562 186.226562 95.238281 185.941406 95.183594 C 185.84375 95.164062 185.734375 95.136719 185.679688 95.050781 C 185.578125 94.890625 185.746094 94.425781 185.761719 94.25 C 185.785156 94.042969 185.804688 93.832031 185.828125 93.625 C 184.402344 92.929688 183.503906 91.449219 183.25 89.9375 C 182.996094 88.417969 183.320312 86.875 183.816406 85.433594 Z M 183.816406 85.433594 "/>
<path style=" stroke:none;fill-rule:nonzero;fill:rgb(18.431373%,23.529412%,28.627451%);fill-opacity:1;" d="M 187.953125 81.089844 C 188.292969 81.433594 188.425781 81.917969 188.523438 82.378906 C 188.582031 82.65625 188.636719 82.941406 188.574219 83.214844 C 188.339844 84.304688 187.257812 84.246094 186.421875 84.601562 C 185.390625 85.03125 184.503906 85.832031 183.925781 86.75 C 183.019531 88.191406 183.425781 90.039062 183.796875 91.628906 C 183.925781 92.1875 184.183594 93.015625 183.75 93.515625 C 183.308594 94.023438 182.289062 93.945312 181.761719 93.683594 C 181.28125 93.449219 180.882812 93.003906 180.355469 92.917969 C 179.796875 92.824219 179.039062 93.070312 178.773438 92.554688 C 178.703125 92.414062 178.695312 92.238281 178.605469 92.105469 C 178.296875 91.664062 177.523438 92.179688 177.085938 91.867188 C 176.820312 91.675781 176.820312 91.265625 176.914062 90.941406 C 177.003906 90.617188 177.15625 90.289062 177.09375 89.960938 C 177.039062 89.675781 176.835938 89.453125 176.707031 89.195312 C 176.457031 88.683594 176.546875 88.023438 176.914062 87.59375 C 177.605469 86.792969 178.941406 86.945312 179.683594 86.191406 C 180.066406 85.800781 180.21875 85.234375 180.359375 84.703125 C 180.503906 84.167969 180.675781 83.605469 181.085938 83.242188 C 181.597656 82.796875 182.332031 82.871094 182.832031 82.339844 C 183.128906 82.027344 183.324219 81.621094 183.65625 81.351562 C 184.09375 80.992188 184.945312 80.71875 185.488281 80.535156 C 186.347656 80.253906 187.308594 80.4375 187.953125 81.089844 Z M 187.953125 81.089844 "/>
<path style=" stroke:none;fill-rule:nonzero;fill:rgb(18.431373%,23.529412%,28.627451%);fill-opacity:1;" d="M 191.964844 88.757812 C 191.996094 90.335938 191.210938 92.046875 191.9375 93.441406 C 192.671875 94.84375 194.503906 95.097656 196.066406 95.171875 C 196.324219 95.183594 199.621094 95.46875 199.636719 95.40625 C 199.882812 94.300781 200.136719 93.179688 200.710938 92.210938 C 201.289062 91.246094 202.25 90.445312 203.351562 90.375 C 203.035156 90.320312 202.875 89.929688 202.910156 89.601562 C 202.949219 89.273438 203.117188 88.976562 203.214844 88.664062 C 203.457031 87.886719 203.222656 86.984375 202.636719 86.4375 C 201.472656 85.351562 199.359375 85.800781 198.359375 84.554688 C 197.738281 83.78125 197.8125 82.65625 197.488281 81.710938 C 196.859375 79.886719 194.859375 79.503906 193.363281 78.675781 C 191.789062 77.808594 190.300781 77.328125 188.480469 77.632812 C 186.222656 78.011719 184.542969 80.308594 185.414062 82.46875 C 186.53125 85.246094 190.996094 85.003906 191.832031 87.824219 C 191.921875 88.128906 191.960938 88.441406 191.964844 88.757812 Z M 191.964844 88.757812 "/>
<path style=" stroke:none;fill-rule:nonzero;fill:rgb(23.137255%,29.019608%,35.294118%);fill-opacity:1;" d="M 190.847656 94.550781 L 187.449219 99.359375 L 185.851562 99.226562 L 183.183594 94.351562 Z M 190.847656 94.550781 "/>
<path style=" stroke:none;fill-rule:nonzero;fill:rgb(100%,100%,100%);fill-opacity:1;" d="M 173.605469 130.707031 C 173.335938 130.707031 173.089844 130.605469 172.910156 130.421875 L 165.164062 122.484375 L 160.355469 128.640625 C 160.183594 128.859375 159.941406 128.980469 159.671875 128.980469 C 159.25 128.980469 158.820312 128.675781 158.671875 128.273438 L 147.265625 97.570312 C 147.128906 97.199219 147.207031 96.835938 147.480469 96.582031 C 147.644531 96.371094 147.886719 96.246094 148.148438 96.246094 C 148.269531 96.246094 148.390625 96.273438 148.515625 96.320312 L 178.921875 108.480469 C 179.296875 108.628906 179.546875 108.9375 179.59375 109.304688 C 179.640625 109.667969 179.480469 110.023438 179.160156 110.261719 L 172.996094 114.835938 L 180.722656 122.761719 C 181.101562 123.148438 181.101562 123.796875 180.71875 124.167969 L 174.3125 130.417969 C 174.128906 130.601562 173.871094 130.707031 173.605469 130.707031 Z M 165.0625 119.976562 C 165.339844 119.976562 165.613281 120.085938 165.789062 120.269531 L 173.632812 128.308594 L 178.613281 123.449219 L 170.789062 115.425781 C 170.582031 115.21875 170.480469 114.949219 170.503906 114.667969 C 170.527344 114.367188 170.691406 114.082031 170.953125 113.886719 L 176.605469 109.691406 L 149.925781 99.023438 L 159.929688 125.960938 L 164.347656 120.304688 C 164.511719 120.097656 164.769531 119.976562 165.0625 119.976562 Z M 165.0625 119.976562 "/>
<path style=" stroke:none;fill-rule:nonzero;fill:rgb(100%,100%,100%);fill-opacity:1;" d="M 180.992188 122.5 L 177.253906 118.664062 L 173.566406 114.886719 L 176.128906 112.980469 L 179.386719 110.566406 C 179.816406 110.246094 180.03125 109.757812 179.96875 109.257812 C 179.902344 108.753906 179.566406 108.332031 179.0625 108.132812 L 168.726562 104 L 152.390625 97.46875 L 150.167969 96.578125 L 148.652344 95.976562 C 148.488281 95.90625 148.316406 95.875 148.148438 95.875 C 147.78125 95.875 147.441406 96.039062 147.203125 96.328125 C 146.835938 96.683594 146.726562 97.199219 146.914062 97.703125 L 147.324219 98.808594 L 150.789062 108.140625 L 156.914062 124.632812 L 157.621094 126.539062 L 158.316406 128.40625 C 158.519531 128.957031 159.085938 129.359375 159.667969 129.359375 C 160.058594 129.359375 160.40625 129.183594 160.648438 128.871094 L 163.09375 125.738281 L 165.191406 123.050781 L 168.09375 126.023438 L 171.589844 129.609375 L 172.636719 130.683594 C 172.890625 130.941406 173.234375 131.085938 173.601562 131.085938 C 173.964844 131.085938 174.320312 130.941406 174.578125 130.691406 L 177.730469 127.613281 L 180.984375 124.441406 C 181.519531 123.914062 181.523438 123.046875 180.992188 122.5 Z M 180.460938 123.902344 C 178.324219 125.984375 176.191406 128.070312 174.054688 130.152344 C 173.933594 130.269531 173.765625 130.332031 173.605469 130.332031 C 173.449219 130.332031 173.292969 130.273438 173.175781 130.15625 C 172.828125 129.800781 172.480469 129.441406 172.128906 129.085938 C 169.796875 126.695312 167.464844 124.304688 165.136719 121.914062 C 163.441406 124.078125 161.753906 126.242188 160.058594 128.40625 C 159.953125 128.546875 159.8125 128.601562 159.671875 128.601562 C 159.398438 128.601562 159.113281 128.390625 159.019531 128.140625 C 158.550781 126.882812 158.085938 125.625 157.617188 124.367188 C 155.574219 118.871094 153.53125 113.371094 151.492188 107.875 C 150.199219 104.394531 148.90625 100.917969 147.613281 97.4375 C 147.515625 97.175781 147.601562 96.96875 147.757812 96.835938 C 147.847656 96.707031 147.984375 96.621094 148.148438 96.621094 C 148.21875 96.621094 148.296875 96.636719 148.375 96.667969 C 149.621094 97.164062 150.867188 97.664062 152.113281 98.164062 C 157.558594 100.339844 163.003906 102.515625 168.449219 104.695312 C 171.890625 106.074219 175.339844 107.449219 178.785156 108.828125 C 179.296875 109.035156 179.390625 109.628906 178.941406 109.964844 C 176.769531 111.574219 174.601562 113.183594 172.429688 114.796875 C 172.613281 114.984375 172.796875 115.167969 172.976562 115.355469 C 175.46875 117.914062 177.960938 120.46875 180.457031 123.023438 C 180.6875 123.261719 180.703125 123.664062 180.460938 123.902344 Z M 180.460938 123.902344 "/>
<path style=" stroke:none;fill-rule:nonzero;fill:rgb(100%,100%,100%);fill-opacity:1;" d="M 171.050781 115.164062 C 170.75 114.855469 170.851562 114.425781 171.171875 114.191406 C 173.238281 112.65625 175.300781 111.125 177.363281 109.59375 C 176.484375 109.242188 175.601562 108.890625 174.71875 108.539062 C 169.273438 106.359375 163.828125 104.183594 158.386719 102.003906 C 155.347656 100.789062 152.3125 99.578125 149.273438 98.363281 C 149.585938 99.199219 149.898438 100.039062 150.207031 100.875 C 152.25 106.371094 154.292969 111.871094 156.332031 117.367188 C 157.488281 120.484375 158.648438 123.601562 159.808594 126.71875 C 161.417969 124.660156 163.027344 122.597656 164.636719 120.539062 C 164.738281 120.410156 164.894531 120.355469 165.058594 120.355469 C 165.230469 120.355469 165.40625 120.421875 165.515625 120.53125 C 165.867188 120.890625 166.214844 121.246094 166.566406 121.605469 C 168.917969 124.015625 171.269531 126.425781 173.621094 128.835938 C 175.460938 127.042969 177.296875 125.25 179.136719 123.453125 C 178.933594 123.246094 178.734375 123.039062 178.53125 122.832031 C 176.039062 120.277344 173.546875 117.71875 171.050781 115.164062 Z M 173.636719 127.777344 L 172.078125 126.179688 L 167.105469 121.078125 L 166.945312 120.917969 L 166.058594 120.007812 C 165.808594 119.75 165.445312 119.601562 165.0625 119.601562 C 164.65625 119.601562 164.289062 119.773438 164.050781 120.074219 L 161.636719 123.167969 L 160.046875 125.203125 L 158.84375 121.964844 L 157.039062 117.109375 L 150.914062 100.613281 L 150.570312 99.6875 L 158.109375 102.703125 L 174.445312 109.234375 L 175.800781 109.773438 L 175.84375 109.792969 L 173.878906 111.25 L 170.726562 113.585938 C 170.378906 113.847656 170.160156 114.230469 170.128906 114.636719 C 170.097656 115.027344 170.234375 115.398438 170.515625 115.691406 L 174.257812 119.523438 L 177.996094 123.359375 L 178.078125 123.445312 Z M 173.636719 127.777344 "/>
<path style=" stroke:none;fill-rule:nonzero;fill:rgb(23.137255%,29.019608%,35.294118%);fill-opacity:1;" d="M 148.210938 97.269531 L 159.617188 127.96875 L 165.085938 120.972656 L 173.613281 129.714844 L 180.019531 123.464844 L 171.488281 114.722656 L 178.621094 109.429688 Z M 148.210938 97.269531 "/>
<path style=" stroke:none;fill-rule:nonzero;fill:rgb(93.72549%,73.333333%,64.705882%);fill-opacity:1;" d="M 182.601562 124.738281 L 182.660156 126.589844 L 179.394531 127.777344 L 177.515625 126.351562 L 177.515625 124.199219 L 179.328125 124.097656 L 179.386719 123.625 L 179.984375 123.242188 Z M 182.601562 124.738281 "/>
<path style=" stroke:none;fill-rule:nonzero;fill:rgb(72.54902%,42.745098%,38.431373%);fill-opacity:1;" d="M 83.714844 105.511719 L 85.5625 103.046875 L 89.308594 102.316406 L 91.324219 104.328125 L 87.753906 108.050781 Z M 83.714844 105.511719 "/>
<path style=" stroke:none;fill-rule:nonzero;fill:rgb(72.54902%,42.745098%,38.431373%);fill-opacity:1;" d="M 113.535156 101.945312 L 115.378906 99.484375 L 119.128906 98.753906 L 121.144531 100.765625 L 117.574219 104.488281 Z M 113.535156 101.945312 "/>
</g>
</svg>
