<?xml version="1.0" encoding="UTF-8"?>
<svg xmlns="http://www.w3.org/2000/svg" xmlns:xlink="http://www.w3.org/1999/xlink" width="274pt" height="183pt" viewBox="0 0 274 183" version="1.1">
<defs>
<linearGradient id="linear0" gradientUnits="userSpaceOnUse" x1="1390.8988" y1="449.8301" x2="2013.0266" y2="75.9692" gradientTransform="matrix(0.0913333,0,0,0.0915,0,0)">
<stop offset="0" style="stop-color:rgb(41.960784%,74.509804%,100%);stop-opacity:1;"/>
<stop offset="1" style="stop-color:rgb(4.705882%,22.745098%,63.137255%);stop-opacity:1;"/>
</linearGradient>
<linearGradient id="linear1" gradientUnits="userSpaceOnUse" x1="1973.4907" y1="177.6431" x2="1945.4491" y2="710.4315" gradientTransform="matrix(0.0903287,-0.0135054,0.0134808,0.0904935,-15.357536,43.705469)">
<stop offset="0" style="stop-color:rgb(41.960784%,74.509804%,100%);stop-opacity:1;"/>
<stop offset="1" style="stop-color:rgb(4.705882%,22.745098%,63.137255%);stop-opacity:1;"/>
</linearGradient>
<linearGradient id="linear2" gradientUnits="userSpaceOnUse" x1="2056.1741" y1="1105.0107" x2="2840.3459" y2="81.3982" gradientTransform="matrix(0.0913333,0,0,0.0915,0,0)">
<stop offset="0" style="stop-color:rgb(16.470588%,40%,77.647059%);stop-opacity:1;"/>
<stop offset="1" style="stop-color:rgb(47.45098%,76.470588%,94.117647%);stop-opacity:1;"/>
</linearGradient>
<linearGradient id="linear3" gradientUnits="userSpaceOnUse" x1="1092.4668" y1="2191.0911" x2="4076.4705" y2="-152.9084" gradientTransform="matrix(0.0913333,0,0,0.0915,0,0)">
<stop offset="0" style="stop-color:rgb(16.470588%,40%,77.647059%);stop-opacity:1;"/>
<stop offset="1" style="stop-color:rgb(47.45098%,76.470588%,94.117647%);stop-opacity:1;"/>
</linearGradient>
<linearGradient id="linear4" gradientUnits="userSpaceOnUse" x1="2043.1002" y1="1784.0988" x2="367.1002" y2="1232.0983" gradientTransform="matrix(0.0913333,0,0,0.0915,0,0)">
<stop offset="0" style="stop-color:rgb(56.078431%,83.137255%,100%);stop-opacity:1;"/>
<stop offset="1" style="stop-color:rgb(7.45098%,33.333333%,74.901961%);stop-opacity:1;"/>
</linearGradient>
<linearGradient id="linear5" gradientUnits="userSpaceOnUse" x1="2690.8701" y1="78.5226" x2="1334.8751" y2="858.5189" gradientTransform="matrix(0.0913333,0,0,0.0915,0,0)">
<stop offset="0" style="stop-color:rgb(56.078431%,83.137255%,100%);stop-opacity:1;"/>
<stop offset="1" style="stop-color:rgb(7.45098%,33.333333%,74.901961%);stop-opacity:1;"/>
</linearGradient>
<linearGradient id="linear6" gradientUnits="userSpaceOnUse" x1="2221.4421" y1="645.3041" x2="1917.4424" y2="981.3038" gradientTransform="matrix(0.0913333,0,0,0.0915,0,0)">
<stop offset="0" style="stop-color:rgb(56.078431%,83.137255%,100%);stop-opacity:1;"/>
<stop offset="1" style="stop-color:rgb(7.45098%,33.333333%,74.901961%);stop-opacity:1;"/>
</linearGradient>
<linearGradient id="linear7" gradientUnits="userSpaceOnUse" x1="722.9891" y1="1171.9077" x2="700.5658" y2="491.7371" gradientTransform="matrix(0.0913333,0,0,0.0915,0,0)">
<stop offset="0" style="stop-color:rgb(16.470588%,40%,77.647059%);stop-opacity:1;"/>
<stop offset="1" style="stop-color:rgb(47.45098%,76.470588%,94.117647%);stop-opacity:1;"/>
</linearGradient>
<linearGradient id="linear8" gradientUnits="userSpaceOnUse" x1="925.1082" y1="1449.5115" x2="222.0118" y2="1014.9344" gradientTransform="matrix(0.0913333,0,0,0.0915,0,0)">
<stop offset="0" style="stop-color:rgb(16.470588%,40%,77.647059%);stop-opacity:1;"/>
<stop offset="1" style="stop-color:rgb(47.45098%,76.470588%,94.117647%);stop-opacity:1;"/>
</linearGradient>
<filter id="alpha" filterUnits="objectBoundingBox" x="0%" y="0%" width="100%" height="100%">
  <feColorMatrix type="matrix" in="SourceGraphic" values="0 0 0 0 1 0 0 0 0 1 0 0 0 0 1 0 0 0 1 0"/>
</filter>
<mask id="mask0">
  <g filter="url(#alpha)">
<rect x="0" y="0" width="274" height="183" style="fill:rgb(0%,0%,0%);fill-opacity:0.501961;stroke:none;"/>
  </g>
</mask>
<clipPath id="clip1">
  <rect x="0" y="0" width="274" height="183"/>
</clipPath>
<g id="surface5" clip-path="url(#clip1)">
<path style=" stroke:none;fill-rule:nonzero;fill:rgb(90.980392%,42.352941%,12.156863%);fill-opacity:1;" d="M 156.324219 117.648438 L 152.691406 117.648438 C 152.636719 117.648438 152.589844 117.601562 152.589844 117.542969 L 152.589844 117.042969 C 152.589844 116.984375 152.636719 116.9375 152.691406 116.9375 L 156.324219 116.9375 C 156.382812 116.9375 156.429688 116.984375 156.429688 117.042969 L 156.429688 117.542969 C 156.429688 117.601562 156.382812 117.648438 156.324219 117.648438 Z M 156.324219 117.648438 "/>
<path style=" stroke:none;fill-rule:nonzero;fill:rgb(90.980392%,42.352941%,12.156863%);fill-opacity:1;" d="M 153.550781 114.050781 L 153.109375 114.496094 C 153.042969 114.5625 153.089844 114.671875 153.179688 114.671875 L 153.191406 114.671875 C 153.25 114.671875 153.296875 114.71875 153.296875 114.777344 L 153.296875 117.191406 C 153.296875 117.246094 153.34375 117.292969 153.402344 117.292969 L 153.847656 117.292969 C 153.902344 117.292969 153.949219 117.246094 153.949219 117.191406 L 153.949219 114.777344 C 153.949219 114.71875 153.996094 114.671875 154.054688 114.671875 L 154.066406 114.671875 C 154.160156 114.671875 154.207031 114.5625 154.140625 114.496094 L 153.695312 114.050781 C 153.65625 114.011719 153.589844 114.011719 153.550781 114.050781 Z M 153.550781 114.050781 "/>
<path style=" stroke:none;fill-rule:nonzero;fill:rgb(90.980392%,42.352941%,12.156863%);fill-opacity:1;" d="M 155.375 114.050781 L 154.933594 114.496094 C 154.867188 114.5625 154.914062 114.671875 155.003906 114.671875 L 155.015625 114.671875 C 155.074219 114.671875 155.121094 114.71875 155.121094 114.777344 L 155.121094 117.191406 C 155.121094 117.246094 155.167969 117.292969 155.226562 117.292969 L 155.671875 117.292969 C 155.730469 117.292969 155.777344 117.246094 155.777344 117.191406 L 155.777344 114.777344 C 155.777344 114.71875 155.820312 114.671875 155.878906 114.671875 L 155.890625 114.671875 C 155.984375 114.671875 156.03125 114.5625 155.964844 114.496094 L 155.523438 114.050781 C 155.480469 114.011719 155.417969 114.011719 155.375 114.050781 Z M 155.375 114.050781 "/>
</g>
<mask id="mask1">
  <g filter="url(#alpha)">
<rect x="0" y="0" width="274" height="183" style="fill:rgb(0%,0%,0%);fill-opacity:0.501961;stroke:none;"/>
  </g>
</mask>
<clipPath id="clip2">
  <rect x="0" y="0" width="274" height="183"/>
</clipPath>
<g id="surface8" clip-path="url(#clip2)">
<path style=" stroke:none;fill-rule:nonzero;fill:rgb(90.980392%,42.352941%,12.156863%);fill-opacity:1;" d="M 144.355469 117.648438 L 140.722656 117.648438 C 140.667969 117.648438 140.621094 117.601562 140.621094 117.542969 L 140.621094 117.042969 C 140.621094 116.984375 140.667969 116.9375 140.722656 116.9375 L 144.355469 116.9375 C 144.414062 116.9375 144.460938 116.984375 144.460938 117.042969 L 144.460938 117.542969 C 144.460938 117.601562 144.414062 117.648438 144.355469 117.648438 Z M 144.355469 117.648438 "/>
<path style=" stroke:none;fill-rule:nonzero;fill:rgb(90.980392%,42.352941%,12.156863%);fill-opacity:1;" d="M 141.582031 114.050781 L 141.140625 114.496094 C 141.074219 114.5625 141.121094 114.671875 141.210938 114.671875 L 141.222656 114.671875 C 141.28125 114.671875 141.328125 114.71875 141.328125 114.777344 L 141.328125 117.191406 C 141.328125 117.246094 141.375 117.292969 141.433594 117.292969 L 141.878906 117.292969 C 141.9375 117.292969 141.980469 117.246094 141.980469 117.191406 L 141.980469 114.777344 C 141.980469 114.71875 142.027344 114.671875 142.085938 114.671875 L 142.097656 114.671875 C 142.191406 114.671875 142.238281 114.5625 142.171875 114.496094 L 141.726562 114.050781 C 141.6875 114.011719 141.621094 114.011719 141.582031 114.050781 Z M 141.582031 114.050781 "/>
<path style=" stroke:none;fill-rule:nonzero;fill:rgb(90.980392%,42.352941%,12.156863%);fill-opacity:1;" d="M 143.40625 114.050781 L 142.964844 114.496094 C 142.898438 114.5625 142.945312 114.671875 143.039062 114.671875 L 143.050781 114.671875 C 143.105469 114.671875 143.152344 114.71875 143.152344 114.777344 L 143.152344 117.191406 C 143.152344 117.246094 143.199219 117.292969 143.257812 117.292969 L 143.703125 117.292969 C 143.761719 117.292969 143.808594 117.246094 143.808594 117.191406 L 143.808594 114.777344 C 143.808594 114.71875 143.855469 114.671875 143.910156 114.671875 L 143.921875 114.671875 C 144.015625 114.671875 144.0625 114.5625 143.996094 114.496094 L 143.554688 114.050781 C 143.511719 114.011719 143.445312 114.011719 143.40625 114.050781 Z M 143.40625 114.050781 "/>
</g>
<mask id="mask2">
  <g filter="url(#alpha)">
<rect x="0" y="0" width="274" height="183" style="fill:rgb(0%,0%,0%);fill-opacity:0.501961;stroke:none;"/>
  </g>
</mask>
<clipPath id="clip3">
  <rect x="0" y="0" width="274" height="183"/>
</clipPath>
<g id="surface11" clip-path="url(#clip3)">
<path style=" stroke:none;fill-rule:nonzero;fill:rgb(90.980392%,42.352941%,12.156863%);fill-opacity:1;" d="M 147.726562 98.0625 L 144.222656 98.0625 C 144.164062 98.0625 144.117188 98.015625 144.117188 97.957031 L 144.117188 97.480469 C 144.117188 97.421875 144.164062 97.375 144.222656 97.375 L 147.726562 97.375 C 147.785156 97.375 147.832031 97.421875 147.832031 97.480469 L 147.832031 97.957031 C 147.832031 98.015625 147.785156 98.0625 147.726562 98.0625 Z M 147.726562 98.0625 "/>
<path style=" stroke:none;fill-rule:nonzero;fill:rgb(90.980392%,42.352941%,12.156863%);fill-opacity:1;" d="M 145.042969 94.585938 L 144.625 95.007812 C 144.558594 95.074219 144.605469 95.1875 144.699219 95.1875 C 144.753906 95.1875 144.800781 95.230469 144.800781 95.289062 L 144.800781 97.613281 C 144.800781 97.671875 144.847656 97.71875 144.90625 97.71875 L 145.332031 97.71875 C 145.386719 97.71875 145.433594 97.671875 145.433594 97.613281 L 145.433594 95.289062 C 145.433594 95.230469 145.480469 95.1875 145.539062 95.1875 C 145.632812 95.1875 145.675781 95.074219 145.613281 95.007812 L 145.191406 94.585938 C 145.152344 94.546875 145.085938 94.546875 145.042969 94.585938 Z M 145.042969 94.585938 "/>
<path style=" stroke:none;fill-rule:nonzero;fill:rgb(90.980392%,42.352941%,12.156863%);fill-opacity:1;" d="M 146.808594 94.585938 L 146.390625 95.007812 C 146.324219 95.074219 146.371094 95.1875 146.460938 95.1875 C 146.519531 95.1875 146.566406 95.230469 146.566406 95.289062 L 146.566406 97.613281 C 146.566406 97.671875 146.613281 97.71875 146.671875 97.71875 L 147.09375 97.71875 C 147.152344 97.71875 147.199219 97.671875 147.199219 97.613281 L 147.199219 95.289062 C 147.199219 95.230469 147.246094 95.1875 147.304688 95.1875 C 147.394531 95.1875 147.441406 95.074219 147.375 95.007812 L 146.957031 94.585938 C 146.914062 94.546875 146.847656 94.546875 146.808594 94.585938 Z M 146.808594 94.585938 "/>
</g>
<linearGradient id="linear9" gradientUnits="userSpaceOnUse" x1="1690.8916" y1="225.0713" x2="456.2537" y2="1627.1498" gradientTransform="matrix(0.0913333,0,0,0.0915,0,0)">
<stop offset="0" style="stop-color:rgb(56.078431%,83.137255%,100%);stop-opacity:1;"/>
<stop offset="1" style="stop-color:rgb(7.45098%,33.333333%,74.901961%);stop-opacity:1;"/>
</linearGradient>
<clipPath id="clip4">
  <path d="M 71 24 L 139 24 L 139 129 L 71 129 Z M 71 24 "/>
</clipPath>
<clipPath id="clip5">
  <path d="M 136.753906 128.761719 L 84.625 128.761719 C 83.539062 128.761719 82.628906 127.945312 82.515625 126.863281 L 71.335938 26.402344 C 71.203125 25.144531 72.1875 24.050781 73.449219 24.050781 L 125.578125 24.050781 C 126.664062 24.050781 127.574219 24.867188 127.6875 25.949219 L 138.863281 126.410156 C 139 127.667969 138.015625 128.761719 136.753906 128.761719 Z M 136.753906 128.761719 "/>
</clipPath>
<linearGradient id="linear10" gradientUnits="userSpaceOnUse" x1="1690.8915" y1="221.6321" x2="456.2538" y2="1623.7103" gradientTransform="matrix(0.0913333,0,0,0.0915,0,0)">
<stop offset="0" style="stop-color:rgb(56.078431%,83.137255%,100%);stop-opacity:1;"/>
<stop offset="1" style="stop-color:rgb(7.45098%,33.333333%,74.901961%);stop-opacity:1;"/>
</linearGradient>
<mask id="mask3">
  <g filter="url(#alpha)">
<rect x="0" y="0" width="274" height="183" style="fill:rgb(0%,0%,0%);fill-opacity:0.501961;stroke:none;"/>
  </g>
</mask>
<clipPath id="clip6">
  <rect x="0" y="0" width="274" height="183"/>
</clipPath>
<g id="surface14" clip-path="url(#clip6)">
<path style=" stroke:none;fill-rule:nonzero;fill:rgb(16.470588%,40%,77.647059%);fill-opacity:1;" d="M 89.230469 103.929688 C 98.324219 107.28125 103.285156 111.894531 109.375 115.941406 C 115.464844 119.984375 123.253906 131.574219 123.535156 133.769531 C 123.820312 135.964844 98.371094 139.808594 93.539062 125.992188 C 88.707031 112.175781 87.820312 103.410156 89.230469 103.929688 Z M 89.230469 103.929688 "/>
</g>
<clipPath id="clip7">
  <path d="M 72 24 L 114 24 L 114 92 L 72 92 Z M 72 24 "/>
</clipPath>
<clipPath id="clip8">
  <path d="M 136.753906 128.761719 L 84.625 128.761719 C 83.539062 128.761719 82.628906 127.945312 82.515625 126.863281 L 71.335938 26.402344 C 71.203125 25.144531 72.1875 24.050781 73.449219 24.050781 L 125.578125 24.050781 C 126.664062 24.050781 127.574219 24.867188 127.6875 25.949219 L 138.863281 126.410156 C 139 127.667969 138.015625 128.761719 136.753906 128.761719 Z M 136.753906 128.761719 "/>
</clipPath>
<clipPath id="clip9">
  <path d="M 77 85 L 135 85 L 135 129 L 77 129 Z M 77 85 "/>
</clipPath>
<clipPath id="clip10">
  <path d="M 136.753906 128.761719 L 84.625 128.761719 C 83.539062 128.761719 82.628906 127.945312 82.515625 126.863281 L 71.335938 26.402344 C 71.203125 25.144531 72.1875 24.050781 73.449219 24.050781 L 125.578125 24.050781 C 126.664062 24.050781 127.574219 24.867188 127.6875 25.949219 L 138.863281 126.410156 C 139 127.667969 138.015625 128.761719 136.753906 128.761719 Z M 136.753906 128.761719 "/>
</clipPath>
<clipPath id="clip11">
  <path d="M 71 24 L 100 24 L 100 62 L 71 62 Z M 71 24 "/>
</clipPath>
<clipPath id="clip12">
  <path d="M 136.753906 128.761719 L 84.625 128.761719 C 83.539062 128.761719 82.628906 127.945312 82.515625 126.863281 L 71.335938 26.402344 C 71.203125 25.144531 72.1875 24.050781 73.449219 24.050781 L 125.578125 24.050781 C 126.664062 24.050781 127.574219 24.867188 127.6875 25.949219 L 138.863281 126.410156 C 139 127.667969 138.015625 128.761719 136.753906 128.761719 Z M 136.753906 128.761719 "/>
</clipPath>
<clipPath id="clip13">
  <path d="M 68 30 L 92 30 L 92 54 L 68 54 Z M 68 30 "/>
</clipPath>
<clipPath id="clip14">
  <path d="M 181.71875 61.15625 L 145.671875 98.882812 C 144.921875 99.667969 143.699219 99.757812 142.839844 99.09375 L 62.671875 37.714844 C 61.671875 36.941406 61.5625 35.472656 62.433594 34.558594 L 98.480469 -3.167969 C 99.230469 -3.953125 100.453125 -4.042969 101.3125 -3.378906 L 181.480469 58 C 182.480469 58.773438 182.589844 60.242188 181.71875 61.15625 Z M 181.71875 61.15625 "/>
</clipPath>
<clipPath id="clip15">
  <path d="M 91 55 L 139 55 L 139 93 L 91 93 Z M 91 55 "/>
</clipPath>
<clipPath id="clip16">
  <path d="M 136.753906 128.761719 L 84.625 128.761719 C 83.539062 128.761719 82.628906 127.945312 82.515625 126.863281 L 71.335938 26.402344 C 71.203125 25.144531 72.1875 24.050781 73.449219 24.050781 L 125.578125 24.050781 C 126.664062 24.050781 127.574219 24.867188 127.6875 25.949219 L 138.863281 126.410156 C 139 127.667969 138.015625 128.761719 136.753906 128.761719 Z M 136.753906 128.761719 "/>
</clipPath>
<clipPath id="clip17">
  <path d="M 102 55 L 117 55 L 117 72 L 102 72 Z M 102 55 "/>
</clipPath>
<clipPath id="clip18">
  <path d="M 136.753906 128.761719 L 84.625 128.761719 C 83.539062 128.761719 82.628906 127.945312 82.515625 126.863281 L 71.335938 26.402344 C 71.203125 25.144531 72.1875 24.050781 73.449219 24.050781 L 125.578125 24.050781 C 126.664062 24.050781 127.574219 24.867188 127.6875 25.949219 L 138.863281 126.410156 C 139 127.667969 138.015625 128.761719 136.753906 128.761719 Z M 136.753906 128.761719 "/>
</clipPath>
<clipPath id="clip19">
  <path d="M 89 71 L 105 71 L 105 88 L 89 88 Z M 89 71 "/>
</clipPath>
<clipPath id="clip20">
  <path d="M 136.753906 128.761719 L 84.625 128.761719 C 83.539062 128.761719 82.628906 127.945312 82.515625 126.863281 L 71.335938 26.402344 C 71.203125 25.144531 72.1875 24.050781 73.449219 24.050781 L 125.578125 24.050781 C 126.664062 24.050781 127.574219 24.867188 127.6875 25.949219 L 138.863281 126.410156 C 139 127.667969 138.015625 128.761719 136.753906 128.761719 Z M 136.753906 128.761719 "/>
</clipPath>
<clipPath id="clip21">
  <path d="M 80 62 L 96 62 L 96 77 L 80 77 Z M 80 62 "/>
</clipPath>
<clipPath id="clip22">
  <path d="M 136.753906 128.761719 L 84.625 128.761719 C 83.539062 128.761719 82.628906 127.945312 82.515625 126.863281 L 71.335938 26.402344 C 71.203125 25.144531 72.1875 24.050781 73.449219 24.050781 L 125.578125 24.050781 C 126.664062 24.050781 127.574219 24.867188 127.6875 25.949219 L 138.863281 126.410156 C 139 127.667969 138.015625 128.761719 136.753906 128.761719 Z M 136.753906 128.761719 "/>
</clipPath>
<clipPath id="clip23">
  <path d="M 71 72 L 84 72 L 84 88 L 71 88 Z M 71 72 "/>
</clipPath>
<clipPath id="clip24">
  <path d="M 136.753906 128.761719 L 84.625 128.761719 C 83.539062 128.761719 82.628906 127.945312 82.515625 126.863281 L 71.335938 26.402344 C 71.203125 25.144531 72.1875 24.050781 73.449219 24.050781 L 125.578125 24.050781 C 126.664062 24.050781 127.574219 24.867188 127.6875 25.949219 L 138.863281 126.410156 C 139 127.667969 138.015625 128.761719 136.753906 128.761719 Z M 136.753906 128.761719 "/>
</clipPath>
<clipPath id="clip25">
  <path d="M 82 84 L 98 84 L 98 101 L 82 101 Z M 82 84 "/>
</clipPath>
<clipPath id="clip26">
  <path d="M 136.753906 128.761719 L 84.625 128.761719 C 83.539062 128.761719 82.628906 127.945312 82.515625 126.863281 L 71.335938 26.402344 C 71.203125 25.144531 72.1875 24.050781 73.449219 24.050781 L 125.578125 24.050781 C 126.664062 24.050781 127.574219 24.867188 127.6875 25.949219 L 138.863281 126.410156 C 139 127.667969 138.015625 128.761719 136.753906 128.761719 Z M 136.753906 128.761719 "/>
</clipPath>
<clipPath id="clip27">
  <path d="M 94 97 L 111 97 L 111 113 L 94 113 Z M 94 97 "/>
</clipPath>
<clipPath id="clip28">
  <path d="M 136.753906 128.761719 L 84.625 128.761719 C 83.539062 128.761719 82.628906 127.945312 82.515625 126.863281 L 71.335938 26.402344 C 71.203125 25.144531 72.1875 24.050781 73.449219 24.050781 L 125.578125 24.050781 C 126.664062 24.050781 127.574219 24.867188 127.6875 25.949219 L 138.863281 126.410156 C 139 127.667969 138.015625 128.761719 136.753906 128.761719 Z M 136.753906 128.761719 "/>
</clipPath>
<clipPath id="clip29">
  <path d="M 101 76 L 118 76 L 118 91 L 101 91 Z M 101 76 "/>
</clipPath>
<clipPath id="clip30">
  <path d="M 136.753906 128.761719 L 84.625 128.761719 C 83.539062 128.761719 82.628906 127.945312 82.515625 126.863281 L 71.335938 26.402344 C 71.203125 25.144531 72.1875 24.050781 73.449219 24.050781 L 125.578125 24.050781 C 126.664062 24.050781 127.574219 24.867188 127.6875 25.949219 L 138.863281 126.410156 C 139 127.667969 138.015625 128.761719 136.753906 128.761719 Z M 136.753906 128.761719 "/>
</clipPath>
<clipPath id="clip31">
  <path d="M 118 87 L 135 87 L 135 101 L 118 101 Z M 118 87 "/>
</clipPath>
<clipPath id="clip32">
  <path d="M 136.753906 128.761719 L 84.625 128.761719 C 83.539062 128.761719 82.628906 127.945312 82.515625 126.863281 L 71.335938 26.402344 C 71.203125 25.144531 72.1875 24.050781 73.449219 24.050781 L 125.578125 24.050781 C 126.664062 24.050781 127.574219 24.867188 127.6875 25.949219 L 138.863281 126.410156 C 139 127.667969 138.015625 128.761719 136.753906 128.761719 Z M 136.753906 128.761719 "/>
</clipPath>
<clipPath id="clip33">
  <path d="M 78 99 L 88 99 L 88 115 L 78 115 Z M 78 99 "/>
</clipPath>
<clipPath id="clip34">
  <path d="M 136.753906 128.761719 L 84.625 128.761719 C 83.539062 128.761719 82.628906 127.945312 82.515625 126.863281 L 71.335938 26.402344 C 71.203125 25.144531 72.1875 24.050781 73.449219 24.050781 L 125.578125 24.050781 C 126.664062 24.050781 127.574219 24.867188 127.6875 25.949219 L 138.863281 126.410156 C 139 127.667969 138.015625 128.761719 136.753906 128.761719 Z M 136.753906 128.761719 "/>
</clipPath>
<clipPath id="clip35">
  <path d="M 81 116 L 91 116 L 91 129 L 81 129 Z M 81 116 "/>
</clipPath>
<clipPath id="clip36">
  <path d="M 136.753906 128.761719 L 84.625 128.761719 C 83.539062 128.761719 82.628906 127.945312 82.515625 126.863281 L 71.335938 26.402344 C 71.203125 25.144531 72.1875 24.050781 73.449219 24.050781 L 125.578125 24.050781 C 126.664062 24.050781 127.574219 24.867188 127.6875 25.949219 L 138.863281 126.410156 C 139 127.667969 138.015625 128.761719 136.753906 128.761719 Z M 136.753906 128.761719 "/>
</clipPath>
<clipPath id="clip37">
  <path d="M 109 109 L 126 109 L 126 125 L 109 125 Z M 109 109 "/>
</clipPath>
<clipPath id="clip38">
  <path d="M 136.753906 128.761719 L 84.625 128.761719 C 83.539062 128.761719 82.628906 127.945312 82.515625 126.863281 L 71.335938 26.402344 C 71.203125 25.144531 72.1875 24.050781 73.449219 24.050781 L 125.578125 24.050781 C 126.664062 24.050781 127.574219 24.867188 127.6875 25.949219 L 138.863281 126.410156 C 139 127.667969 138.015625 128.761719 136.753906 128.761719 Z M 136.753906 128.761719 "/>
</clipPath>
<clipPath id="clip39">
  <path d="M 123 120 L 139 120 L 139 129 L 123 129 Z M 123 120 "/>
</clipPath>
<clipPath id="clip40">
  <path d="M 136.753906 128.761719 L 84.625 128.761719 C 83.539062 128.761719 82.628906 127.945312 82.515625 126.863281 L 71.335938 26.402344 C 71.203125 25.144531 72.1875 24.050781 73.449219 24.050781 L 125.578125 24.050781 C 126.664062 24.050781 127.574219 24.867188 127.6875 25.949219 L 138.863281 126.410156 C 139 127.667969 138.015625 128.761719 136.753906 128.761719 Z M 136.753906 128.761719 "/>
</clipPath>
<clipPath id="clip41">
  <path d="M 110 41 L 122 41 L 122 58 L 110 58 Z M 110 41 "/>
</clipPath>
<clipPath id="clip42">
  <path d="M 136.753906 128.761719 L 84.625 128.761719 C 83.539062 128.761719 82.628906 127.945312 82.515625 126.863281 L 71.335938 26.402344 C 71.203125 25.144531 72.1875 24.050781 73.449219 24.050781 L 125.578125 24.050781 C 126.664062 24.050781 127.574219 24.867188 127.6875 25.949219 L 138.863281 126.410156 C 139 127.667969 138.015625 128.761719 136.753906 128.761719 Z M 136.753906 128.761719 "/>
</clipPath>
<clipPath id="clip43">
  <path d="M 114 25 L 123 25 L 123 41 L 114 41 Z M 114 25 "/>
</clipPath>
<clipPath id="clip44">
  <path d="M 136.753906 128.761719 L 84.625 128.761719 C 83.539062 128.761719 82.628906 127.945312 82.515625 126.863281 L 71.335938 26.402344 C 71.203125 25.144531 72.1875 24.050781 73.449219 24.050781 L 125.578125 24.050781 C 126.664062 24.050781 127.574219 24.867188 127.6875 25.949219 L 138.863281 126.410156 C 139 127.667969 138.015625 128.761719 136.753906 128.761719 Z M 136.753906 128.761719 "/>
</clipPath>
<clipPath id="clip45">
  <path d="M 71 24 L 139 24 L 139 129 L 71 129 Z M 71 24 "/>
</clipPath>
<clipPath id="clip46">
  <path d="M 136.753906 128.761719 L 84.625 128.761719 C 83.539062 128.761719 82.628906 127.945312 82.515625 126.863281 L 71.335938 26.402344 C 71.203125 25.144531 72.1875 24.050781 73.449219 24.050781 L 125.578125 24.050781 C 126.664062 24.050781 127.574219 24.867188 127.6875 25.949219 L 138.863281 126.410156 C 139 127.667969 138.015625 128.761719 136.753906 128.761719 Z M 136.753906 128.761719 "/>
</clipPath>
<mask id="mask4">
  <g filter="url(#alpha)">
<rect x="0" y="0" width="274" height="183" style="fill:rgb(0%,0%,0%);fill-opacity:0.501961;stroke:none;"/>
  </g>
</mask>
<clipPath id="clip47">
  <rect x="0" y="0" width="274" height="183"/>
</clipPath>
<g id="surface17" clip-path="url(#clip47)">
<path style=" stroke:none;fill-rule:nonzero;fill:rgb(16.470588%,40%,77.647059%);fill-opacity:1;" d="M 90.171875 22.597656 C 98.730469 28.542969 103.355469 38.609375 100.84375 47.484375 C 98.328125 56.359375 95.695312 60.660156 98.308594 60.292969 C 100.921875 59.929688 107.042969 45.109375 107.90625 37.417969 C 108.679688 30.558594 108.742188 21.863281 108.742188 21.863281 Z M 90.171875 22.597656 "/>
</g>
<clipPath id="clip48">
  <path d="M 96 87 L 139 87 L 139 121 L 96 121 Z M 96 87 "/>
</clipPath>
<clipPath id="clip49">
  <path d="M 136.753906 128.761719 L 84.625 128.761719 C 83.539062 128.761719 82.628906 127.945312 82.515625 126.863281 L 71.335938 26.402344 C 71.203125 25.144531 72.1875 24.050781 73.449219 24.050781 L 125.578125 24.050781 C 126.664062 24.050781 127.574219 24.867188 127.6875 25.949219 L 138.863281 126.410156 C 139 127.667969 138.015625 128.761719 136.753906 128.761719 Z M 136.753906 128.761719 "/>
</clipPath>
<clipPath id="clip50">
  <path d="M 87 99 L 98 99 L 98 129 L 87 129 Z M 87 99 "/>
</clipPath>
<clipPath id="clip51">
  <path d="M 136.753906 128.761719 L 84.625 128.761719 C 83.539062 128.761719 82.628906 127.945312 82.515625 126.863281 L 71.335938 26.402344 C 71.203125 25.144531 72.1875 24.050781 73.449219 24.050781 L 125.578125 24.050781 C 126.664062 24.050781 127.574219 24.867188 127.6875 25.949219 L 138.863281 126.410156 C 139 127.667969 138.015625 128.761719 136.753906 128.761719 Z M 136.753906 128.761719 "/>
</clipPath>
<clipPath id="clip52">
  <path d="M 105 50 L 134 50 L 134 118 L 105 118 Z M 105 50 "/>
</clipPath>
<clipPath id="clip53">
  <path d="M 136.753906 128.761719 L 84.625 128.761719 C 83.539062 128.761719 82.628906 127.945312 82.515625 126.863281 L 71.335938 26.402344 C 71.203125 25.144531 72.1875 24.050781 73.449219 24.050781 L 125.578125 24.050781 C 126.664062 24.050781 127.574219 24.867188 127.6875 25.949219 L 138.863281 126.410156 C 139 127.667969 138.015625 128.761719 136.753906 128.761719 Z M 136.753906 128.761719 "/>
</clipPath>
<clipPath id="clip54">
  <path d="M 128 63 L 138 63 L 138 87 L 128 87 Z M 128 63 "/>
</clipPath>
<clipPath id="clip55">
  <path d="M 136.753906 128.761719 L 84.625 128.761719 C 83.539062 128.761719 82.628906 127.945312 82.515625 126.863281 L 71.335938 26.402344 C 71.203125 25.144531 72.1875 24.050781 73.449219 24.050781 L 125.578125 24.050781 C 126.664062 24.050781 127.574219 24.867188 127.6875 25.949219 L 138.863281 126.410156 C 139 127.667969 138.015625 128.761719 136.753906 128.761719 Z M 136.753906 128.761719 "/>
</clipPath>
<mask id="mask5">
  <g filter="url(#alpha)">
<rect x="0" y="0" width="274" height="183" style="fill:rgb(0%,0%,0%);fill-opacity:0.501961;stroke:none;"/>
  </g>
</mask>
<clipPath id="clip56">
  <rect x="0" y="0" width="274" height="183"/>
</clipPath>
<g id="surface20" clip-path="url(#clip56)">
<path style=" stroke:none;fill-rule:nonzero;fill:rgb(90.980392%,42.352941%,12.156863%);fill-opacity:1;" d="M 210.027344 78.210938 L 206.394531 78.210938 C 206.339844 78.210938 206.292969 78.164062 206.292969 78.109375 L 206.292969 77.605469 C 206.292969 77.550781 206.339844 77.503906 206.394531 77.503906 L 210.027344 77.503906 C 210.085938 77.503906 210.132812 77.550781 210.132812 77.605469 L 210.132812 78.109375 C 210.132812 78.164062 210.085938 78.210938 210.027344 78.210938 Z M 210.027344 78.210938 "/>
<path style=" stroke:none;fill-rule:nonzero;fill:rgb(90.980392%,42.352941%,12.156863%);fill-opacity:1;" d="M 207.253906 74.617188 L 206.8125 75.058594 C 206.746094 75.125 206.792969 75.238281 206.882812 75.238281 L 206.894531 75.238281 C 206.953125 75.238281 207 75.285156 207 75.34375 L 207 77.753906 C 207 77.8125 207.046875 77.859375 207.105469 77.859375 L 207.550781 77.859375 C 207.605469 77.859375 207.652344 77.8125 207.652344 77.753906 L 207.652344 75.34375 C 207.652344 75.285156 207.699219 75.238281 207.757812 75.238281 L 207.769531 75.238281 C 207.863281 75.238281 207.910156 75.125 207.84375 75.058594 L 207.398438 74.617188 C 207.359375 74.574219 207.292969 74.574219 207.253906 74.617188 Z M 207.253906 74.617188 "/>
<path style=" stroke:none;fill-rule:nonzero;fill:rgb(90.980392%,42.352941%,12.156863%);fill-opacity:1;" d="M 209.078125 74.617188 L 208.636719 75.058594 C 208.570312 75.125 208.617188 75.238281 208.707031 75.238281 L 208.71875 75.238281 C 208.777344 75.238281 208.824219 75.285156 208.824219 75.34375 L 208.824219 77.753906 C 208.824219 77.8125 208.871094 77.859375 208.929688 77.859375 L 209.375 77.859375 C 209.433594 77.859375 209.476562 77.8125 209.476562 77.753906 L 209.476562 75.34375 C 209.476562 75.285156 209.523438 75.238281 209.582031 75.238281 L 209.59375 75.238281 C 209.6875 75.238281 209.734375 75.125 209.667969 75.058594 L 209.222656 74.617188 C 209.183594 74.574219 209.121094 74.574219 209.078125 74.617188 Z M 209.078125 74.617188 "/>
</g>
</defs>
<g id="surface1">
<path style=" stroke:none;fill-rule:nonzero;fill:url(#linear0);" d="M 165.699219 34.925781 C 165.800781 34.039062 165.851562 33.140625 165.851562 32.226562 C 165.851562 31.746094 165.835938 31.269531 165.808594 30.792969 L 161.359375 29.351562 C 161.085938 27.472656 160.546875 25.679688 159.785156 24.011719 L 162.734375 20.375 C 162.050781 19.171875 161.269531 18.035156 160.398438 16.972656 L 155.949219 18.429688 C 154.652344 17.101562 153.167969 15.957031 151.542969 15.035156 L 151.796875 10.351562 C 150.554688 9.785156 149.257812 9.324219 147.910156 8.972656 L 145.164062 12.773438 C 144.09375 12.59375 142.992188 12.496094 141.871094 12.496094 C 141.105469 12.496094 140.351562 12.539062 139.609375 12.625 L 137.066406 8.6875 C 135.703125 8.964844 134.382812 9.359375 133.113281 9.855469 L 133.121094 14.546875 C 131.445312 15.382812 129.90625 16.445312 128.542969 17.703125 L 124.175781 16.015625 C 123.25 17.03125 122.40625 18.125 121.664062 19.289062 L 124.417969 23.078125 C 123.566406 24.707031 122.933594 26.46875 122.5625 28.328125 L 118.042969 29.53125 C 117.945312 30.417969 117.890625 31.316406 117.890625 32.226562 C 117.890625 32.710938 117.90625 33.1875 117.9375 33.660156 L 122.386719 35.101562 C 122.660156 36.984375 123.195312 38.773438 123.960938 40.441406 L 121.011719 44.078125 C 121.691406 45.28125 122.476562 46.421875 123.347656 47.480469 L 127.796875 46.027344 C 129.09375 47.355469 130.574219 48.5 132.203125 49.417969 L 131.949219 54.101562 C 133.191406 54.667969 134.488281 55.132812 135.832031 55.480469 L 138.578125 51.683594 C 139.652344 51.863281 140.75 51.960938 141.871094 51.960938 C 142.636719 51.960938 143.390625 51.914062 144.132812 51.828125 L 146.675781 55.769531 C 148.039062 55.488281 149.359375 55.097656 150.628906 54.597656 L 150.625 49.90625 C 152.300781 49.074219 153.839844 48.007812 155.203125 46.753906 L 159.566406 48.441406 C 160.496094 47.425781 161.335938 46.332031 162.082031 45.164062 L 159.324219 41.378906 C 160.179688 39.75 160.8125 37.984375 161.183594 36.128906 Z M 141.871094 41.648438 C 136.679688 41.648438 132.46875 37.433594 132.46875 32.226562 C 132.46875 27.023438 136.675781 22.804688 141.871094 22.804688 C 147.066406 22.804688 151.277344 27.023438 151.277344 32.226562 C 151.277344 37.429688 147.066406 41.648438 141.871094 41.648438 Z M 141.871094 41.648438 "/>
<path style=" stroke:none;fill-rule:nonzero;fill:url(#linear1);" d="M 161.492188 67.699219 C 162.121094 67.902344 162.765625 68.074219 163.429688 68.207031 C 163.78125 68.277344 164.128906 68.339844 164.476562 68.386719 L 166.183594 65.355469 C 167.589844 65.433594 168.972656 65.308594 170.300781 65 L 172.503906 67.691406 C 173.480469 67.371094 174.425781 66.96875 175.324219 66.488281 L 174.925781 63.027344 C 176.085938 62.277344 177.136719 61.367188 178.046875 60.316406 L 181.410156 61.195312 C 182.007812 60.375 182.535156 59.496094 182.988281 58.566406 L 180.636719 56 C 180.925781 55.242188 181.160156 54.457031 181.324219 53.636719 C 181.4375 53.078125 181.515625 52.523438 181.566406 51.96875 L 184.804688 50.695312 C 184.804688 49.660156 184.714844 48.640625 184.539062 47.640625 L 181.128906 46.949219 C 180.773438 45.605469 180.226562 44.324219 179.515625 43.140625 L 181.386719 40.207031 C 180.785156 39.378906 180.117188 38.605469 179.378906 37.890625 L 176.21875 39.335938 C 175.160156 38.472656 173.972656 37.753906 172.679688 37.203125 L 172.472656 33.730469 C 171.84375 33.527344 171.195312 33.355469 170.535156 33.222656 C 170.183594 33.148438 169.835938 33.089844 169.488281 33.039062 L 167.78125 36.074219 C 166.371094 35.996094 164.988281 36.121094 163.664062 36.429688 L 161.457031 33.738281 C 160.484375 34.058594 159.539062 34.460938 158.640625 34.941406 L 159.035156 38.402344 C 157.878906 39.152344 156.828125 40.0625 155.917969 41.113281 L 152.550781 40.234375 C 151.957031 41.054688 151.429688 41.933594 150.972656 42.863281 L 153.328125 45.429688 C 153.039062 46.183594 152.804688 46.972656 152.640625 47.792969 C 152.527344 48.351562 152.445312 48.90625 152.398438 49.460938 L 149.160156 50.734375 C 149.160156 51.769531 149.25 52.789062 149.425781 53.789062 L 152.835938 54.480469 C 153.191406 55.824219 153.738281 57.105469 154.449219 58.289062 L 152.574219 61.222656 C 153.175781 62.050781 153.847656 62.824219 154.582031 63.539062 L 157.746094 62.09375 C 158.804688 62.957031 159.992188 63.675781 161.285156 64.226562 Z M 160.132812 49.320312 C 160.902344 45.53125 164.59375 43.082031 168.375 43.851562 C 172.160156 44.625 174.601562 48.320312 173.832031 52.109375 C 173.0625 55.902344 169.371094 58.347656 165.589844 57.578125 C 161.808594 56.804688 159.363281 53.109375 160.132812 49.320312 Z M 160.132812 49.320312 "/>
<path style=" stroke:none;fill-rule:nonzero;fill:url(#linear2);" d="M 171.730469 120.835938 C 171.730469 120.835938 177.4375 62.761719 208.359375 44.984375 C 239.285156 27.207031 240.863281 24.933594 240.863281 24.933594 C 240.863281 24.933594 242.617188 66.160156 221.925781 91.5 C 201.238281 116.839844 179.253906 121.933594 179.253906 121.933594 Z M 171.730469 120.835938 "/>
<path style=" stroke:none;fill-rule:nonzero;fill:url(#linear3);" d="M 183.679688 122.664062 C 183.679688 122.664062 192.257812 90.914062 217.828125 85.289062 C 243.402344 79.660156 262.183594 86.628906 262.183594 86.628906 C 262.183594 86.628906 248.007812 119.714844 228.160156 121.933594 C 205.796875 124.433594 183.679688 122.664062 183.679688 122.664062 Z M 183.679688 122.664062 "/>
<path style=" stroke:none;fill-rule:nonzero;fill:rgb(39.607843%,67.45098%,89.411765%);fill-opacity:1;" d="M 182.101562 122.824219 C 182 122.824219 181.894531 122.78125 181.820312 122.699219 C 181.671875 122.542969 181.679688 122.300781 181.835938 122.152344 C 181.917969 122.074219 190.222656 114.277344 202.980469 106.453125 C 210.472656 101.859375 218.019531 98.148438 225.40625 95.429688 C 234.648438 92.027344 243.671875 90.175781 252.21875 89.921875 C 252.222656 89.921875 252.226562 89.921875 252.230469 89.921875 C 252.4375 89.921875 252.609375 90.089844 252.617188 90.300781 C 252.625 90.515625 252.457031 90.695312 252.242188 90.699219 C 233.0625 91.265625 215.085938 99.941406 203.382812 107.117188 C 190.695312 114.898438 182.449219 122.640625 182.367188 122.71875 C 182.292969 122.789062 182.195312 122.824219 182.101562 122.824219 Z M 182.101562 122.824219 "/>
<path style=" stroke:none;fill-rule:nonzero;fill:rgb(39.607843%,67.45098%,89.411765%);fill-opacity:1;" d="M 179.023438 119.644531 C 178.980469 119.644531 178.9375 119.636719 178.894531 119.621094 C 178.691406 119.550781 178.585938 119.328125 178.660156 119.125 C 178.71875 118.960938 184.699219 102.167969 195.082031 81.839844 C 197.730469 76.65625 201.226562 71.667969 205.777344 66.589844 C 209.789062 62.113281 214.085938 58.128906 218.246094 54.277344 C 224.703125 48.292969 230.804688 42.644531 234.753906 36.089844 C 234.867188 35.90625 235.105469 35.847656 235.289062 35.957031 C 235.472656 36.066406 235.53125 36.304688 235.417969 36.488281 C 231.410156 43.136719 225.269531 48.828125 218.773438 54.847656 C 210.34375 62.65625 201.625 70.730469 195.773438 82.191406 C 185.414062 102.480469 179.449219 119.21875 179.390625 119.386719 C 179.332031 119.546875 179.183594 119.644531 179.023438 119.644531 Z M 179.023438 119.644531 "/>
<path style=" stroke:none;fill-rule:nonzero;fill:rgb(39.607843%,67.45098%,89.411765%);fill-opacity:1;" d="M 230.617188 118.085938 C 230.519531 118.085938 230.421875 118.046875 230.34375 117.976562 C 230.320312 117.953125 227.875 115.585938 223.445312 113.007812 C 219.359375 110.628906 212.703125 107.574219 204.183594 106.535156 C 203.96875 106.507812 203.820312 106.316406 203.84375 106.101562 C 203.871094 105.886719 204.0625 105.738281 204.277344 105.761719 C 212.941406 106.824219 219.707031 109.929688 223.859375 112.351562 C 228.367188 114.976562 230.785156 117.320312 230.886719 117.417969 C 231.039062 117.566406 231.042969 117.816406 230.894531 117.96875 C 230.816406 118.046875 230.71875 118.085938 230.617188 118.085938 Z M 230.617188 118.085938 "/>
<path style=" stroke:none;fill-rule:nonzero;fill:rgb(39.607843%,67.45098%,89.411765%);fill-opacity:1;" d="M 214.277344 64.859375 C 210.816406 64.859375 208.683594 64.46875 208.578125 64.449219 C 208.367188 64.410156 208.230469 64.207031 208.269531 63.996094 C 208.308594 63.785156 208.511719 63.648438 208.71875 63.6875 C 208.75 63.691406 211.765625 64.242188 216.363281 64.035156 C 220.605469 63.847656 227.097656 62.957031 233.953125 59.792969 C 234.148438 59.703125 234.378906 59.789062 234.46875 59.984375 C 234.558594 60.175781 234.472656 60.410156 234.277344 60.496094 C 227.296875 63.71875 220.6875 64.621094 216.375 64.8125 C 215.632812 64.847656 214.929688 64.859375 214.277344 64.859375 Z M 214.277344 64.859375 "/>
<path style=" stroke:none;fill-rule:nonzero;fill:rgb(39.607843%,67.45098%,89.411765%);fill-opacity:1;" d="M 207.03125 81.117188 C 205.773438 81.117188 204.660156 81.074219 203.695312 81.007812 C 199.082031 80.6875 196.792969 79.8125 196.699219 79.777344 C 196.5 79.699219 196.398438 79.472656 196.476562 79.273438 C 196.554688 79.074219 196.777344 78.976562 196.976562 79.054688 C 197 79.0625 199.285156 79.929688 203.796875 80.234375 C 207.96875 80.519531 214.945312 80.367188 224.507812 78.042969 C 224.71875 77.992188 224.925781 78.117188 224.976562 78.328125 C 225.027344 78.535156 224.898438 78.746094 224.691406 78.796875 C 217.214844 80.613281 211.289062 81.117188 207.03125 81.117188 Z M 207.03125 81.117188 "/>
<path style=" stroke:none;fill-rule:nonzero;fill:url(#linear4);" d="M 204.335938 140.113281 L 149.871094 140.113281 C 148.496094 139.84375 147.199219 138.890625 146.789062 137.757812 C 146.300781 136.421875 147.234375 135.332031 148.859375 135.332031 L 180.046875 135.332031 C 181.671875 135.332031 182.601562 134.238281 182.117188 132.902344 C 181.628906 131.566406 179.902344 130.472656 178.277344 130.472656 L 58.507812 130.472656 C 56.882812 130.472656 55.953125 131.566406 56.4375 132.902344 C 56.925781 134.238281 58.652344 135.332031 60.277344 135.332031 L 72.175781 135.332031 C 73.800781 135.332031 75.527344 136.421875 76.011719 137.757812 C 76.425781 138.886719 75.820312 139.84375 74.644531 140.113281 L 38.453125 140.113281 C 36.828125 140.113281 35.894531 141.203125 36.378906 142.539062 C 36.867188 143.875 38.59375 144.96875 40.21875 144.96875 L 119.382812 144.96875 C 121.007812 144.96875 122.734375 146.0625 123.21875 147.398438 C 123.707031 148.734375 122.773438 149.824219 121.148438 149.824219 L 87.203125 149.824219 C 85.578125 149.824219 84.648438 150.917969 85.132812 152.253906 C 85.617188 153.589844 87.347656 154.683594 88.96875 154.683594 L 178.597656 154.683594 C 180.222656 154.683594 181.152344 153.589844 180.667969 152.253906 C 180.179688 150.917969 178.453125 149.824219 176.832031 149.824219 L 167.84375 149.824219 C 166.21875 149.824219 164.492188 148.734375 164.007812 147.398438 C 163.519531 146.0625 164.453125 144.96875 166.078125 144.96875 L 206.101562 144.96875 C 207.726562 144.96875 208.660156 143.875 208.171875 142.539062 C 207.6875 141.203125 205.957031 140.113281 204.335938 140.113281 Z M 204.335938 140.113281 "/>
<path style=" stroke:none;fill-rule:nonzero;fill:rgb(16.862745%,36.470588%,67.843137%);fill-opacity:1;" d="M 226.382812 131.265625 L 80.710938 131.265625 C 80.066406 131.265625 79.539062 130.738281 79.539062 130.09375 L 79.539062 129.097656 C 79.539062 128.453125 80.066406 127.925781 80.710938 127.925781 L 225.390625 127.925781 C 226.578125 127.925781 227.554688 128.902344 227.554688 130.09375 C 227.554688 130.734375 227.027344 131.265625 226.382812 131.265625 Z M 226.382812 131.265625 "/>
<path style=" stroke:none;fill-rule:nonzero;fill:rgb(16.862745%,36.470588%,67.843137%);fill-opacity:1;" d="M 154.070312 136.957031 L 33.300781 136.957031 C 32.839844 136.957031 32.464844 136.582031 32.464844 136.121094 C 32.464844 135.660156 32.839844 135.285156 33.300781 135.285156 L 154.070312 135.285156 C 154.53125 135.285156 154.902344 135.660156 154.902344 136.121094 C 154.902344 136.582031 154.53125 136.957031 154.070312 136.957031 Z M 154.070312 136.957031 "/>
<path style=" stroke:none;fill-rule:nonzero;fill:rgb(5.490196%,22.745098%,50.980392%);fill-opacity:1;" d="M 169.058594 121.40625 L 66.003906 122.660156 C 61.832031 122.660156 58.453125 119.273438 58.453125 115.09375 L 58.453125 53.796875 C 58.453125 50.40625 61.195312 47.65625 64.582031 47.65625 L 166.1875 47.65625 C 168.460938 47.65625 169.058594 48.25 169.058594 50.535156 Z M 169.058594 121.40625 "/>
<path style=" stroke:none;fill-rule:nonzero;fill:url(#linear5);" d="M 163.023438 120.511719 L 66.0625 120.511719 C 61.859375 120.511719 58.453125 117.097656 58.453125 112.886719 L 58.453125 51.992188 C 58.453125 49.597656 60.390625 47.65625 62.78125 47.65625 L 163.023438 47.65625 Z M 163.023438 120.511719 "/>
<path style=" stroke:none;fill-rule:nonzero;fill:rgb(5.098039%,30.980392%,72.156863%);fill-opacity:1;" d="M 168.5625 53.710938 C 168.5625 52.84375 169.265625 52.136719 170.128906 52.136719 L 183.882812 52.136719 C 190.75 52.136719 192.066406 51.921875 196.503906 57.171875 L 218.78125 80.058594 C 222.355469 84.285156 224.3125 89.644531 224.3125 95.183594 L 224.3125 106 C 224.3125 110.539062 220.636719 114.214844 216.101562 114.207031 L 168.5625 114.101562 Z M 168.5625 53.710938 "/>
<path style=" stroke:none;fill-rule:nonzero;fill:rgb(5.490196%,22.745098%,50.980392%);fill-opacity:1;" d="M 170.308594 122.660156 C 192.878906 122.660156 220.511719 121.742188 223.144531 121.742188 C 225.773438 121.742188 226.222656 103.433594 224.839844 100.796875 C 222.648438 96.621094 219.78125 98.832031 219.195312 104.234375 C 218.613281 109.609375 217.878906 112.515625 217.878906 112.515625 L 200.1875 112.222656 L 166.414062 111.636719 Z M 170.308594 122.660156 "/>
<path style=" stroke:none;fill-rule:nonzero;fill:rgb(100%,76.470588%,30.588235%);fill-opacity:1;" d="M 224.3125 92.351562 C 223.5 85.875 218.789062 82.921875 213.019531 82.941406 C 210.0625 82.949219 217.214844 88.617188 219.992188 94.398438 C 222.386719 99.378906 224.894531 96.996094 224.3125 92.351562 Z M 224.3125 92.351562 "/>
<path style=" stroke:none;fill-rule:nonzero;fill:url(#linear6);" d="M 172.703125 57.148438 C 172.703125 57.148438 191.125 56.855469 193.171875 57.148438 C 195.214844 57.441406 204.574219 66.042969 210.421875 72.800781 C 216.269531 79.558594 216.269531 79.558594 216.269531 79.558594 C 216.269531 79.558594 191.125 78.566406 190.683594 77.601562 C 190.484375 77.160156 183.960938 74.246094 179.425781 72.800781 C 174.894531 71.355469 175.480469 72.234375 173.578125 71.5 C 171.679688 70.769531 172.703125 57.148438 172.703125 57.148438 Z M 172.703125 57.148438 "/>
<path style=" stroke:none;fill-rule:nonzero;fill:rgb(5.490196%,22.745098%,50.980392%);fill-opacity:1;" d="M 196.484375 122.367188 C 197.382812 120.628906 197.878906 118.554688 197.878906 116.125 C 197.878906 106.480469 190.074219 98.664062 180.449219 98.664062 C 170.824219 98.664062 163.023438 106.480469 163.023438 116.125 C 163.023438 118.695312 163.578125 120.863281 164.574219 122.664062 L 170.308594 122.664062 C 178.851562 122.660156 188.121094 122.53125 196.484375 122.367188 Z M 196.484375 122.367188 "/>
<path style=" stroke:none;fill-rule:nonzero;fill:rgb(5.882353%,17.647059%,36.078431%);fill-opacity:1;" d="M 190.277344 106.421875 C 184.847656 100.984375 176.046875 100.984375 170.621094 106.421875 C 165.195312 111.859375 165.195312 120.675781 170.621094 126.113281 C 176.046875 131.550781 184.847656 131.550781 190.277344 126.113281 C 195.703125 120.675781 195.703125 111.859375 190.277344 106.421875 Z M 190.277344 106.421875 "/>
<path style=" stroke:none;fill-rule:nonzero;fill:rgb(16.470588%,40%,77.647059%);fill-opacity:1;" d="M 181.601562 109.179688 C 177.695312 108.546875 174.015625 111.203125 173.382812 115.117188 C 172.75 119.027344 175.402344 122.714844 179.308594 123.351562 C 183.214844 123.984375 186.894531 121.328125 187.527344 117.414062 C 188.160156 113.503906 185.507812 109.816406 181.601562 109.179688 Z M 181.601562 109.179688 "/>
<path style=" stroke:none;fill-rule:nonzero;fill:url(#linear7);" d="M 94.667969 125.410156 C 94.667969 125.410156 89.832031 76.191406 63.621094 61.121094 C 37.410156 46.054688 36.070312 44.125 36.070312 44.125 C 36.070312 44.125 34.585938 79.070312 52.121094 100.546875 C 69.65625 122.023438 88.289062 126.34375 88.289062 126.34375 Z M 94.667969 125.410156 "/>
<path style=" stroke:none;fill-rule:nonzero;fill:url(#linear8);" d="M 84.539062 126.960938 C 84.539062 126.960938 77.269531 100.050781 55.59375 95.28125 C 33.917969 90.511719 21.671875 96.667969 21.671875 96.667969 C 21.671875 96.667969 33.148438 129.054688 49.972656 130.933594 C 68.929688 133.050781 84.539062 126.960938 84.539062 126.960938 Z M 84.539062 126.960938 "/>
<path style=" stroke:none;fill-rule:nonzero;fill:rgb(39.607843%,67.45098%,89.411765%);fill-opacity:1;" d="M 85.878906 127.15625 C 85.78125 127.15625 85.6875 127.121094 85.609375 127.050781 C 85.542969 126.984375 78.546875 120.417969 67.792969 113.824219 C 57.882812 107.75 42.660156 100.40625 26.425781 99.929688 C 26.210938 99.921875 26.042969 99.742188 26.050781 99.527344 C 26.054688 99.3125 26.234375 99.144531 26.449219 99.152344 C 33.699219 99.367188 41.351562 100.9375 49.191406 103.824219 C 55.457031 106.128906 61.855469 109.273438 68.210938 113.171875 C 79.03125 119.804688 86.074219 126.417969 86.140625 126.484375 C 86.296875 126.628906 86.304688 126.875 86.160156 127.03125 C 86.082031 127.113281 85.980469 127.15625 85.878906 127.15625 Z M 85.878906 127.15625 "/>
<path style=" stroke:none;fill-rule:nonzero;fill:rgb(39.607843%,67.45098%,89.411765%);fill-opacity:1;" d="M 88.484375 124.460938 C 88.324219 124.460938 88.175781 124.363281 88.121094 124.203125 C 88.070312 124.0625 83.011719 109.875 74.234375 92.6875 C 69.28125 82.980469 61.898438 76.140625 54.757812 69.523438 C 49.246094 64.417969 44.039062 59.59375 40.636719 53.953125 C 40.523438 53.769531 40.582031 53.53125 40.765625 53.417969 C 40.949219 53.308594 41.1875 53.367188 41.300781 53.550781 C 44.644531 59.097656 49.8125 63.886719 55.28125 68.953125 C 62.472656 75.617188 69.910156 82.503906 74.925781 92.332031 C 83.726562 109.570312 88.800781 123.800781 88.851562 123.945312 C 88.921875 124.144531 88.816406 124.367188 88.613281 124.441406 C 88.570312 124.457031 88.527344 124.460938 88.484375 124.460938 Z M 88.484375 124.460938 "/>
<path style=" stroke:none;fill-rule:nonzero;fill:rgb(39.607843%,67.45098%,89.411765%);fill-opacity:1;" d="M 34.457031 112.800781 C 34.324219 112.800781 34.195312 112.734375 34.121094 112.609375 C 34.011719 112.425781 34.074219 112.1875 34.261719 112.078125 C 40.011719 108.691406 45.539062 107.363281 49.167969 106.851562 C 53.101562 106.292969 55.644531 106.535156 55.753906 106.542969 C 55.964844 106.566406 56.121094 106.753906 56.101562 106.96875 C 56.078125 107.183594 55.886719 107.335938 55.675781 107.316406 C 55.648438 107.316406 53.097656 107.074219 49.246094 107.625 C 45.699219 108.128906 40.285156 109.429688 34.652344 112.75 C 34.589844 112.785156 34.523438 112.800781 34.457031 112.800781 Z M 34.457031 112.800781 "/>
<path style=" stroke:none;fill-rule:nonzero;fill:rgb(39.607843%,67.45098%,89.411765%);fill-opacity:1;" d="M 44.757812 123.140625 C 44.65625 123.140625 44.554688 123.101562 44.476562 123.023438 C 44.328125 122.871094 44.332031 122.625 44.484375 122.472656 C 44.570312 122.390625 46.628906 120.398438 50.453125 118.167969 C 53.976562 116.117188 59.722656 113.476562 67.074219 112.578125 C 67.285156 112.550781 67.480469 112.703125 67.507812 112.917969 C 67.53125 113.128906 67.382812 113.324219 67.167969 113.347656 C 59.945312 114.230469 54.304688 116.824219 50.84375 118.839844 C 47.101562 121.023438 45.046875 123.011719 45.027344 123.03125 C 44.949219 123.105469 44.851562 123.140625 44.757812 123.140625 Z M 44.757812 123.140625 "/>
<path style=" stroke:none;fill-rule:nonzero;fill:rgb(39.607843%,67.45098%,89.411765%);fill-opacity:1;" d="M 58.601562 78.027344 C 58.046875 78.027344 57.457031 78.015625 56.824219 77.988281 C 53.164062 77.824219 47.554688 77.058594 41.628906 74.324219 C 41.433594 74.234375 41.347656 74.003906 41.4375 73.808594 C 41.527344 73.613281 41.757812 73.53125 41.953125 73.617188 C 47.765625 76.300781 53.265625 77.054688 56.859375 77.210938 C 60.746094 77.382812 63.28125 76.917969 63.304688 76.914062 C 63.515625 76.875 63.71875 77.015625 63.757812 77.226562 C 63.796875 77.433594 63.65625 77.636719 63.449219 77.679688 C 63.355469 77.695312 61.542969 78.027344 58.601562 78.027344 Z M 58.601562 78.027344 "/>
<path style=" stroke:none;fill-rule:nonzero;fill:rgb(39.607843%,67.45098%,89.411765%);fill-opacity:1;" d="M 64.746094 91.804688 C 61.132812 91.804688 56.105469 91.378906 49.761719 89.835938 C 49.554688 89.785156 49.425781 89.574219 49.476562 89.367188 C 49.527344 89.160156 49.738281 89.03125 49.945312 89.082031 C 65.46875 92.855469 73.167969 89.972656 73.246094 89.941406 C 73.445312 89.863281 73.671875 89.964844 73.746094 90.164062 C 73.824219 90.363281 73.726562 90.589844 73.527344 90.667969 C 73.445312 90.699219 71.5 91.441406 67.578125 91.710938 C 66.761719 91.769531 65.816406 91.804688 64.746094 91.804688 Z M 64.746094 91.804688 "/>
<path style=" stroke:none;fill-rule:nonzero;fill:rgb(92.156863%,61.176471%,38.823529%);fill-opacity:1;" d="M 168.457031 131.785156 L 132.253906 131.785156 C 132.195312 131.785156 132.148438 131.738281 132.148438 131.683594 L 132.148438 111.542969 C 132.148438 111.488281 132.195312 111.441406 132.253906 111.441406 L 168.1875 111.441406 C 168.394531 111.441406 168.5625 111.609375 168.5625 111.816406 L 168.5625 131.683594 C 168.5625 131.738281 168.515625 131.785156 168.457031 131.785156 Z M 168.457031 131.785156 "/>
<path style=" stroke:none;fill-rule:nonzero;fill:rgb(94.117647%,70.980392%,53.72549%);fill-opacity:1;" d="M 157.988281 131.785156 L 121.78125 131.785156 C 121.726562 131.785156 121.679688 131.738281 121.679688 131.683594 L 121.679688 111.542969 C 121.679688 111.488281 121.726562 111.441406 121.78125 111.441406 L 157.988281 111.441406 C 158.046875 111.441406 158.09375 111.488281 158.09375 111.542969 L 158.09375 131.683594 C 158.09375 131.738281 158.046875 131.785156 157.988281 131.785156 Z M 157.988281 131.785156 "/>
<use xlink:href="#surface5" mask="url(#mask0)"/>
<path style=" stroke:none;fill-rule:nonzero;fill:rgb(92.156863%,61.176471%,38.823529%);fill-opacity:1;" d="M 156.488281 131.785156 L 120.285156 131.785156 C 120.226562 131.785156 120.179688 131.738281 120.179688 131.683594 L 120.179688 111.542969 C 120.179688 111.488281 120.226562 111.441406 120.285156 111.441406 L 156.488281 111.441406 C 156.546875 111.441406 156.59375 111.488281 156.59375 111.542969 L 156.59375 131.683594 C 156.59375 131.738281 156.546875 131.785156 156.488281 131.785156 Z M 156.488281 131.785156 "/>
<path style=" stroke:none;fill-rule:nonzero;fill:rgb(94.117647%,70.980392%,53.72549%);fill-opacity:1;" d="M 146.019531 131.785156 L 109.816406 131.785156 C 109.757812 131.785156 109.710938 131.738281 109.710938 131.683594 L 109.710938 111.542969 C 109.710938 111.488281 109.757812 111.441406 109.816406 111.441406 L 146.019531 111.441406 C 146.078125 111.441406 146.125 111.488281 146.125 111.542969 L 146.125 131.683594 C 146.125 131.738281 146.078125 131.785156 146.019531 131.785156 Z M 146.019531 131.785156 "/>
<use xlink:href="#surface8" mask="url(#mask1)"/>
<path style=" stroke:none;fill-rule:nonzero;fill:rgb(94.117647%,62.745098%,39.607843%);fill-opacity:1;" d="M 159.457031 111.734375 L 124.457031 111.734375 C 124.398438 111.734375 124.351562 111.6875 124.351562 111.628906 L 124.351562 92.164062 C 124.351562 92.105469 124.398438 92.058594 124.457031 92.058594 L 159.1875 92.058594 C 159.394531 92.058594 159.5625 92.226562 159.5625 92.4375 L 159.5625 111.628906 C 159.5625 111.6875 159.515625 111.734375 159.457031 111.734375 Z M 159.457031 111.734375 "/>
<path style=" stroke:none;fill-rule:nonzero;fill:rgb(94.117647%,70.980392%,53.72549%);fill-opacity:1;" d="M 149.335938 111.058594 L 114.332031 111.058594 C 114.277344 111.058594 114.230469 111.015625 114.230469 110.957031 L 114.230469 92.160156 C 114.230469 92.105469 114.277344 92.058594 114.332031 92.058594 L 149.335938 92.058594 C 149.394531 92.058594 149.441406 92.105469 149.441406 92.160156 L 149.441406 110.957031 C 149.4375 111.015625 149.394531 111.058594 149.335938 111.058594 Z M 149.335938 111.058594 "/>
<use xlink:href="#surface11" mask="url(#mask2)"/>
<path style=" stroke:none;fill-rule:nonzero;fill:rgb(10.196078%,28.235294%,56.862745%);fill-opacity:1;" d="M 140.558594 136.3125 L 78.253906 136.3125 C 77.003906 136.3125 75.957031 135.367188 75.824219 134.125 L 63.925781 22.714844 C 63.769531 21.265625 64.902344 20.003906 66.355469 20.003906 L 128.660156 20.003906 C 129.910156 20.003906 130.957031 20.945312 131.089844 22.191406 L 142.988281 133.601562 C 143.144531 135.050781 142.011719 136.3125 140.558594 136.3125 Z M 140.558594 136.3125 "/>
<path style=" stroke:none;fill-rule:nonzero;fill:url(#linear9);" d="M 136.753906 129.078125 L 84.625 129.078125 C 83.539062 129.078125 82.628906 128.257812 82.515625 127.175781 L 71.335938 26.714844 C 71.203125 25.460938 72.1875 24.363281 73.449219 24.363281 L 125.578125 24.363281 C 126.664062 24.363281 127.574219 25.183594 127.6875 26.265625 L 138.863281 126.726562 C 139 127.980469 138.015625 129.078125 136.753906 129.078125 Z M 136.753906 129.078125 "/>
<path style=" stroke:none;fill-rule:nonzero;fill:rgb(5.882353%,17.647059%,36.078431%);fill-opacity:1;" d="M 78.609375 136.3125 L 76.414062 136.3125 C 75.582031 136.3125 74.882812 135.683594 74.789062 134.855469 L 62.421875 21.988281 C 62.304688 20.929688 63.132812 20.003906 64.195312 20.003906 L 66.082031 20.003906 C 66.992188 20.003906 67.757812 20.691406 67.855469 21.597656 L 80.230469 134.5 C 80.335938 135.464844 79.582031 136.3125 78.609375 136.3125 Z M 78.609375 136.3125 "/>
<path style=" stroke:none;fill-rule:nonzero;fill:rgb(5.882353%,17.647059%,36.078431%);fill-opacity:1;" d="M 121.660156 133.109375 L 110.5625 133.109375 C 110.226562 133.109375 109.945312 132.828125 109.945312 132.488281 C 109.945312 132.152344 110.226562 131.871094 110.5625 131.871094 L 121.660156 131.871094 C 122 131.871094 122.277344 132.152344 122.277344 132.488281 C 122.277344 132.832031 122 133.109375 121.660156 133.109375 Z M 121.660156 133.109375 "/>
<path style=" stroke:none;fill-rule:nonzero;fill:rgb(5.882353%,17.647059%,36.078431%);fill-opacity:1;" d="M 109 23 C 108.5625 23 108.207031 22.640625 108.207031 22.207031 C 108.207031 21.769531 108.5625 21.410156 109 21.410156 C 109.433594 21.410156 109.789062 21.769531 109.789062 22.207031 C 109.789062 22.640625 109.433594 23 109 23 Z M 109 23 "/>
<path style=" stroke:none;fill-rule:nonzero;fill:rgb(5.882353%,17.647059%,36.078431%);fill-opacity:1;" d="M 112.101562 23 C 111.667969 23 111.3125 22.640625 111.3125 22.207031 C 111.3125 21.769531 111.667969 21.410156 112.101562 21.410156 C 112.539062 21.410156 112.894531 21.769531 112.894531 22.207031 C 112.894531 22.640625 112.539062 23 112.101562 23 Z M 112.101562 23 "/>
<path style=" stroke:none;fill-rule:nonzero;fill:rgb(5.882353%,17.647059%,36.078431%);fill-opacity:1;" d="M 104.066406 23 L 95.542969 23 C 95.105469 23 94.75 22.640625 94.75 22.207031 C 94.75 21.769531 95.105469 21.410156 95.542969 21.410156 L 104.066406 21.410156 C 104.5 21.410156 104.859375 21.769531 104.859375 22.207031 C 104.859375 22.640625 104.5 23 104.066406 23 Z M 104.066406 23 "/>
<g clip-path="url(#clip4)" clip-rule="nonzero">
<g clip-path="url(#clip5)" clip-rule="nonzero">
<path style=" stroke:none;fill-rule:nonzero;fill:url(#linear10);" d="M 136.753906 128.761719 L 84.625 128.761719 C 83.539062 128.761719 82.628906 127.945312 82.515625 126.863281 L 71.335938 26.402344 C 71.203125 25.144531 72.1875 24.050781 73.449219 24.050781 L 125.578125 24.050781 C 126.664062 24.050781 127.574219 24.867188 127.6875 25.949219 L 138.863281 126.410156 C 139 127.667969 138.015625 128.761719 136.753906 128.761719 Z M 136.753906 128.761719 "/>
<use xlink:href="#surface14" mask="url(#mask3)"/>
</g>
</g>
<g clip-path="url(#clip7)" clip-rule="nonzero">
<g clip-path="url(#clip8)" clip-rule="nonzero">
<path style=" stroke:none;fill-rule:nonzero;fill:rgb(47.45098%,76.470588%,94.117647%);fill-opacity:1;" d="M 73.527344 91.109375 L 72.453125 88.585938 C 77.390625 86.476562 88.144531 79.683594 97.128906 67.617188 C 104.261719 58.035156 112.328125 42.140625 110.246094 20.808594 L 112.972656 20.542969 C 113.902344 30.074219 112.972656 39.359375 110.210938 48.148438 C 107.863281 55.609375 104.199219 62.710938 99.328125 69.257812 C 95.386719 74.550781 90.585938 79.519531 85.445312 83.625 C 81.347656 86.898438 77.007812 89.625 73.527344 91.109375 Z M 73.527344 91.109375 "/>
</g>
</g>
<g clip-path="url(#clip9)" clip-rule="nonzero">
<g clip-path="url(#clip10)" clip-rule="nonzero">
<path style=" stroke:none;fill-rule:nonzero;fill:rgb(47.45098%,76.470588%,94.117647%);fill-opacity:1;" d="M 133.238281 137.441406 C 124.539062 132.707031 116.210938 127.128906 108.488281 120.863281 C 102.3125 115.851562 96.503906 110.386719 91.230469 104.628906 C 82.230469 94.800781 77.953125 87.605469 77.777344 87.304688 L 80.136719 85.910156 C 80.179688 85.980469 84.484375 93.210938 93.3125 102.839844 C 101.449219 111.714844 115.207031 124.507812 134.546875 135.03125 Z M 133.238281 137.441406 "/>
</g>
</g>
<g clip-path="url(#clip11)" clip-rule="nonzero">
<g clip-path="url(#clip12)" clip-rule="nonzero">
<path style=" stroke:none;fill-rule:nonzero;fill:rgb(47.45098%,76.470588%,94.117647%);fill-opacity:1;" d="M 81.757812 61.164062 C 76.730469 61.164062 71.839844 59.207031 67.984375 55.65625 C 64.128906 52.105469 61.765625 47.378906 61.324219 42.34375 C 60.878906 37.25 62.453125 32.460938 65.753906 28.851562 C 69.035156 25.261719 73.632812 23.285156 78.691406 23.285156 C 83.71875 23.285156 88.613281 25.242188 92.464844 28.792969 C 96.320312 32.34375 98.6875 37.070312 99.125 42.105469 C 99.570312 47.199219 97.996094 51.988281 94.695312 55.597656 C 91.414062 59.1875 86.820312 61.164062 81.757812 61.164062 Z M 78.691406 26.03125 C 74.410156 26.03125 70.53125 27.691406 67.773438 30.707031 C 65 33.738281 63.675781 37.789062 64.054688 42.105469 C 64.839844 51.101562 72.78125 58.421875 81.757812 58.421875 C 86.042969 58.421875 89.917969 56.757812 92.675781 53.742188 C 95.453125 50.710938 96.773438 46.660156 96.394531 42.34375 C 95.609375 33.347656 87.667969 26.03125 78.691406 26.03125 Z M 78.691406 26.03125 "/>
</g>
</g>
<g clip-path="url(#clip13)" clip-rule="nonzero">
<g clip-path="url(#clip14)" clip-rule="nonzero">
<path style=" stroke:none;fill-rule:nonzero;fill:rgb(61.176471%,83.137255%,60%);fill-opacity:1;" d="M 87.792969 34.304688 C 83.027344 29.734375 75.777344 29.578125 71.597656 33.949219 C 67.421875 38.324219 67.894531 45.574219 72.660156 50.144531 C 77.425781 54.710938 84.675781 54.871094 88.855469 50.496094 C 93.035156 46.125 92.558594 38.875 87.792969 34.304688 Z M 87.792969 34.304688 "/>
</g>
</g>
<g clip-path="url(#clip15)" clip-rule="nonzero">
<g clip-path="url(#clip16)" clip-rule="nonzero">
<path style=" stroke:none;fill-rule:nonzero;fill:rgb(47.45098%,76.470588%,94.117647%);fill-opacity:1;" d="M 140.804688 92.535156 C 133.835938 90.449219 127.234375 87.917969 121.175781 85.015625 C 116.320312 82.691406 111.800781 80.121094 107.746094 77.375 C 100.789062 72.671875 97.617188 69.105469 97.488281 68.957031 L 97.445312 68.914062 L 97.410156 68.867188 C 94.296875 64.648438 92.457031 61.546875 91.039062 56.3125 L 93.683594 55.59375 C 94.988281 60.414062 96.628906 63.179688 99.574219 67.179688 C 99.933594 67.570312 103.058594 70.90625 109.390625 75.175781 C 115.582031 79.351562 126.195312 85.292969 141.585938 89.902344 Z M 140.804688 92.535156 "/>
</g>
</g>
<g clip-path="url(#clip17)" clip-rule="nonzero">
<g clip-path="url(#clip18)" clip-rule="nonzero">
<path style=" stroke:none;fill-rule:nonzero;fill:rgb(16.470588%,40%,77.647059%);fill-opacity:1;" d="M 116.3125 60.175781 L 108.585938 71.851562 L 102.601562 67.628906 L 110.328125 55.953125 Z M 116.3125 60.175781 "/>
</g>
</g>
<g clip-path="url(#clip19)" clip-rule="nonzero">
<g clip-path="url(#clip20)" clip-rule="nonzero">
<path style=" stroke:none;fill-rule:nonzero;fill:rgb(16.470588%,40%,77.647059%);fill-opacity:1;" d="M 104.167969 76.96875 L 94.765625 87.289062 L 89.363281 82.316406 L 98.765625 71.992188 Z M 104.167969 76.96875 "/>
</g>
</g>
<g clip-path="url(#clip21)" clip-rule="nonzero">
<g clip-path="url(#clip22)" clip-rule="nonzero">
<path style=" stroke:none;fill-rule:nonzero;fill:rgb(16.470588%,40%,77.647059%);fill-opacity:1;" d="M 95.65625 67.769531 L 85.132812 76.949219 L 80.238281 71.480469 L 90.761719 62.296875 Z M 95.65625 67.769531 "/>
</g>
</g>
<g clip-path="url(#clip23)" clip-rule="nonzero">
<g clip-path="url(#clip24)" clip-rule="nonzero">
<path style=" stroke:none;fill-rule:nonzero;fill:rgb(16.470588%,40%,77.647059%);fill-opacity:1;" d="M 83.394531 78.460938 L 72.867188 87.640625 L 67.976562 82.171875 L 78.5 72.992188 Z M 83.394531 78.460938 "/>
</g>
</g>
<g clip-path="url(#clip25)" clip-rule="nonzero">
<g clip-path="url(#clip26)" clip-rule="nonzero">
<path style=" stroke:none;fill-rule:nonzero;fill:rgb(16.470588%,40%,77.647059%);fill-opacity:1;" d="M 92.027344 100.285156 L 82.484375 88.4375 L 87.828125 84.328125 L 97.371094 96.179688 Z M 92.027344 100.285156 "/>
</g>
</g>
<g clip-path="url(#clip27)" clip-rule="nonzero">
<g clip-path="url(#clip28)" clip-rule="nonzero">
<path style=" stroke:none;fill-rule:nonzero;fill:rgb(16.470588%,40%,77.647059%);fill-opacity:1;" d="M 106.132812 112.359375 L 94.339844 102.730469 L 98.511719 97.441406 L 110.304688 107.074219 Z M 106.132812 112.359375 "/>
</g>
</g>
<g clip-path="url(#clip29)" clip-rule="nonzero">
<g clip-path="url(#clip30)" clip-rule="nonzero">
<path style=" stroke:none;fill-rule:nonzero;fill:rgb(16.470588%,40%,77.647059%);fill-opacity:1;" d="M 113.671875 90.976562 L 101.253906 82.214844 L 104.976562 76.589844 L 117.394531 85.351562 Z M 113.671875 90.976562 "/>
</g>
</g>
<g clip-path="url(#clip31)" clip-rule="nonzero">
<g clip-path="url(#clip32)" clip-rule="nonzero">
<path style=" stroke:none;fill-rule:nonzero;fill:rgb(16.470588%,40%,77.647059%);fill-opacity:1;" d="M 132.347656 100.125 L 118.65625 93.816406 L 121.136719 87.472656 L 134.828125 93.78125 Z M 132.347656 100.125 "/>
</g>
</g>
<g clip-path="url(#clip33)" clip-rule="nonzero">
<g clip-path="url(#clip34)" clip-rule="nonzero">
<path style=" stroke:none;fill-rule:nonzero;fill:rgb(16.470588%,40%,77.647059%);fill-opacity:1;" d="M 80.644531 114.113281 L 78.453125 99.546875 L 85.421875 99.101562 L 87.613281 113.667969 Z M 80.644531 114.113281 "/>
</g>
</g>
<g clip-path="url(#clip35)" clip-rule="nonzero">
<g clip-path="url(#clip36)" clip-rule="nonzero">
<path style=" stroke:none;fill-rule:nonzero;fill:rgb(16.470588%,40%,77.647059%);fill-opacity:1;" d="M 83.265625 131.542969 L 81.074219 116.976562 L 88.042969 116.53125 L 90.238281 131.097656 Z M 83.265625 131.542969 "/>
</g>
</g>
<g clip-path="url(#clip37)" clip-rule="nonzero">
<g clip-path="url(#clip38)" clip-rule="nonzero">
<path style=" stroke:none;fill-rule:nonzero;fill:rgb(16.470588%,40%,77.647059%);fill-opacity:1;" d="M 121.351562 124.789062 L 109.558594 115.160156 L 113.730469 109.875 L 125.519531 119.503906 Z M 121.351562 124.789062 "/>
</g>
</g>
<g clip-path="url(#clip39)" clip-rule="nonzero">
<g clip-path="url(#clip40)" clip-rule="nonzero">
<path style=" stroke:none;fill-rule:nonzero;fill:rgb(16.470588%,40%,77.647059%);fill-opacity:1;" d="M 135.8125 134.425781 L 123.394531 125.664062 L 127.117188 120.035156 L 139.535156 128.800781 Z M 135.8125 134.425781 "/>
</g>
</g>
<g clip-path="url(#clip41)" clip-rule="nonzero">
<g clip-path="url(#clip42)" clip-rule="nonzero">
<path style=" stroke:none;fill-rule:nonzero;fill:rgb(16.470588%,40%,77.647059%);fill-opacity:1;" d="M 121.074219 43.367188 L 117.574219 57.179688 L 110.730469 54.90625 L 114.234375 41.089844 Z M 121.074219 43.367188 "/>
</g>
</g>
<g clip-path="url(#clip43)" clip-rule="nonzero">
<g clip-path="url(#clip44)" clip-rule="nonzero">
<path style=" stroke:none;fill-rule:nonzero;fill:rgb(16.470588%,40%,77.647059%);fill-opacity:1;" d="M 122.636719 26.351562 L 121.273438 40.710938 L 114.253906 39.449219 L 115.621094 25.085938 Z M 122.636719 26.351562 "/>
</g>
</g>
<g clip-path="url(#clip45)" clip-rule="nonzero">
<g clip-path="url(#clip46)" clip-rule="nonzero">
<use xlink:href="#surface17" mask="url(#mask4)"/>
</g>
</g>
<g clip-path="url(#clip48)" clip-rule="nonzero">
<g clip-path="url(#clip49)" clip-rule="nonzero">
<path style=" stroke:none;fill-rule:nonzero;fill:rgb(61.176471%,83.137255%,60%);fill-opacity:1;" d="M 138.910156 104.902344 C 125.566406 102.699219 104.238281 88.839844 101.699219 87.328125 C 99.160156 85.820312 96.101562 90.011719 97.125 92.308594 C 98.144531 94.601562 125.042969 115.503906 134.058594 119.945312 C 143.078125 124.382812 138.910156 104.902344 138.910156 104.902344 Z M 138.910156 104.902344 "/>
</g>
</g>
<g clip-path="url(#clip50)" clip-rule="nonzero">
<g clip-path="url(#clip51)" clip-rule="nonzero">
<path style=" stroke:none;fill-rule:nonzero;fill:rgb(47.45098%,76.470588%,94.117647%);fill-opacity:1;" d="M 96.210938 138.5625 C 95.886719 137.507812 88.261719 112.519531 87.140625 99.671875 L 88.957031 99.511719 C 90.0625 112.167969 97.878906 137.769531 97.957031 138.027344 Z M 96.210938 138.5625 "/>
</g>
</g>
<g clip-path="url(#clip52)" clip-rule="nonzero">
<g clip-path="url(#clip53)" clip-rule="nonzero">
<path style=" stroke:none;fill-rule:nonzero;fill:rgb(47.45098%,76.470588%,94.117647%);fill-opacity:1;" d="M 106.265625 117.625 L 105.347656 116.042969 C 106.789062 115.203125 108.445312 112.542969 110.273438 108.144531 C 111.964844 104.066406 113.601562 99.03125 115.179688 94.164062 C 116.5625 89.902344 117.871094 85.878906 119.15625 82.648438 C 119.304688 82.039062 120.472656 77.335938 122.507812 71.324219 C 124.515625 65.386719 127.808594 56.910156 132.097656 50.238281 L 133.632812 51.230469 C 125.609375 63.71875 120.964844 82.949219 120.917969 83.140625 L 120.902344 83.207031 L 120.875 83.269531 C 119.605469 86.449219 118.300781 90.472656 116.917969 94.730469 C 115.324219 99.632812 113.679688 104.703125 111.960938 108.847656 C 109.921875 113.757812 108.109375 116.546875 106.265625 117.625 Z M 106.265625 117.625 "/>
</g>
</g>
<g clip-path="url(#clip54)" clip-rule="nonzero">
<g clip-path="url(#clip55)" clip-rule="nonzero">
<path style=" stroke:none;fill-rule:nonzero;fill:rgb(47.45098%,76.470588%,94.117647%);fill-opacity:1;" d="M 128.097656 86.609375 C 128.097656 86.261719 128.148438 77.921875 136.09375 63.460938 L 137.691406 64.34375 C 129.976562 78.390625 129.925781 86.519531 129.925781 86.601562 Z M 128.097656 86.609375 "/>
</g>
</g>
<path style=" stroke:none;fill-rule:nonzero;fill:rgb(95.294118%,44.313725%,40.784314%);fill-opacity:1;" d="M 127.300781 91.503906 C 127.300781 91.894531 126.25 92.214844 124.957031 92.214844 C 123.660156 92.214844 122.613281 91.894531 122.613281 91.503906 C 122.613281 91.109375 123.660156 90.789062 124.957031 90.789062 C 126.25 90.789062 127.300781 91.109375 127.300781 91.503906 Z M 127.300781 91.503906 "/>
<path style=" stroke:none;fill-rule:nonzero;fill:rgb(83.529412%,29.019608%,25.490196%);fill-opacity:1;" d="M 122.277344 35.347656 C 113.035156 35.695312 105.53125 42.859375 105.53125 52.121094 C 105.53125 61.386719 123.6875 88.753906 123.6875 88.753906 C 123.6875 88.753906 125.054688 89.980469 126.429688 88.753906 C 130.253906 82.300781 139.019531 59.878906 139.019531 52.121094 C 139.019531 42.859375 136.746094 34.804688 122.277344 35.347656 Z M 122.277344 58.796875 C 119.035156 58.796875 116.40625 56.164062 116.40625 52.917969 C 116.40625 49.667969 119.035156 47.039062 122.277344 47.039062 C 125.515625 47.039062 128.144531 49.667969 128.144531 52.917969 C 128.144531 56.164062 125.515625 58.796875 122.277344 58.796875 Z M 122.277344 58.796875 "/>
<path style=" stroke:none;fill-rule:nonzero;fill:rgb(95.294118%,44.313725%,40.784314%);fill-opacity:1;" d="M 126.429688 35.347656 C 117.183594 35.347656 109.6875 42.859375 109.6875 52.121094 C 109.6875 61.386719 126.429688 88.753906 126.429688 88.753906 C 126.429688 88.753906 143.171875 61.386719 143.171875 52.121094 C 143.171875 42.859375 135.675781 35.347656 126.429688 35.347656 Z M 126.429688 58.796875 C 123.1875 58.796875 120.5625 56.164062 120.5625 52.917969 C 120.5625 49.667969 123.191406 47.039062 126.429688 47.039062 C 129.671875 47.039062 132.296875 49.667969 132.296875 52.917969 C 132.296875 56.164062 129.671875 58.796875 126.429688 58.796875 Z M 126.429688 58.796875 "/>
<path style=" stroke:none;fill-rule:nonzero;fill:rgb(5.882353%,17.647059%,36.078431%);fill-opacity:1;" d="M 46.292969 132.066406 C 46.292969 132.066406 42.339844 134.230469 41.164062 134.175781 C 39.988281 134.121094 40.09375 135.320312 43.183594 135.546875 C 46.273438 135.773438 47.796875 136.300781 48.515625 135.621094 C 49.238281 134.941406 49.152344 133.042969 48.628906 132.144531 C 48.109375 131.246094 46.292969 132.066406 46.292969 132.066406 Z M 46.292969 132.066406 "/>
<path style=" stroke:none;fill-rule:nonzero;fill:rgb(5.882353%,17.647059%,36.078431%);fill-opacity:1;" d="M 67.101562 131.089844 C 67.101562 131.089844 67.085938 134.515625 65.972656 135.15625 C 64.859375 135.792969 63.507812 136.667969 66.003906 136.835938 C 68.5 137.003906 69.242188 135.875 70.101562 134.722656 C 70.964844 133.566406 71.839844 132.683594 70.785156 131.792969 C 69.730469 130.902344 69.730469 130.128906 69.519531 130.113281 C 69.304688 130.097656 67.101562 131.089844 67.101562 131.089844 Z M 67.101562 131.089844 "/>
<path style=" stroke:none;fill-rule:nonzero;fill:rgb(5.490196%,22.745098%,50.980392%);fill-opacity:1;" d="M 54.503906 98.078125 C 53.15625 118.121094 66.664062 132.992188 66.664062 132.992188 C 66.664062 132.992188 70.175781 132.011719 70.371094 130.738281 C 70.5625 129.46875 65.4375 119.914062 65.898438 113.089844 C 66.355469 106.269531 67.28125 92.519531 67.28125 92.519531 Z M 54.503906 98.078125 "/>
<path style=" stroke:none;fill-rule:nonzero;fill:rgb(5.882353%,17.647059%,36.078431%);fill-opacity:1;" d="M 67.28125 92.519531 C 67.28125 92.519531 66.621094 102.359375 66.136719 109.523438 C 63.09375 115.429688 61.710938 121.089844 61.304688 125.300781 C 57.703125 119.027344 53.742188 109.375 54.503906 98.078125 Z M 67.28125 92.519531 "/>
<path style=" stroke:none;fill-rule:nonzero;fill:rgb(5.490196%,22.745098%,50.980392%);fill-opacity:1;" d="M 67.507812 89.105469 C 65.757812 104.746094 50.066406 133.941406 49.039062 134.300781 C 48.015625 134.660156 44.792969 133.707031 45.085938 132.699219 C 52.011719 108.640625 53.148438 89.636719 53.148438 89.636719 Z M 67.507812 89.105469 "/>
<path style=" stroke:none;fill-rule:nonzero;fill:rgb(14.509804%,31.372549%,58.823529%);fill-opacity:1;" d="M 52.976562 66.765625 C 52.976562 66.765625 52.164062 67.429688 51.238281 66.902344 C 50.308594 66.375 46.980469 63.664062 47.128906 63.066406 C 47.273438 62.472656 48.917969 62.4375 48.917969 62.4375 C 48.917969 62.4375 53.710938 66.785156 52.976562 66.765625 Z M 52.976562 66.765625 "/>
<path style=" stroke:none;fill-rule:nonzero;fill:rgb(100%,76.470588%,30.588235%);fill-opacity:1;" d="M 52.0625 66.609375 C 52.726562 66.550781 50.683594 64.683594 50.027344 63.925781 C 49.367188 63.167969 48.933594 62.804688 48.933594 62.804688 C 48.933594 62.804688 47.71875 62.871094 47.703125 63.105469 C 47.6875 63.339844 50.960938 66.339844 50.960938 66.339844 C 50.960938 66.339844 51.765625 66.636719 52.0625 66.609375 Z M 52.0625 66.609375 "/>
<path style=" stroke:none;fill-rule:nonzero;fill:rgb(94.117647%,60%,34.901961%);fill-opacity:1;" d="M 56.089844 69.988281 C 56.089844 69.988281 54.972656 67.769531 54.40625 67.160156 C 53.84375 66.550781 51.882812 65.3125 51.574219 65.285156 C 51.046875 65.238281 53.28125 66.976562 53.28125 66.976562 C 53.28125 66.976562 52.824219 69.015625 53.054688 69.78125 C 53.289062 70.546875 56.199219 71.746094 56.199219 71.746094 Z M 56.089844 69.988281 "/>
<path style=" stroke:none;fill-rule:nonzero;fill:rgb(56.862745%,83.529412%,100%);fill-opacity:1;" d="M 58.277344 72.382812 C 58.277344 72.382812 56.429688 69.15625 55.953125 69.335938 C 55.480469 69.519531 54.058594 72.101562 54.058594 72.101562 C 54.058594 72.101562 57.421875 76.113281 57.46875 75.402344 C 57.519531 74.6875 58.277344 72.382812 58.277344 72.382812 Z M 58.277344 72.382812 "/>
<path style=" stroke:none;fill-rule:nonzero;fill:rgb(94.117647%,60%,34.901961%);fill-opacity:1;" d="M 65.082031 56.210938 C 65.082031 56.210938 66.703125 63.890625 67.910156 67.113281 C 69.121094 70.335938 69.4375 76.210938 68.464844 86.425781 C 67.492188 96.636719 69.5 96.488281 66.433594 97.566406 C 63.367188 98.644531 52.871094 95.792969 51.671875 92.429688 C 50.472656 89.0625 53.738281 75.914062 57.585938 71.269531 C 61.382812 66.679688 63.0625 65.070312 63.136719 63.933594 C 63.214844 62.796875 62.167969 57.871094 62.167969 57.871094 Z M 65.082031 56.210938 "/>
<path style=" stroke:none;fill-rule:nonzero;fill:rgb(70.196078%,88.627451%,100%);fill-opacity:1;" d="M 51.671875 92.429688 C 50.472656 89.066406 53.738281 75.914062 57.582031 71.269531 C 59.351562 69.132812 60.660156 67.640625 61.5625 66.542969 C 63.316406 65.648438 65.238281 64.835938 67.058594 64.414062 C 67.347656 65.445312 67.640625 66.390625 67.910156 67.113281 C 69.121094 70.335938 69.4375 76.210938 68.464844 86.425781 C 67.492188 96.640625 69.496094 96.488281 66.433594 97.566406 C 63.367188 98.644531 52.871094 95.792969 51.671875 92.429688 Z M 51.671875 92.429688 "/>
<path style=" stroke:none;fill-rule:nonzero;fill:rgb(70.196078%,88.627451%,100%);fill-opacity:1;" d="M 68.414062 63.148438 C 68.417969 62.558594 60.640625 65.050781 60.554688 65.617188 C 60.46875 66.179688 59.878906 68.273438 59.175781 69.371094 C 58.46875 70.472656 69.21875 77.609375 69.015625 74.472656 C 68.8125 71.339844 68.40625 64.71875 68.414062 63.148438 Z M 68.414062 63.148438 "/>
<path style=" stroke:none;fill-rule:nonzero;fill:rgb(89.019608%,52.156863%,25.098039%);fill-opacity:1;" d="M 63.121094 64.058594 C 63.128906 64.015625 63.132812 63.976562 63.136719 63.933594 C 63.214844 62.796875 62.167969 57.871094 62.167969 57.871094 L 65.082031 56.210938 C 65.082031 56.210938 65.457031 57.996094 65.984375 60.203125 C 64.941406 62.738281 64.070312 63.570312 63.121094 64.058594 Z M 63.121094 64.058594 "/>
<path style=" stroke:none;fill-rule:nonzero;fill:rgb(94.117647%,60%,34.901961%);fill-opacity:1;" d="M 57.003906 59.371094 C 57.414062 62.089844 59.132812 64.121094 61.304688 63.738281 C 62.894531 63.460938 65.449219 61.429688 64.890625 58.179688 C 64.429688 55.46875 62.382812 53.523438 60.207031 53.851562 C 58.027344 54.183594 56.59375 56.652344 57.003906 59.371094 Z M 57.003906 59.371094 "/>
<path style=" stroke:none;fill-rule:nonzero;fill:rgb(94.117647%,60%,34.901961%);fill-opacity:1;" d="M 53.40625 76.648438 C 51.695312 73.164062 51.691406 70.019531 50.382812 68.949219 C 48.546875 67.441406 47.167969 64.261719 47.875 64.1875 C 48.582031 64.113281 51.238281 66.902344 51.238281 66.902344 C 51.238281 66.902344 50.570312 65.839844 50.75 65.769531 C 50.933594 65.695312 52.289062 66.828125 52.425781 68.070312 C 52.566406 69.308594 54.925781 75.125 57.101562 77.082031 C 59.277344 79.042969 55.121094 80.128906 53.40625 76.648438 Z M 53.40625 76.648438 "/>
<path style=" stroke:none;fill-rule:nonzero;fill:rgb(56.862745%,83.529412%,100%);fill-opacity:1;" d="M 66.527344 69.050781 C 69.902344 70.136719 67.632812 80.417969 64.324219 86.378906 C 61.015625 92.34375 55.933594 86.65625 54.003906 85.011719 C 53.269531 84.386719 52.800781 83.769531 52.5 83.246094 C 53.398438 79.617188 54.785156 75.75 56.351562 73.066406 C 59.335938 77.097656 61.53125 67.441406 66.527344 69.050781 Z M 66.527344 69.050781 "/>
<path style=" stroke:none;fill-rule:nonzero;fill:rgb(70.196078%,88.627451%,100%);fill-opacity:1;" d="M 65.542969 68.234375 C 69.832031 68.957031 66.742188 79.59375 63.292969 83.738281 C 59.84375 87.886719 55.632812 83.367188 54.382812 80.757812 C 53.132812 78.152344 50.546875 73.6875 50.734375 70.910156 C 50.769531 70.390625 51.839844 70.355469 53.109375 70.535156 C 54.308594 70.707031 59.234375 78.5625 59.234375 78.5625 C 59.234375 78.5625 61.796875 67.601562 65.542969 68.234375 Z M 65.542969 68.234375 "/>
<path style=" stroke:none;fill-rule:nonzero;fill:rgb(5.882353%,17.647059%,36.078431%);fill-opacity:1;" d="M 56.0625 53.695312 C 53.347656 54.632812 54.691406 58.261719 56.074219 58.484375 C 57.457031 58.710938 59.238281 56.25 60.070312 56.21875 C 60.902344 56.1875 59.808594 57.644531 60.519531 58.042969 C 61.234375 58.441406 61.878906 59.066406 62.03125 59.996094 C 62.183594 60.925781 62.640625 62.957031 61.671875 62.980469 C 60.707031 63 59.734375 61.886719 59.085938 61.796875 C 58.433594 61.710938 57.855469 61.859375 57.855469 61.859375 C 57.855469 61.859375 59.359375 64.269531 60.566406 64.480469 C 61.773438 64.695312 63.21875 63.003906 64.269531 61.558594 C 65.3125 60.117188 64.980469 59.089844 64.980469 59.089844 C 64.980469 59.089844 65.875 60.242188 66.488281 60.199219 C 67.101562 60.152344 65.640625 59.175781 65.769531 56.605469 C 65.898438 54.03125 64.859375 52.601562 63.464844 52.507812 C 62.074219 52.414062 62.296875 51.71875 60.167969 51.628906 C 58.25 51.550781 56.699219 53.476562 56.0625 53.695312 Z M 56.0625 53.695312 "/>
<path style=" stroke:none;fill-rule:nonzero;fill:rgb(94.117647%,60%,34.901961%);fill-opacity:1;" d="M 61.511719 59.339844 C 61.40625 60 61.707031 60.597656 62.1875 60.675781 C 62.664062 60.753906 63.136719 60.28125 63.242188 59.621094 C 63.351562 58.960938 63.046875 58.363281 62.570312 58.289062 C 62.09375 58.210938 61.617188 58.683594 61.511719 59.339844 Z M 61.511719 59.339844 "/>
<path style=" stroke:none;fill-rule:nonzero;fill:rgb(18.823529%,23.529412%,37.647059%);fill-opacity:1;" d="M 223.9375 62.679688 C 224.269531 61.496094 223.878906 61.082031 224.066406 59.421875 C 224.265625 57.691406 224.457031 56.167969 222.796875 55.269531 C 221.132812 54.371094 219.011719 52.445312 217.585938 53.578125 C 216.15625 54.707031 214.875 54.207031 214.253906 55.222656 C 213.628906 56.238281 213.3125 57.226562 213.472656 59.117188 C 213.582031 60.421875 223.9375 62.679688 223.9375 62.679688 Z M 223.9375 62.679688 "/>
<path style=" stroke:none;fill-rule:nonzero;fill:rgb(5.882353%,17.647059%,36.078431%);fill-opacity:1;" d="M 200.660156 127.066406 C 200.660156 127.066406 199.746094 127.5 196.789062 126.6875 C 194.46875 126.046875 191.96875 125.613281 193.550781 127.148438 C 195.132812 128.6875 197.8125 129.617188 198.882812 129.691406 C 199.953125 129.765625 201.421875 130.925781 202.121094 130.394531 C 202.820312 129.863281 203.121094 127.386719 203.046875 127.390625 C 202.976562 127.394531 200.660156 127.066406 200.660156 127.066406 Z M 200.660156 127.066406 "/>
<path style=" stroke:none;fill-rule:nonzero;fill:rgb(5.882353%,17.647059%,36.078431%);fill-opacity:1;" d="M 237.492188 123.886719 C 237.492188 123.886719 242.023438 126.632812 241.167969 127.289062 C 240.316406 127.949219 238.972656 129.105469 237.945312 130.265625 C 236.914062 131.429688 233.148438 131.835938 233.019531 131.179688 C 232.890625 130.523438 235.28125 129.472656 235.667969 128.890625 C 236.054688 128.308594 235.84375 125.148438 235.84375 125.148438 Z M 237.492188 123.886719 "/>
<path style=" stroke:none;fill-rule:nonzero;fill:rgb(98.431373%,52.54902%,15.294118%);fill-opacity:1;" d="M 215.300781 94.753906 C 215.300781 94.753906 222.101562 113.433594 223.554688 115.257812 C 225.003906 117.078125 235.867188 126.964844 235.867188 126.964844 C 235.867188 126.964844 238.691406 125.242188 238.078125 124.085938 C 237.464844 122.929688 231.953125 113.171875 229.445312 110.453125 C 226.933594 107.730469 228.410156 97.496094 225.402344 89.875 C 222.394531 82.25 215.300781 94.753906 215.300781 94.753906 Z M 215.300781 94.753906 "/>
<path style=" stroke:none;fill-rule:nonzero;fill:rgb(87.058824%,44.705882%,10.588235%);fill-opacity:1;" d="M 215.300781 94.753906 C 215.300781 94.753906 222.394531 82.25 225.402344 89.871094 C 226.507812 92.675781 227.09375 96.035156 227.339844 99.035156 C 224.855469 104.710938 223.527344 110.652344 223 114.300781 C 220.863281 110.035156 215.300781 94.753906 215.300781 94.753906 Z M 215.300781 94.753906 "/>
<path style=" stroke:none;fill-rule:nonzero;fill:rgb(94.117647%,60%,34.901961%);fill-opacity:1;" d="M 221.847656 58.941406 C 221.847656 58.941406 224.46875 63.648438 227.324219 68.695312 C 231.96875 76.898438 226.742188 91.785156 225.085938 93.378906 C 223.429688 94.96875 214.824219 92.136719 214.28125 90.945312 C 213.738281 89.757812 214.476562 81.671875 217.0625 76.570312 C 219.644531 71.472656 220.960938 68.054688 220.265625 65.796875 C 219.683594 63.914062 218.800781 60.367188 218.800781 60.367188 Z M 221.847656 58.941406 "/>
<path style=" stroke:none;fill-rule:nonzero;fill:rgb(89.019608%,52.156863%,25.098039%);fill-opacity:1;" d="M 221.847656 58.941406 L 218.800781 60.367188 C 218.800781 60.367188 219.679688 63.914062 220.261719 65.796875 C 220.402344 66.246094 220.457031 66.742188 220.445312 67.289062 C 221.519531 66.347656 222.808594 64.78125 223.695312 62.246094 C 222.578125 60.257812 221.847656 58.941406 221.847656 58.941406 Z M 221.847656 58.941406 "/>
<path style=" stroke:none;fill-rule:nonzero;fill:rgb(94.117647%,60%,34.901961%);fill-opacity:1;" d="M 214.835938 59.773438 C 214.15625 62.085938 214.53125 64.660156 215.980469 65.355469 C 217.03125 65.863281 220.585938 65.125 221.117188 62.503906 C 221.617188 60.027344 221.527344 57.695312 219.792969 56.941406 C 218.058594 56.1875 215.546875 57.347656 214.835938 59.773438 Z M 214.835938 59.773438 "/>
<path style=" stroke:none;fill-rule:nonzero;fill:rgb(98.431373%,52.54902%,15.294118%);fill-opacity:1;" d="M 215.199219 88.273438 C 211.632812 105.828125 198.851562 126.015625 199.464844 127.152344 C 200.050781 128.234375 203.136719 128.664062 203.136719 128.664062 C 203.136719 128.664062 213.613281 117.5625 214.375 112.6875 C 215.132812 107.816406 225.28125 100.21875 226.425781 93.867188 C 227.574219 87.519531 226.425781 88.601562 226.425781 88.601562 Z M 215.199219 88.273438 "/>
<path style=" stroke:none;fill-rule:nonzero;fill:rgb(50.588235%,81.176471%,100%);fill-opacity:1;" d="M 219.46875 69.488281 C 216.609375 71.746094 209.414062 73.636719 209.414062 73.636719 L 218.800781 73.636719 Z M 219.46875 69.488281 "/>
<path style=" stroke:none;fill-rule:nonzero;fill:rgb(50.588235%,81.176471%,100%);fill-opacity:1;" d="M 226.9375 67.332031 L 225.773438 65.371094 C 225.773438 65.371094 225.121094 66.042969 223.0625 66.925781 C 221.003906 67.808594 219.714844 67.78125 219.714844 67.78125 L 217.09375 76.320312 L 225.601562 72.171875 Z M 226.9375 67.332031 "/>
<path style=" stroke:none;fill-rule:nonzero;fill:rgb(98.431373%,52.54902%,15.294118%);fill-opacity:1;" d="M 227.34375 66.777344 C 224.34375 65.644531 221.417969 69.917969 220.382812 71.992188 C 219.347656 74.066406 218.859375 75.527344 218.859375 75.527344 L 217.09375 75.039062 C 217.09375 75.039062 215.023438 79.800781 214.660156 82.179688 C 214.292969 84.558594 213.867188 92.699219 213.867188 92.699219 C 213.867188 92.699219 226.742188 91.953125 226.789062 91.574219 C 226.832031 91.191406 228.875 87.035156 229.535156 83.824219 C 230.617188 78.578125 230.070312 71.136719 228.878906 69.0625 C 227.6875 66.988281 227.34375 66.777344 227.34375 66.777344 Z M 227.34375 66.777344 "/>
<path style=" stroke:none;fill-rule:nonzero;fill:rgb(92.156863%,61.176471%,38.823529%);fill-opacity:1;" d="M 218.507812 92.351562 L 196.007812 92.351562 C 195.953125 92.351562 195.953125 72.003906 196.007812 72.003906 L 218.507812 72.003906 C 218.566406 72.003906 218.613281 72.050781 218.613281 72.109375 L 218.613281 92.246094 C 218.613281 92.304688 218.566406 92.351562 218.507812 92.351562 Z M 218.507812 92.351562 "/>
<path style=" stroke:none;fill-rule:nonzero;fill:rgb(94.117647%,70.980392%,53.72549%);fill-opacity:1;" d="M 211.691406 92.351562 L 195.539062 92.351562 C 195.484375 92.351562 195.484375 72.003906 195.539062 72.003906 L 211.691406 72.003906 C 211.75 72.003906 211.796875 72.050781 211.796875 72.109375 L 211.796875 92.246094 C 211.796875 92.304688 211.75 92.351562 211.691406 92.351562 Z M 211.691406 92.351562 "/>
<use xlink:href="#surface20" mask="url(#mask5)"/>
<path style=" stroke:none;fill-rule:nonzero;fill:rgb(94.117647%,60%,34.901961%);fill-opacity:1;" d="M 207.390625 92.164062 C 206.785156 91.636719 206.207031 91.027344 206.707031 90.992188 C 207.226562 90.953125 208.394531 91.613281 209.289062 92.175781 C 210 92.183594 210.472656 92.199219 210.472656 92.199219 L 212.074219 94.132812 C 212.074219 94.132812 210.488281 94.355469 208.253906 94.40625 C 206.023438 94.453125 203.855469 93.488281 203.066406 92.722656 C 202.609375 92.28125 205.160156 92.175781 207.390625 92.164062 Z M 207.390625 92.164062 "/>
<path style=" stroke:none;fill-rule:nonzero;fill:rgb(50.588235%,81.176471%,100%);fill-opacity:1;" d="M 225.8125 67.511719 C 229.191406 68.511719 229.796875 73.292969 227.542969 79.351562 C 225.292969 85.414062 216.585938 93.738281 212.113281 94.65625 C 209.75 95.140625 209.414062 92.273438 209.414062 92.273438 C 209.414062 92.273438 217.601562 84.199219 219.054688 81.09375 C 220.507812 77.992188 222.734375 66.597656 225.8125 67.511719 Z M 225.8125 67.511719 "/>
<path style=" stroke:none;fill-rule:nonzero;fill:rgb(18.823529%,23.529412%,37.647059%);fill-opacity:1;" d="M 223.9375 62.679688 C 222.757812 62.71875 220.8125 62.042969 220.691406 61.519531 C 220.574219 60.992188 220.839844 60.101562 220.453125 60.429688 C 220.066406 60.757812 219.835938 62.839844 219.488281 63.09375 C 218.886719 63.527344 218.800781 60.828125 219.148438 59.882812 C 219.390625 59.222656 218.421875 58.292969 216.863281 59.339844 C 215.519531 60.242188 214.609375 59.945312 214.113281 59.738281 C 213.613281 59.53125 213.898438 57.957031 213.898438 57.957031 L 217.664062 55.09375 L 221.574219 57.195312 Z M 223.9375 62.679688 "/>
<path style=" stroke:none;fill-rule:nonzero;fill:rgb(94.117647%,60%,34.901961%);fill-opacity:1;" d="M 220.292969 60.953125 C 220.164062 61.730469 220.488281 62.4375 221.015625 62.523438 C 221.539062 62.609375 222.070312 62.046875 222.203125 61.265625 C 222.332031 60.488281 222.007812 59.785156 221.480469 59.695312 C 220.953125 59.609375 220.421875 60.171875 220.292969 60.953125 Z M 220.292969 60.953125 "/>
</g>
</svg>
